<svg xmlns="http://www.w3.org/2000/svg" id="s-32" viewBox="0 0 34.284 34.288">

  	<circle cx="17.142" cy="17.142" r="17.142" fill="#002BFF"/>
    <path fill="#000938" d="M24.701 14.702c.341-2.281-1.396-3.508-3.77-4.326l.77-3.09-1.882-.469-.75 3.009a77.723 77.723 0 0 0-1.507-.355l.756-3.028-1.88-.47-.771 3.09c-.41-.093-.811-.185-1.201-.282l.002-.01-2.594-.648-.5 2.01s1.395.32 1.366.34a1 1 0 0 1 .876 1.093l-.877 3.52a1.557 1.557 0 0 1 .195.063l-.198-.05-1.23 4.933a.685.685 0 0 1-.863.446c.019.028-1.367-.341-1.367-.341l-.934 2.154 2.449.61c.455.114.901.234 1.34.346l-.778 3.126 1.879.469.771-3.092c.513.139 1.011.268 1.498.389l-.768 3.078 1.881.468.779-3.12c3.207.608 5.62.363 6.634-2.538.818-2.336-.04-3.683-1.728-4.562a3.002 3.002 0 0 0 2.402-2.763zm-4.298 6.027c-.582 2.335-4.514 1.073-5.79.756l1.033-4.14c1.275.317 5.364.947 4.758 3.384zm.581-6.06c-.53 2.124-3.803 1.044-4.866.78l.937-3.756c1.062.265 4.482.759 3.93 2.975z"/>
</svg>
