<svg xmlns="http://www.w3.org/2000/svg" id="s-33" viewBox="0 0 34.284 34.288">
    <path fill="#000938" d="M17.142.002a17.142 17.142 0 1 0 17.142 17.142A17.138 17.138 0 0 0 17.142.002zM28.73 24.17h.995v2.936h-9.018V24.17h1.888V11.167h-.093l-4.407 15.939h-3.413l-4.35-15.939h-.11V24.17h1.887v2.936h-7.55V24.17h.967a1.058 1.058 0 0 0 .92-.808v-12.37a1.127 1.127 0 0 0-.92-.873h-.967V7.183H14l3.1 11.534h.086l3.128-11.534h9.412v2.936h-.995a1.13 1.13 0 0 0-.892.874v12.37a1.056 1.056 0 0 0 .892.807z"/>
</svg>


