<svg xmlns="http://www.w3.org/2000/svg" id="s-31" viewBox="0 0 34.284 34.285">
    <path fill="transparent" d="M17.142 0A17.142 17.142 0 1 1 0 17.142 17.143 17.143 0 0 1 17.142 0z"/>
    <path fill="transparent" d="M9.692 15.973a2.62 2.62 0 0 1-2.559 2.676 2.679 2.679 0 0 1 0-5.352 2.62 2.62 0 0 1 2.559 2.676zm19.233.06a2.561 2.561 0 1 1-2.558-2.676 2.619 2.619 0 0 1 2.558 2.677z" class="fb"/>
    <path fill="none" stroke="#002BFF" d="M23.72 8.799c-1.933-.794-3.904-1.735-5.381-.707-1.712.788-1.632 3.37-1.501 6" class="fc"/>
    <path fill="none" stroke="#002BFF" d="M27.367 19.87c0 4.118-4.727 7.457-10.558 7.457-5.832 0-10.558-3.339-10.558-7.456 0-4.117 4.726-7.455 10.558-7.455 5.831 0 10.558 3.338 10.558 7.455zM27.16 9.195a2.256 2.256 0 1 1-4.499 0 2.256 2.256 0 1 1 4.5 0z" class="fb"/>
    <path fill="#002BFF" d="M13.942 18.37a1.508 1.508 0 1 1-1.508-1.543 1.526 1.526 0 0 1 1.508 1.544zm7.844-.131a1.507 1.507 0 1 1-1.507-1.544 1.526 1.526 0 0 1 1.507 1.544z"/>
    <path stroke="#002BFF" fill="none" d="M12.339 22.474c3.347 2.366 5.872 1.433 8.293.088" class="fc"/>
</svg>


