<svg xmlns="http://www.w3.org/2000/svg" id="s-28" viewBox="0 0 34.284 34.284">
    <path fill="transparent" d="M34.284 17.142A17.142 17.142 0 1 1 17.142 0a17.137 17.137 0 0 1 17.142 17.142z"/>
    <path fill="#002BFF" d="M14 24.999c-.558 0-.457-.214-.658-.743l-1.629-5.371 10.115-6.314 1.185.314-.985 2.686z"/>
    <path fill="#002BFF" d="M14 24.999a1.116 1.116 0 0 0 .857-.429c.37-.356 5.143-5 5.143-5l-2.93-.713-2.713 1.713L14 24.856z"/>
    <path fill="#002BFF" d="M14.286 20.628l6.913 5.1c.786.428 1.357.214 1.557-.73l2.815-13.256c.286-1.157-.444-1.671-1.2-1.328l-16.514 6.37c-1.129.458-1.114 1.087-.2 1.358L11.9 19.47l9.813-6.186c.457-.286.886-.128.543.186z"/>
</svg>


