<svg xmlns="http://www.w3.org/2000/svg" id="s-29" viewBox="0 0 34.284 34.284">
    <circle cx="17.142" cy="17.142" r="17.142" fill="transparent"/>
    <path fill="#002BFF" d="M28.134 10.323a9.002 9.002 0 0 1-2.59.71 4.528 4.528 0 0 0 1.983-2.494 9.003 9.003 0 0 1-2.865 1.094 4.512 4.512 0 0 0-7.8 3.086 4.56 4.56 0 0 0 .116 1.028 12.802 12.802 0 0 1-9.295-4.711 4.514 4.514 0 0 0 1.395 6.02 4.486 4.486 0 0 1-2.043-.564v.057a4.513 4.513 0 0 0 3.617 4.422 4.497 4.497 0 0 1-1.188.158 4.554 4.554 0 0 1-.848-.08 4.517 4.517 0 0 0 4.212 3.133 9.09 9.09 0 0 1-6.677 1.866 12.824 12.824 0 0 0 19.743-10.804q0-.293-.013-.583a9.194 9.194 0 0 0 2.253-2.338z"/>
</svg>


