<svg xmlns="http://www.w3.org/2000/svg" id="s-35" viewBox="0 0 34.284 34.285">
    <path fill="transparent" d="M17.142 0A17.142 17.142 0 1 1 0 17.142 17.143 17.143 0 0 1 17.142 0z" class="ia"/>
    <path fill="#000938" d="M20.92 16.91c-2.085-1.114-4.082-2.138-6.122-3.208V20.1c2.147-1.167 4.41-2.236 6.13-3.19z" class="ia"/>
    <path fill="#002BFF" d="M15.19 25.108a46.11 46.11 0 0 1-6.719-.34 2.951 2.951 0 0 1-1.54-.8 3.247 3.247 0 0 1-.732-1.409 9.224 9.224 0 0 1-.311-2.067 49.027 49.027 0 0 1 0-6.7c.14-1.24.207-2.708 1.131-3.565a3.037 3.037 0 0 1 1.515-.766 83.601 83.601 0 0 1 8.617-.303 83.768 83.768 0 0 1 8.617.303 2.967 2.967 0 0 1 1.773 1.05 8.833 8.833 0 0 1 .944 4.27c.035.614.035 4.107 0 4.722a10.804 10.804 0 0 1-.544 3.51 2.584 2.584 0 0 1-.624.999 2.988 2.988 0 0 1-1.585.81c-3.748.283-6.93.344-10.542.286zm5.74-8.198c-2.086-1.114-4.083-2.147-6.123-3.217v6.398c2.147-1.167 4.411-2.236 6.131-3.19l-.009.01z"/>
</svg>


