<?xml version="1.0" standalone="no"?>
<!DOCTYPE svg PUBLIC "-//W3C//DTD SVG 20010904//EN"
 "http://www.w3.org/TR/2001/REC-SVG-20010904/DTD/svg10.dtd">
<svg version="1.0" xmlns="http://www.w3.org/2000/svg"
 width="704.000000pt" height="704.000000pt" viewBox="0 0 704.000000 704.000000"
 preserveAspectRatio="xMidYMid meet">
<metadata>
Created by potrace 1.11, written by Peter Selinger 2001-2013
</metadata>
<g transform="translate(0.000000,704.000000) scale(0.100000,-0.100000)"
fill="#000000" stroke="none">
<path d="M1392 6282 c-18 -21 -76 -82 -129 -137 -52 -55 -170 -178 -262 -274
-91 -96 -195 -204 -229 -240 -35 -36 -130 -135 -210 -220 -81 -85 -174 -182
-207 -216 -33 -34 -114 -119 -180 -189 -66 -70 -122 -129 -124 -132 -3 -2 2
-10 11 -17 13 -10 43 -45 143 -166 11 -13 25 -28 30 -35 6 -6 69 -81 140 -166
72 -85 132 -157 135 -160 3 -3 75 -88 160 -190 85 -101 162 -191 170 -200 8
-9 33 -38 55 -64 22 -27 54 -65 71 -85 17 -20 69 -81 115 -136 100 -120 121
-144 134 -159 9 -10 142 -167 190 -225 11 -13 25 -29 30 -35 6 -6 43 -51 84
-101 41 -49 80 -94 85 -100 6 -5 56 -64 111 -130 55 -66 110 -131 122 -145 11
-14 90 -106 173 -205 84 -99 166 -196 182 -215 16 -19 46 -55 66 -79 21 -25
44 -52 52 -61 8 -8 35 -40 60 -70 25 -30 55 -66 67 -80 11 -14 76 -90 143
-170 186 -221 204 -242 215 -254 6 -6 33 -38 61 -71 64 -78 87 -105 99 -119
12 -14 56 -66 110 -130 22 -26 49 -58 60 -71 11 -12 36 -42 57 -66 20 -24 68
-82 108 -129 108 -127 111 -131 165 -195 27 -33 52 -62 55 -65 3 -3 17 -20 32
-37 l26 -33 52 63 c29 34 67 80 86 102 18 22 93 112 166 200 73 88 137 165
143 172 5 7 15 18 20 25 6 7 35 43 65 79 30 36 71 85 90 109 19 24 40 48 45
54 6 6 28 34 50 61 22 28 43 52 46 55 5 4 43 51 114 138 5 7 19 23 30 35 11
12 38 45 60 72 21 28 49 61 61 75 12 14 50 59 84 100 34 41 74 91 90 110 16
19 42 50 57 69 15 19 64 78 108 130 44 53 85 102 90 109 6 7 17 21 25 30 9 9
47 55 85 102 38 47 72 87 75 90 3 3 39 46 79 95 41 50 78 92 82 93 5 2 9 8 9
14 0 5 6 15 13 22 7 8 29 32 48 56 18 23 43 52 54 64 11 12 36 42 55 66 19 24
47 58 61 75 14 16 34 41 45 53 10 13 27 33 38 45 10 12 30 38 45 56 14 19 37
46 50 60 13 15 37 43 55 65 17 21 47 58 66 80 19 23 51 62 70 86 19 24 46 57
60 72 14 15 30 34 35 41 10 12 86 105 117 142 98 119 146 177 178 215 21 25
127 153 236 285 109 132 200 242 203 245 3 3 35 41 71 85 35 44 67 82 70 85 4
3 25 29 48 58 l41 52 -209 213 c-114 116 -272 277 -350 357 -78 80 -297 304
-487 498 l-346 352 -2111 -1 -2111 -1 -33 -36z m-282 -1545 c58 -42 125 -91
149 -109 24 -18 52 -37 62 -43 32 -18 224 -160 227 -167 2 -5 10 -8 18 -8 8 0
14 -4 14 -8 0 -4 15 -16 33 -27 17 -10 34 -21 37 -25 6 -7 373 -270 398 -285
9 -5 19 -13 22 -16 4 -5 100 -74 214 -153 22 -16 43 -31 46 -35 3 -3 13 -10
22 -16 9 -5 90 -63 180 -127 90 -65 226 -163 303 -218 77 -54 145 -103 150
-108 6 -4 46 -34 90 -65 147 -104 260 -186 271 -195 9 -8 35 -26 112 -77 8 -5
23 -17 33 -25 53 -45 50 -44 73 -30 11 7 101 72 199 144 98 72 189 138 201
146 30 20 72 50 105 75 14 12 100 75 191 140 91 66 170 123 175 127 24 19 92
69 201 148 64 47 142 103 173 126 31 22 99 72 151 110 52 38 120 87 150 109
30 22 57 43 58 47 2 5 10 8 17 8 7 0 15 4 17 8 2 4 77 62 168 127 173 126 245
178 270 198 8 7 37 28 65 47 27 19 54 38 60 43 5 4 42 30 80 59 39 28 86 63
105 78 19 14 58 41 85 60 l50 33 -25 -29 c-14 -16 -28 -30 -32 -32 -5 -2 -8
-10 -8 -17 0 -7 -4 -15 -9 -17 -5 -1 -41 -43 -80 -93 -38 -49 -76 -97 -84
-105 -8 -8 -31 -37 -52 -65 -21 -27 -56 -72 -79 -100 -22 -27 -45 -56 -51 -63
-5 -8 -20 -25 -32 -38 -13 -14 -23 -28 -23 -31 0 -3 -15 -22 -32 -42 -18 -20
-44 -51 -58 -70 -14 -18 -30 -38 -35 -44 -6 -7 -37 -46 -70 -87 -33 -41 -63
-76 -67 -78 -4 -2 -8 -8 -8 -13 0 -5 -11 -21 -25 -36 -14 -16 -77 -93 -140
-173 -63 -80 -121 -152 -128 -160 -8 -8 -94 -116 -193 -240 -98 -124 -183
-230 -189 -236 -5 -6 -21 -26 -35 -44 -14 -18 -38 -50 -55 -70 -16 -20 -43
-53 -60 -74 -16 -22 -35 -44 -40 -50 -6 -6 -26 -31 -45 -56 -19 -25 -41 -52
-47 -60 -7 -8 -83 -103 -169 -210 -86 -107 -170 -212 -187 -234 -18 -21 -39
-47 -47 -58 -21 -27 -118 -149 -138 -173 -10 -11 -33 -40 -52 -65 -37 -47 -54
-69 -81 -100 -8 -10 -42 -53 -75 -94 -32 -42 -63 -76 -69 -76 -6 0 -27 21 -48
47 -20 27 -49 62 -64 80 -16 17 -35 39 -43 50 -88 107 -247 300 -255 309 -5 7
-17 20 -25 31 -29 36 -105 128 -115 139 -25 28 -63 74 -94 114 -19 25 -45 56
-57 70 -13 14 -67 79 -121 145 -54 66 -105 128 -113 138 -8 10 -25 31 -38 45
-13 15 -35 43 -50 62 -15 19 -29 37 -32 40 -3 3 -37 43 -75 90 -39 47 -80 96
-91 110 -12 14 -49 59 -83 100 -34 41 -69 84 -79 95 -9 11 -59 72 -111 135
-175 213 -193 235 -231 280 -21 25 -85 101 -141 170 -56 69 -119 145 -140 170
-33 40 -198 240 -286 347 -17 21 -39 48 -50 60 -10 12 -25 30 -33 40 -44 54
-106 129 -115 139 -5 6 -23 28 -40 49 -16 21 -36 44 -42 51 -7 7 -13 16 -13
20 0 3 6 2 13 -3 6 -6 59 -44 117 -86z"/>
</g>
</svg>
