<svg xmlns="http://www.w3.org/2000/svg" viewBox="0 0 163.3625 44">
  <title>logo</title>
  <g>
    <polygon points="122.624 6.95 124.13 10.003 127.499 10.492 125.062 12.869 125.637 16.224 122.624 14.64 119.611 16.224 120.186 12.869 117.748 10.492 121.117 10.003 122.624 6.95" fill="#fff"/>
    <g>
      <path d="M53.3988,20.5358a6.5343,6.5343,0,0,0-4.5054-1.6592,6.8564,6.8564,0,0,0-4.1353,1.194,7.2663,7.2663,0,0,0-2.4132,2.9173,8.1554,8.1554,0,0,0-.7685,3.2946,6.6417,6.6417,0,0,0,.84,3.3051,6.1747,6.1747,0,0,0,2.327,2.3476,6.6772,6.6772,0,0,0,3.3908.8608,7.09,7.09,0,0,0,4.566-1.6056,6.9346,6.9346,0,0,0,2.491-4.1389l.258-2.468A5.9568,5.9568,0,0,0,53.3988,20.5358Z" fill="none"/>
      <path d="M80.128,20.0137a5.2018,5.2018,0,0,0-3.3607-1.1371,7.0174,7.0174,0,0,0-3.6742.9906,7.2894,7.2894,0,0,0-2.6021,2.6659,7.2168,7.2168,0,0,0-.9514,3.6156c0,.119.0015.2223.0039.3116L82.038,22.587A6.4427,6.4427,0,0,0,80.128,20.0137Z" fill="none"/>
      <path d="M157.2065,24.6066a6.5041,6.5041,0,0,0-3.1735-.7973,6.732,6.732,0,0,0-6.3718,3.8949,8.4084,8.4084,0,0,0-.81,3.5988,6.4743,6.4743,0,0,0,.8592,3.3211,6.1063,6.1063,0,0,0,2.3243,2.2832,6.483,6.483,0,0,0,3.195.8189,6.996,6.996,0,0,0,3.99-1.0911,6.7229,6.7229,0,0,0,2.4019-2.8,8.62,8.62,0,0,0,.7889-3.6026,6.4386,6.4386,0,0,0-.8789-3.3617A6.1636,6.1636,0,0,0,157.2065,24.6066Z" fill="none"/>
      <polygon points="123.784 17 114.229 17 115.211 9 112.251 9 111.313 17 107.569 17 107.241 20 110.994 20 109.119 35 112.032 35 113.906 20 120.688 20 117.664 44 120.566 44 123.784 17" fill="#fff"/>
      <path d="M131.84,24.9353a6.8858,6.8858,0,0,1,3.5633-.9918,6.8134,6.8134,0,0,1,2.6757.5258,6.6447,6.6447,0,0,1,2.1254,1.4083l.2958.2964,1.8482-1.9757-.2773-.2767a8.5149,8.5149,0,0,0-2.9737-1.8987,10.5978,10.5978,0,0,0-3.8276-.6735,9.6593,9.6593,0,0,0-5.1436,1.4205,10.2072,10.2072,0,0,0-3.5992,3.7391,9.9842,9.9842,0,0,0-1.301,4.9283,8.509,8.509,0,0,0,1.3149,4.7282,8.7766,8.7766,0,0,0,3.4366,3.086,9.7791,9.7791,0,0,0,4.4443,1.0695,10.6293,10.6293,0,0,0,5.7958-1.7146l.3531-.2254-1.4413-2.0976-.33.213a7.399,7.399,0,0,1-4.065,1.23,6.6755,6.6755,0,0,1-3.3895-.8605,6.2395,6.2395,0,0,1-3.1672-5.5177,7.2421,7.2421,0,0,1,.9936-3.7216A7.5279,7.5279,0,0,1,131.84,24.9353Z" fill="#fff"/>
      <path d="M162.1212,25.4923a8.5667,8.5667,0,0,0-3.37-3.16,9.8158,9.8158,0,0,0-4.6285-1.1178,10.1949,10.1949,0,0,0-5.6888,1.5165A9.4516,9.4516,0,0,0,145.01,26.6a11.1015,11.1015,0,0,0-1.11,4.7922,8.7633,8.7633,0,0,0,1.2655,4.6981,8.5707,8.5707,0,0,0,3.3934,3.1362h0a9.8843,9.8843,0,0,0,4.5816,1.0944,10.0539,10.0539,0,0,0,5.7377-1.5644,9.591,9.591,0,0,0,3.3978-3.9135,11.1962,11.1962,0,0,0,1.0863-4.7449A8.7222,8.7222,0,0,0,162.1212,25.4923Zm-1.71,4.74a8.62,8.62,0,0,1-.7889,3.6026,6.7229,6.7229,0,0,1-2.4019,2.8,6.996,6.996,0,0,1-3.99,1.0911,6.483,6.483,0,0,1-3.195-.8189,6.1063,6.1063,0,0,1-2.3243-2.2832,6.4743,6.4743,0,0,1-.8592-3.3211,8.4084,8.4084,0,0,1,.81-3.5988,6.732,6.732,0,0,1,6.3718-3.8949,6.5041,6.5041,0,0,1,3.1735.7973,6.1636,6.1636,0,0,1,2.3256,2.2638A6.4386,6.4386,0,0,1,160.411,30.2321Z" fill="#fff"/>
      <polygon points="44.694 3 23.124 3 22.755 6 31.995 6 28.38 35 31.427 35 35.042 6 44.325 6 44.694 3" fill="#fff"/>
      <path d="M56.1093,20.2012a7.9044,7.9044,0,0,0-2.4913-2.5391,9.1843,9.1843,0,0,0-4.9924-1.3579,9.4926,9.4926,0,0,0-5.566,1.58,9.9722,9.9722,0,0,0-3.37,3.9475,10.96,10.96,0,0,0-1.11,4.6774,9.2013,9.2013,0,0,0,1.1215,4.501,8.3383,8.3383,0,0,0,3.048,3.1865,8.2,8.2,0,0,0,4.27,1.1506,10.7039,10.7039,0,0,0,4.9153-1.1377,10.884,10.884,0,0,0,2.5976-1.8546L54.192,35h2.9161l2.1951-18H56.6758Zm-.66,4.3823-.258,2.468a6.9346,6.9346,0,0,1-2.491,4.1389,7.09,7.09,0,0,1-4.566,1.6056,6.6772,6.6772,0,0,1-3.3908-.8608,6.1747,6.1747,0,0,1-2.327-2.3476,6.6417,6.6417,0,0,1-.84-3.3051,8.1554,8.1554,0,0,1,.7685-3.2946,7.2663,7.2663,0,0,1,2.4132-2.9173,6.8564,6.8564,0,0,1,4.1353-1.194,6.5343,6.5343,0,0,1,4.5054,1.6592A5.9568,5.9568,0,0,1,55.45,24.5835Z" fill="#fff"/>
      <polygon points="64.158 0 59.908 35 62.821 35 67.117 0 64.158 0" fill="#fff"/>
      <path d="M85.4214,23.7018a9.3516,9.3516,0,0,0-2.9944-5.4964,8.5143,8.5143,0,0,0-5.6151-1.8794,9.9335,9.9335,0,0,0-5.2544,1.4208,10.2067,10.2067,0,0,0-3.623,3.7168,9.8568,9.8568,0,0,0-1.3023,4.9082,9.3088,9.3088,0,0,0,1.1688,4.6631,8.2444,8.2444,0,0,0,3.2826,3.2133,9.8988,9.8988,0,0,0,4.791,1.1431,10.8519,10.8519,0,0,0,6.077-1.9017l.3025-.2086-1.3-2.3391-.3724.2871a7.27,7.27,0,0,1-4.5289,1.567,6.4279,6.4279,0,0,1-3.8471-1.1955,6.1029,6.1029,0,0,1-2.1452-2.7361L85.495,24.0607ZM82.038,22.587,69.5435,26.46c-.0024-.0893-.0039-.1926-.0039-.3116a7.2168,7.2168,0,0,1,.9514-3.6156,7.2894,7.2894,0,0,1,2.6021-2.6659,7.0174,7.0174,0,0,1,3.6742-.9906,5.2018,5.2018,0,0,1,3.3607,1.1371A6.4427,6.4427,0,0,1,82.038,22.587Z" fill="#fff"/>
      <path d="M102.8053,17.6576a5.3288,5.3288,0,0,0-3.832-1.3316,9.3175,9.3175,0,0,0-4.4564,1.0728,9.6814,9.6814,0,0,0-2.5032,2.0122L92.2017,17H89.5862L87.3443,35h2.913l1.2055-9.6509a6.9762,6.9762,0,0,1,2.2808-4.5456,6.6176,6.6176,0,0,1,4.592-1.8029,3.6245,3.6245,0,0,1,2.5171.8144,2.71,2.71,0,0,1,.8735,2.1024l-.0431.482L100.1554,35h2.9125l1.6012-13.0077c.0353-.1788-.1582-.4183-.1582-.773a4.7368,4.7368,0,0,0-1.7056-3.5712Z" fill="#fff"/>
    </g>
    <path d="M17.5442,17H4.3264L0,21.5255,11.0286,34.5743,21.908,21.4533ZM11.0176,31.5058,2.862,21.6293l8.1068,5.8116,7.95-5.7983Z" fill="#1dcad3"/>
  </g>
</svg>
