<?xml version="1.0"?><svg xmlns="http://www.w3.org/2000/svg" xmlns:xlink="http://www.w3.org/1999/xlink"><symbol viewBox="0 0 512.005 512.005" id="s-at-1" xmlns="http://www.w3.org/2000/svg"><path d="M266.675 501.29V36.465l152.418 152.417c4.159 4.16 10.92 4.16 15.08 0 4.159-4.159 4.159-10.92 0-15.08L263.56 3.192c-.981-.981-2.176-1.771-3.477-2.325a10.578 10.578 0 0 0-8.147 0 10.162 10.162 0 0 0-3.476 2.325L77.85 173.802a10.643 10.643 0 0 0-3.136 7.55c0 2.731 1.045 5.46 3.115 7.551 4.159 4.16 10.92 4.16 15.08 0L245.346 36.465v464.824c0 5.887 4.778 10.665 10.665 10.665s10.664-4.777 10.664-10.664z" data-original="#000000" class="aactive-path"/></symbol><symbol viewBox="0 0 384.864 384.864" id="s-at-2" xmlns="http://www.w3.org/2000/svg"><path d="M184.03 7.305l-82.454 81.912c-2.393 2.393-3.514 5.541-3.431 8.666 0 .094-.059.176-.059.271v271.19c0 10.377 13.077 15.565 20.363 8.313l74.224-73.598 73.363 72.738c7.299 7.829 20.74 4.327 20.716-9.964V98.26c.213-3.277-.825-6.615-3.349-9.126L200.88 7.306c-4.658-4.635-12.203-4.635-16.849-.001zm79.046 95.152l.07 238.023-61.949-61.43c-2.358-2.347-5.447-3.48-8.536-3.456a11.852 11.852 0 0 0-8.537 3.455l-62.457 61.938V102.764L192.53 32.5l70.546 69.956z" data-original="#000000" class="bactive-path" data-old_color="#000000" fill="#00A8FF"/></symbol><symbol viewBox="0 0 490 490" id="s-at-3" xmlns="http://www.w3.org/2000/svg"><path data-original="#000000" class="cactive-path" d="M11.903 401.166l233.093-287.988 233.101 287.988 11.903-9.63L244.996 88.834 0 391.536z"/></symbol><symbol viewBox="0 0 34.284 34.288" id="s-bt" xmlns="http://www.w3.org/2000/svg"><circle cx="17.142" cy="17.142" r="17.142" fill="#25cbd3"/><path d="M24.701 14.702c.341-2.281-1.396-3.508-3.77-4.326l.77-3.09-1.882-.469-.75 3.009a77.723 77.723 0 0 0-1.507-.355l.756-3.028-1.88-.47-.771 3.09c-.41-.093-.811-.185-1.201-.282l.002-.01-2.594-.648-.5 2.01s1.395.32 1.366.34a1 1 0 0 1 .876 1.093l-.877 3.52a1.557 1.557 0 0 1 .195.063l-.198-.05-1.23 4.933a.685.685 0 0 1-.863.446c.019.028-1.367-.341-1.367-.341l-.934 2.154 2.449.61c.455.114.901.234 1.34.346l-.778 3.126 1.879.469.771-3.092c.513.139 1.011.268 1.498.389l-.768 3.078 1.881.468.779-3.12c3.207.608 5.62.363 6.634-2.538.818-2.336-.04-3.683-1.728-4.562a3.002 3.002 0 0 0 2.402-2.763zm-4.298 6.027c-.582 2.335-4.514 1.073-5.79.756l1.033-4.14c1.275.317 5.364.947 4.758 3.384zm.581-6.06c-.53 2.124-3.803 1.044-4.866.78l.937-3.756c1.062.265 4.482.759 3.93 2.975z"/></symbol><symbol viewBox="0 0 512 512" id="s-ch" xmlns="http://www.w3.org/2000/svg"><path d="M501 328.1c0-68.7-60.2-126.4-140.6-140.1 3.4-11.3 5.1-22.5 5.1-33.8C365.5 75.4 286.2 11 188.2 11S11 75.4 11 154.2c0 35.8 15.6 68.5 44.8 95.1L23.5 327l98-39.9c9.5 2.9 19.5 5.2 30 7.1-3.3 10.9-5 22.2-5 33.8 0 78.8 79.2 143.2 177.2 143.2 22.9 0 44.8-3.1 66.7-10.2l98 39.9-32.3-77.7c29.3-26.5 44.9-60.3 44.9-95.1zm-379.5-62.4l-59.4 23.5 18.8-45s-49-33.1-49-89c0-67.5 69.9-122.8 156.4-122.8s156.4 55.2 158.5 121.7c0 11.1-2 21.3-5.1 31.4-5.9-.5-11.8-.7-17.8-.7-74.6 0-138.2 37.3-164.4 89.8-12-1-38-8.9-38-8.9zm268.9 174c-19.9 8-43.7 12.2-65.6 12.2-86.5 0-156.4-55.2-156.4-122.8 0-67.5 69.9-122.8 156.4-122.8s156.4 55.2 156.4 122.8c0 55.7-49 89-49 89l18.8 45-60.6-23.4z" fill="#74c8d2"/></symbol><symbol viewBox="0 0 34.284 34.284" id="s-fb" xmlns="http://www.w3.org/2000/svg"><path xmlns="http://www.w3.org/2000/svg" fill="#25cbd3" d="M17.142 0A17.142 17.142 0 1 1 0 17.142 17.143 17.143 0 0 1 17.142 0z"/><path d="M22.716 5.262h-3.798c-2.253 0-4.76.947-4.76 4.214.012 1.138 0 2.229 0 3.455h-2.607v4.148h2.688v11.943h4.939v-12.02h3.26l.295-4.083h-3.64s.008-1.815 0-2.342c0-1.29 1.343-1.217 1.424-1.217.64 0 1.882.002 2.2 0V5.262z"/></symbol><symbol viewBox="0 0 34.284 34.285" id="s-gh" xmlns="http://www.w3.org/2000/svg"><path d="M17.142 0A17.142 17.142 0 1 1 0 17.142 17.143 17.143 0 0 1 17.142 0z"/><path d="M17.142 0a17.144 17.144 0 0 0-5.42 33.408c.858.16 1.172-.371 1.172-.824 0-.409-.016-1.76-.023-3.192C8.1 30.43 7.096 27.37 7.096 27.37a4.538 4.538 0 0 0-1.904-2.509c-1.555-1.064.117-1.042.117-1.042a3.603 3.603 0 0 1 2.628 1.767 3.65 3.65 0 0 0 4.989 1.425 3.65 3.65 0 0 1 1.088-2.292c-3.807-.434-7.81-1.904-7.81-8.472a6.634 6.634 0 0 1 1.766-4.601 6.16 6.16 0 0 1 .166-4.537s1.44-.46 4.716 1.757a16.262 16.262 0 0 1 8.585 0c3.272-2.218 4.709-1.757 4.709-1.757a6.152 6.152 0 0 1 .168 4.537 6.621 6.621 0 0 1 1.764 4.6c0 6.585-4.01 8.035-7.827 8.459a4.098 4.098 0 0 1 1.163 3.174c0 2.294-.02 4.14-.02 4.705 0 .456.308.99 1.177.822A17.145 17.145 0 0 0 17.142 0" fill="#25cbd3"/><path d="M6.42 24.42c-.037.085-.171.11-.293.052-.125-.056-.195-.172-.154-.258.037-.087.17-.112.295-.053.124.056.195.173.152.258m.844.753c-.082.076-.242.04-.35-.08a.262.262 0 0 1-.05-.356c.084-.075.239-.04.351.08.112.12.134.28.048.356m.58.962c-.106.073-.278.005-.384-.147-.105-.153-.105-.336.002-.409.107-.073.276-.007.384.144.104.155.104.338-.003.413m.978 1.114c-.094.104-.294.076-.44-.065a.33.33 0 0 1-.098-.438c.095-.104.297-.075.444.065.15.138.195.336.094.438m1.265.377c-.042.134-.234.195-.429.138-.193-.059-.32-.216-.281-.352.04-.135.234-.198.43-.137.193.058.32.214.28.35m1.439.16c.005.142-.16.259-.364.262-.205.004-.37-.11-.373-.25 0-.142.161-.258.366-.262.204-.004.37.11.37.25m1.414-.054c.025.138-.117.28-.32.317-.198.037-.383-.048-.408-.185-.025-.142.12-.283.318-.32.203-.035.384.048.41.188" fill="#25cbd3"/></symbol><symbol viewBox="0 0 291.319 291.319" id="s-in" xmlns="http://www.w3.org/2000/svg"><path fill="#25cbd3" d="M145.659 0c80.44 0 145.66 65.219 145.66 145.66S226.1 291.319 145.66 291.319 0 226.1 0 145.66 65.21 0 145.659 0z"/><path d="M195.93 63.708H95.38c-17.47 0-31.672 14.211-31.672 31.672v100.56c0 17.47 14.211 31.672 31.672 31.672h100.56c17.47 0 31.672-14.211 31.672-31.672V95.38c-.001-17.461-14.212-31.672-31.682-31.672zm9.978 18.326l3.587-.009v27.202l-27.402.091-.091-27.202 23.906-.082zm-60.248 36.205c22.732 0 27.42 21.339 27.42 27.429 0 15.103-12.308 27.411-27.42 27.411-15.121 0-27.42-12.308-27.42-27.411-.01-6.09 4.688-27.429 27.42-27.429zm63.99 75.716c0 8.658-7.037 15.704-15.713 15.704H97.073c-8.667 0-15.713-7.037-15.713-15.704v-66.539h22.759c-2.112 5.198-3.305 12.299-3.305 18.253 0 24.708 20.101 44.818 44.818 44.818s44.808-20.11 44.808-44.818c0-5.954-1.193-13.055-3.296-18.253h22.486v66.539h.02z"/></symbol><symbol viewBox="0 0 112.196 112.196" id="s-li" xmlns="http://www.w3.org/2000/svg"><circle fill="#7b9bd1" cx="56.098" cy="56.097" r="56.098"/><path d="M89.616 60.611v23.128H76.207V62.161c0-5.418-1.936-9.118-6.791-9.118-3.705 0-5.906 2.491-6.878 4.903-.353.862-.444 2.059-.444 3.268v22.524h-13.41s.18-36.546 0-40.329h13.411v5.715c-.027.045-.065.089-.089.132h.089v-.132c1.782-2.742 4.96-6.662 12.085-6.662 8.822 0 15.436 5.764 15.436 18.149zm-54.96-36.642c-4.587 0-7.588 3.011-7.588 6.967 0 3.872 2.914 6.97 7.412 6.97h.087c4.677 0 7.585-3.098 7.585-6.97-.089-3.956-2.908-6.967-7.496-6.967zm-6.791 59.77H41.27v-40.33H27.865v40.33z" fill="#f1f2f2"/></symbol><symbol viewBox="0 0 34.284 34.288" id="s-mi" xmlns="http://www.w3.org/2000/svg"><path fill="#25cbd3" d="M17.142.002a17.142 17.142 0 1 0 17.142 17.142A17.138 17.138 0 0 0 17.142.002zM28.73 24.17h.995v2.936h-9.018V24.17h1.888V11.167h-.093l-4.407 15.939h-3.413l-4.35-15.939h-.11V24.17h1.887v2.936h-7.55V24.17h.967a1.058 1.058 0 0 0 .92-.808v-12.37a1.127 1.127 0 0 0-.92-.873h-.967V7.183H14l3.1 11.534h.086l3.128-11.534h9.412v2.936h-.995a1.13 1.13 0 0 0-.892.874v12.37a1.056 1.056 0 0 0 .892.807z"/></symbol><symbol viewBox="0 0 34.284 34.285" id="s-rd" xmlns="http://www.w3.org/2000/svg"><path fill="#25cbd3" d="M17.142 0A17.142 17.142 0 1 1 0 17.142 17.143 17.143 0 0 1 17.142 0z"/><path fill="#25cbd3" d="M9.692 15.973a2.62 2.62 0 0 1-2.559 2.676 2.679 2.679 0 0 1 0-5.352 2.62 2.62 0 0 1 2.559 2.676zm19.233.06a2.561 2.561 0 1 1-2.558-2.676 2.619 2.619 0 0 1 2.558 2.677z" class="kfb"/><path stroke="#000" fill="none" d="M23.72 8.799c-1.933-.794-3.904-1.735-5.381-.707-1.712.788-1.632 3.37-1.501 6" class="kfc"/><path fill="none" stroke="#000" d="M27.367 19.87c0 4.118-4.727 7.457-10.558 7.457-5.832 0-10.558-3.339-10.558-7.456 0-4.117 4.726-7.455 10.558-7.455 5.831 0 10.558 3.338 10.558 7.455zM27.16 9.195a2.256 2.256 0 1 1-4.499 0 2.256 2.256 0 1 1 4.5 0z" class="kfb"/><path d="M13.942 18.37a1.508 1.508 0 1 1-1.508-1.543 1.526 1.526 0 0 1 1.508 1.544zm7.844-.131a1.507 1.507 0 1 1-1.507-1.544 1.526 1.526 0 0 1 1.507 1.544z"/><path stroke="#000" fill="none" d="M12.339 22.474c3.347 2.366 5.872 1.433 8.293.088" class="kfc"/></symbol><symbol viewBox="0 0 34.284 34.284" id="s-tg" xmlns="http://www.w3.org/2000/svg"><path fill="#25cbd3" d="M34.284 17.142A17.142 17.142 0 1 1 17.142 0a17.137 17.137 0 0 1 17.142 17.142z"/><path d="M14 24.999c-.558 0-.457-.214-.658-.743l-1.629-5.371 10.115-6.314 1.185.314-.985 2.686z"/><path d="M14 24.999a1.116 1.116 0 0 0 .857-.429c.37-.356 5.143-5 5.143-5l-2.93-.713-2.713 1.713L14 24.856z"/><path d="M14.286 20.628l6.913 5.1c.786.428 1.357.214 1.557-.73l2.815-13.256c.286-1.157-.444-1.671-1.2-1.328l-16.514 6.37c-1.129.458-1.114 1.087-.2 1.358L11.9 19.47l9.813-6.186c.457-.286.886-.128.543.186z"/></symbol><symbol viewBox="0 0 34.284 34.284" id="s-tw" xmlns="http://www.w3.org/2000/svg"><circle cx="17.142" cy="17.142" r="17.142" fill="#25cbd3"/><path d="M28.134 10.323a9.002 9.002 0 0 1-2.59.71 4.528 4.528 0 0 0 1.983-2.494 9.003 9.003 0 0 1-2.865 1.094 4.512 4.512 0 0 0-7.8 3.086 4.56 4.56 0 0 0 .116 1.028 12.802 12.802 0 0 1-9.295-4.711 4.514 4.514 0 0 0 1.395 6.02 4.486 4.486 0 0 1-2.043-.564v.057a4.513 4.513 0 0 0 3.617 4.422 4.497 4.497 0 0 1-1.188.158 4.554 4.554 0 0 1-.848-.08 4.517 4.517 0 0 0 4.212 3.133 9.09 9.09 0 0 1-6.677 1.866 12.824 12.824 0 0 0 19.743-10.804q0-.293-.013-.583a9.194 9.194 0 0 0 2.253-2.338z"/></symbol><symbol viewBox="0 0 34.284 34.285" id="s-yt" xmlns="http://www.w3.org/2000/svg"><path fill="#25cbd3" d="M17.142 0A17.142 17.142 0 1 1 0 17.142 17.143 17.143 0 0 1 17.142 0z" class="nia"/><path fill="#25cbd3" d="M20.92 16.91c-2.085-1.114-4.082-2.138-6.122-3.208V20.1c2.147-1.167 4.41-2.236 6.13-3.19z" class="nia"/><path d="M15.19 25.108a46.11 46.11 0 0 1-6.719-.34 2.951 2.951 0 0 1-1.54-.8 3.247 3.247 0 0 1-.732-1.409 9.224 9.224 0 0 1-.311-2.067 49.027 49.027 0 0 1 0-6.7c.14-1.24.207-2.708 1.131-3.565a3.037 3.037 0 0 1 1.515-.766 83.601 83.601 0 0 1 8.617-.303 83.768 83.768 0 0 1 8.617.303 2.967 2.967 0 0 1 1.773 1.05 8.833 8.833 0 0 1 .944 4.27c.035.614.035 4.107 0 4.722a10.804 10.804 0 0 1-.544 3.51 2.584 2.584 0 0 1-.624.999 2.988 2.988 0 0 1-1.585.81c-3.748.283-6.93.344-10.542.286zm5.74-8.198c-2.086-1.114-4.083-2.147-6.123-3.217v6.398c2.147-1.167 4.411-2.236 6.131-3.19l-.009.01z"/></symbol><symbol viewBox="0 0 512 512" id="svg-flag_en" xmlns="http://www.w3.org/2000/svg"><circle cx="256" cy="256" r="256" fill="#f0f0f0"/><g fill="#d80027"><path d="M244.87 256H512c0-23.106-3.08-45.49-8.819-66.783H244.87V256zM244.87 122.435h229.556a257.35 257.35 0 0 0-59.07-66.783H244.87v66.783zM256 512c60.249 0 115.626-20.824 159.356-55.652H96.644C140.374 491.176 195.751 512 256 512zM37.574 389.565h436.852a254.474 254.474 0 0 0 28.755-66.783H8.819a254.474 254.474 0 0 0 28.755 66.783z"/></g><path d="M118.584 39.978h23.329l-21.7 15.765 8.289 25.509-21.699-15.765-21.699 15.765 7.16-22.037a257.407 257.407 0 0 0-49.652 55.337h7.475l-13.813 10.035a255.58 255.58 0 0 0-6.194 10.938l6.596 20.301-12.306-8.941a253.567 253.567 0 0 0-8.372 19.873l7.267 22.368h26.822l-21.7 15.765 8.289 25.509-21.699-15.765-12.998 9.444A258.468 258.468 0 0 0 0 256h256V0c-50.572 0-97.715 14.67-137.416 39.978zm9.918 190.422l-21.699-15.765L85.104 230.4l8.289-25.509-21.7-15.765h26.822l8.288-25.509 8.288 25.509h26.822l-21.7 15.765 8.289 25.509zm-8.289-100.083l8.289 25.509-21.699-15.765-21.699 15.765 8.289-25.509-21.7-15.765h26.822l8.288-25.509 8.288 25.509h26.822l-21.7 15.765zM220.328 230.4l-21.699-15.765L176.93 230.4l8.289-25.509-21.7-15.765h26.822l8.288-25.509 8.288 25.509h26.822l-21.7 15.765 8.289 25.509zm-8.289-100.083l8.289 25.509-21.699-15.765-21.699 15.765 8.289-25.509-21.7-15.765h26.822l8.288-25.509 8.288 25.509h26.822l-21.7 15.765zm0-74.574l8.289 25.509-21.699-15.765-21.699 15.765 8.289-25.509-21.7-15.765h26.822l8.288-25.509 8.288 25.509h26.822l-21.7 15.765z" fill="#0052b4"/></symbol><symbol viewBox="0 0 512 512" id="svg-flag_es" xmlns="http://www.w3.org/2000/svg"><path d="M0 256c0 31.314 5.633 61.31 15.923 89.043L256 367.304l240.077-22.261C506.367 317.31 512 287.314 512 256s-5.633-61.31-15.923-89.043L256 144.696 15.923 166.957C5.633 194.69 0 224.686 0 256z" fill="#ffda44"/><g fill="#d80027"><path d="M496.077 166.957C459.906 69.473 366.071 0 256 0S52.094 69.473 15.923 166.957h480.154zM15.923 345.043C52.094 442.527 145.929 512 256 512s203.906-69.473 240.077-166.957H15.923z"/></g><path d="M223.091 256.412l8.255-33.665c.76-3.1-1.843-6.041-5.347-6.041h-5.815c-3.504 0-6.108 2.941-5.347 6.041l8.254 33.665z" fill="#c8414b"/><path fill="#f5f5f5" d="M213.35 238.76h19.473v75H213.35z"/><path fill="#fab446" d="M208.49 229.94h29.21v8.823h-29.21z"/><g fill="#c8414b"><path d="M189.01 256.41h48.681v8.823H189.01zM237.696 291.706l-29.209-8.824v-8.823l29.209 8.823zM77.047 256.412l8.255-33.665c.76-3.1-1.843-6.041-5.347-6.041H74.14c-3.504 0-6.108 2.941-5.347 6.041l8.254 33.665z"/></g><path d="M111.124 229.941c-5.377 0-9.736 3.95-9.736 8.824v57.353c0 10.721 11.041 30.882 48.682 30.882s48.682-20.162 48.682-30.882v-57.353c0-4.873-4.359-8.824-9.736-8.824h-77.892z" fill="#f5f5f5"/><g fill="#c8414b"><path d="M150.069 274.059h-48.682V239.21a9.27 9.27 0 0 1 9.269-9.269h39.413v44.118zM150.069 274.059h48.682v20.946c0 12.797-10.374 23.172-23.172 23.172h-2.338c-12.797 0-23.172-10.374-23.172-23.172v-20.946z"/></g><path d="M101.387 274.059h48.682v20.946c0 12.797-10.374 23.172-23.172 23.172h-2.338c-12.797 0-23.172-10.374-23.172-23.172v-20.946z" fill="#fab446"/><g fill="#c8414b"><path d="M140.333 313.665v-39.606h-9.736v43.673c3.62-.667 6.893-2.12 9.736-4.067zM120.86 317.732v-43.673h-9.736v39.606c2.843 1.947 6.115 3.4 9.736 4.067z"/></g><path fill="#ffb441" d="M111.12 256.41h29.21v8.823h-29.21z"/><g fill="#fab446"><path d="M111.12 238.76h29.21v8.824h-29.21z"/><path d="M115.99 244.01h19.473v15.985H115.99z"/></g><path fill="#f5f5f5" d="M67.31 238.76h19.473v75H67.31z"/><g fill="#fab446"><path d="M62.44 309.35h29.21v8.823H62.44zM62.44 229.94h29.21v8.823H62.44z"/></g><path fill="#5064aa" d="M57.57 318.18h38.945v8.823H57.57z"/><path fill="#fab446" d="M213.35 309.35h29.21v8.823h-29.21z"/><path fill="#5064aa" d="M203.62 318.18h38.945v8.823H203.62z"/><path fill="#fab446" d="M120.86 221.12h58.42v8.823h-58.42z"/><path fill="#ffb441" d="M145.2 194.65h9.736v26.471H145.2z"/><g fill="#f5f5f5"><path d="M140.333 207.882c-8.053 0-14.604-5.937-14.604-13.235s6.551-13.235 14.604-13.235c8.053 0 14.604 5.937 14.604 13.235s-6.551 13.235-14.604 13.235zm0-17.647c-2.686 0-4.868 1.978-4.868 4.412s2.182 4.412 4.868 4.412c2.686 0 4.868-1.978 4.868-4.412s-2.182-4.412-4.868-4.412z"/><path d="M159.805 207.882c-8.053 0-14.604-5.937-14.604-13.235s6.551-13.235 14.604-13.235c8.053 0 14.604 5.937 14.604 13.235s-6.55 13.235-14.604 13.235zm0-17.647c-2.686 0-4.868 1.978-4.868 4.412s2.182 4.412 4.868 4.412c2.686 0 4.868-1.978 4.868-4.412s-2.182-4.412-4.868-4.412z"/><path d="M179.278 216.706c-8.053 0-14.604-5.937-14.604-13.235s6.551-13.235 14.604-13.235c8.053 0 14.605 5.937 14.605 13.235s-6.552 13.235-14.605 13.235zm0-17.647c-2.686 0-4.868 1.978-4.868 4.412s2.182 4.412 4.868 4.412c2.686 0 4.868-1.978 4.868-4.412 0-2.435-2.182-4.412-4.868-4.412zM120.86 216.706c-8.053 0-14.604-5.937-14.604-13.235s6.551-13.235 14.604-13.235 14.604 5.937 14.604 13.235-6.551 13.235-14.604 13.235zm0-17.647c-2.686 0-4.868 1.978-4.868 4.412s2.182 4.412 4.868 4.412 4.868-1.978 4.868-4.412c0-2.435-2.182-4.412-4.868-4.412z"/></g><path d="M179.278 291.706v4.412c0 2.433-2.184 4.412-4.868 4.412s-4.868-1.979-4.868-4.412v-4.412h9.736m9.736-8.824h-29.209v13.235c0 7.298 6.552 13.235 14.604 13.235 8.053 0 14.605-5.938 14.605-13.235v-13.235z" fill="#fab446"/><path d="M174.877 265.235h-.935a9.27 9.27 0 0 1-9.269-9.269v-7.933a9.27 9.27 0 0 1 9.269-9.269h.935a9.27 9.27 0 0 1 9.269 9.269v7.933c0 5.12-4.15 9.269-9.269 9.269z" fill="#ffa0d2"/><ellipse cx="150.07" cy="274.06" rx="14.604" ry="13.235" fill="#5064aa"/><path fill="#fab446" d="M145.2 177h9.736v26.471H145.2z"/><path d="M120.86 221.118l-9.736-8.824 5.703-5.169c8.816-7.99 20.774-12.478 33.242-12.478 12.468 0 24.426 4.489 33.242 12.478l5.703 5.169-9.736 8.824H120.86z" fill="#c8414b"/><g fill="#ffd250"><ellipse cx="150.07" cy="212.29" rx="4.868" ry="4.412"/><ellipse cx="130.6" cy="212.29" rx="4.868" ry="4.412"/><ellipse cx="169.54" cy="212.29" rx="4.868" ry="4.412"/></g><g fill="#c8414b"><path d="M62.44 256.41h48.681v8.823H62.44zM62.442 291.706l29.209-8.824v-8.823l-29.209 8.823z"/></g></symbol><symbol viewBox="0 0 512 512" id="svg-flag_ja" xmlns="http://www.w3.org/2000/svg"><circle cx="256" cy="256" r="256" fill="#f0f0f0"/><circle cx="256" cy="256" r="111.304" fill="#d80027"/></symbol><symbol viewBox="0 0 512 512" id="svg-flag_ko" xmlns="http://www.w3.org/2000/svg"><circle cx="256" cy="256" r="256" fill="#f0f0f0"/><path d="M345.043 256c0 22.261-39.866 77.913-89.043 77.913S166.957 278.261 166.957 256c0-49.178 39.866-89.043 89.043-89.043s89.043 39.865 89.043 89.043z" fill="#d80027"/><path d="M345.043 256c0 49.178-39.866 89.043-89.043 89.043S166.957 305.178 166.957 256" fill="#0052b4"/><path d="M350.442 334.705l23.61-23.61 15.741 15.74-23.61 23.61zM311.085 374.06l23.61-23.612 15.741 15.741-23.61 23.611zM397.67 381.917l23.611-23.61 15.74 15.74-23.61 23.61zM358.314 421.278l23.61-23.61 15.741 15.74-23.61 23.611zM374.055 358.313l23.61-23.61 15.741 15.74-23.61 23.61zM334.709 397.667l23.61-23.61 15.741 15.74-23.61 23.611zM397.678 177.29l-62.963-62.963 15.741-15.74 62.962 62.962zM334.713 161.558l-23.61-23.61 15.74-15.74 23.61 23.61zM374.06 200.907l-23.61-23.611 15.74-15.74 23.61 23.61zM381.915 114.336l-23.61-23.611 15.74-15.741 23.61 23.61zM421.283 153.688l-23.611-23.61 15.74-15.741 23.612 23.61zM90.723 358.318l62.962 62.962-15.74 15.74-62.963-62.961zM153.68 374.05l23.611 23.611-15.74 15.74-23.61-23.61zM114.33 334.703l23.611 23.611-15.74 15.741-23.611-23.61zM137.943 311.091l62.962 62.963-15.74 15.74-62.963-62.962zM153.684 90.72L90.72 153.683l-15.74-15.741 62.962-62.963zM177.287 114.325l-62.963 62.963-15.74-15.741 62.962-62.962zM200.912 137.947l-62.962 62.962-15.74-15.74 62.962-62.962z"/></symbol><symbol viewBox="0 0 512 512" id="svg-flag_ru" xmlns="http://www.w3.org/2000/svg"><circle cx="256" cy="256" r="256" fill="#f0f0f0"/><path d="M496.077 345.043C506.368 317.31 512 287.314 512 256s-5.632-61.31-15.923-89.043H15.923C5.633 194.69 0 224.686 0 256s5.633 61.31 15.923 89.043L256 367.304l240.077-22.261z" fill="#0052b4"/><path d="M256 512c110.071 0 203.906-69.472 240.077-166.957H15.923C52.094 442.528 145.929 512 256 512z" fill="#d80027"/></symbol><symbol viewBox="0 0 473.681 473.681" id="svg-flag_zh" xmlns="http://www.w3.org/2000/svg"><circle cx="236.85" cy="236.85" r="236.83" fill="#d62427"/><path d="M.001 236.842C.001 106.028 106.037 0 236.836 0c130.807 0 130.807 473.681 0 473.681C106.04 473.677.001 367.641.001 236.842z" fill="#dc3027"/><g fill="#f8d12e"><path d="M136.618 65.207l11.051 34.03h35.783l-28.947 21.02 11.058 34.03-28.945-21.027-28.943 21.027 11.057-34.03-28.944-21.02h35.773zM220.081 45.851l-3.485 11.937 10.27 7.004-12.423.363-3.478 11.944-4.199-11.709-12.431.378 9.839-7.61-4.199-11.701 10.276 7.004zM220.081 152.754l-3.485 11.933 10.27 7.004-12.423.367-3.478 11.94-4.199-11.708-12.431.381 9.839-7.61-4.199-11.701 10.276 6.997zM250.383 78.434l-3.485 11.937 10.273 7.004-12.426.37-3.483 11.937-4.198-11.709-12.427.378 9.832-7.61-4.194-11.701 10.278 7.004zM250.383 122.015l-3.485 11.937 10.273 7.004-12.426.366-3.483 11.941-4.198-11.705-12.427.378 9.832-7.61-4.194-11.702 10.278 6.997z"/></g></symbol></svg>