<svg xmlns="http://www.w3.org/2000/svg" viewBox="0 0 1170.7952 182.2651">
  <title>benefits-star-1</title>
  <g>
		<polygon points="36.795 182.239 1170.795 182.239 1170.795 70.239 73.231 70.239 36.795 182.239" fill="#1dcad3"/>
    <g>
      <path d="M73.2418,69.8616c-12.0481,37.4972-24.4,74.94-36.6524,112.4035l59.2031-43.1872,59.2031,43.1872L132.2162,112.46l.0928-.2212H121.07l13.6945,42.0255L95.7925,125.9123,56.8213,154.38c8.067-24.6679,16.1345-49.0676,24.1366-73.9464q91.9757,0,183.9239-.06L279.7092,69.65Q176.3738,69.74,73.2418,69.8616Z" fill-rule="evenodd"/>
      <polygon points="87.781 59.239 95.792 34.42 103.804 59.239 114.915 59.239 95.792 0 76.67 59.239 87.781 59.239" fill="#1dcad3" fill-rule="evenodd"/>
      <polygon points="53.877 95.961 32.736 80.663 58.777 80.712 62.172 70.146 0 70.026 50.475 106.55 53.877 95.961" fill="#1dcad3" fill-rule="evenodd"/>
    </g>
  </g>
</svg>
