<svg xmlns="http://www.w3.org/2000/svg" viewBox="0 0 1170.7952 182.2386">
  <title>benefits-star-2</title>
  <g>
    <polygon points="36.795 182.239 1170.795 182.239 1170.795 70.239 73.231 70.239 36.795 182.239" fill="#8cc63f"/>
    <g>
      <path d="M73.2418,69.834c-12.0481,37.4971-24.4,74.94-36.6524,112.4035L95.7925,139.05l59.2031,43.1872L132.2162,112.446l.0928-.2074H121.07L134.7641,154.25,95.7925,125.8916,56.8213,154.3559c8.067-24.6678,16.1345-49.0693,24.1366-73.9481q91.9757,0,183.9239-.06l14.8274-10.7247Q176.3738,69.7132,73.2418,69.834Z" fill-rule="evenodd"/>
      <polygon points="87.781 59.239 95.792 34.42 103.804 59.239 114.915 59.239 95.792 0 76.67 59.239 87.781 59.239" fill="#8cc63f" fill-rule="evenodd"/>
      <polygon points="53.877 95.934 32.736 80.635 58.777 80.685 62.172 70.118 0 69.998 50.475 106.523 53.877 95.934" fill="#8cc63f" fill-rule="evenodd"/>
    </g>
  </g>
</svg>
