<svg xmlns="http://www.w3.org/2000/svg" viewBox="0 0 1171.6231 182.2386">
  <title>benefits-star-3</title>
  <g>
    <polygon points="36.795 182.239 1171.623 182.239 1171.623 69.239 73.231 69.239 36.795 182.239" fill="#ffed00"/>
    <g>
      <path d="M73.2418,69.5c-12.0481,37.4972-24.4,74.94-36.6524,112.4036l59.2031-43.1873,59.2031,43.1872-22.7794-69.6242.0928-.04H121.07l13.6945,41.8444L95.7925,125.6408,56.8213,154.0633c8.067-24.6679,16.1345-49.09,24.1366-73.969q91.9757,0,183.9239-.071l14.8274-10.73Q176.3738,69.384,73.2418,69.5Z" fill-rule="evenodd"/>
      <polygon points="87.781 59.239 95.792 34.42 103.804 59.239 114.915 59.239 95.792 0 76.67 59.239 87.781 59.239" fill="#ffed00" fill-rule="evenodd"/>
      <polygon points="53.877 95.599 32.736 80.301 58.777 80.35 62.172 69.784 0 69.664 50.475 106.188 53.877 95.599" fill="#ffed00" fill-rule="evenodd"/>
    </g>
  </g>
</svg>
