<svg xmlns="http://www.w3.org/2000/svg" xmlns:xlink="http://www.w3.org/1999/xlink" viewBox="0 0 496 156">
  <defs>
    <clipPath id="a" transform="translate(-1171 -583)">
      <path d="M1222.6618,615h156.5553c5.6812,0,10.7829,4.3877,10.7829,10.068v68.8579c0,5.68-5.1077,10.0741-10.7829,10.0741H1222.6618l26.7019-44.5L1222.6618,615Z" fill="none"/>
    </clipPath>
    <radialGradient id="b" cx="13256.8501" cy="72391.7994" r="1237.5559" gradientTransform="matrix(-0.3247, 0, 0, 0.0817, 4555.4486, -5840.5695)" gradientUnits="userSpaceOnUse">
      <stop offset="0" stop-color="#060931"/>
      <stop offset="1"/>
    </radialGradient>
    <linearGradient id="c" x1="861.6023" y1="659.5" x2="1352.6023" y2="659.5" gradientTransform="matrix(1, 0, 0, -1, 314.3977, 1319)" gradientUnits="userSpaceOnUse">
      <stop offset="0" stop-color="#706f6f"/>
      <stop offset="0.3087" stop-color="#dadada"/>
      <stop offset="0.6283" stop-color="#706f6f"/>
      <stop offset="0.8609" stop-color="#dadada"/>
    </linearGradient>
    <linearGradient id="d" x1="-7823.0428" y1="615" x2="-7823.0428" y2="704" gradientTransform="translate(9129.3737)" gradientUnits="userSpaceOnUse">
      <stop offset="0" stop-color="#a29997"/>
      <stop offset="0.4706" stop-color="#6b605e"/>
      <stop offset="0.4784" stop-color="#1a1815"/>
      <stop offset="0.7334" stop-color="#1c1a17"/>
      <stop offset="0.8253" stop-color="#231f1c"/>
      <stop offset="0.8907" stop-color="#2e2a26"/>
      <stop offset="0.9437" stop-color="#3f3834"/>
      <stop offset="0.9885" stop-color="#554b46"/>
      <stop offset="1" stop-color="#5c514c"/>
    </linearGradient>
    <clipPath id="e" transform="translate(-1171 -583)">
      <polygon points="1203 708 1203 712 1213.773 712 1200.657 726.569 1188.847 714.692 1177.385 726.177 1180.487 729.142 1188.847 720.746 1200.615 732.747 1216 715.377 1216 726 1221 726 1221 708 1203 708" fill="none"/>
    </clipPath>
    <clipPath id="f" transform="translate(-1171 -583)">
      <rect width="1923" height="4764" fill="none"/>
    </clipPath>
  </defs>
  <title>Ресурс 1</title>
  <g style="isolation: isolate">
    <g>
      <g>
        <g clip-path="url(#a)">
          <g>
            <rect x="5" y="15" width="491" height="123" fill="url(#b)"/>
            <g style="mix-blend-mode: color-dodge">
              <rect x="1176" y="598" width="491" height="123" transform="translate(1672 736) rotate(180)" fill="url(#c)" style="mix-blend-mode: screen"/>
            </g>
          </g>
        </g>
        <path d="M1222.6618,615h156.5553c5.6812,0,10.7829,4.3877,10.7829,10.068v68.8579c0,5.68-5.1077,10.0741-10.7829,10.0741H1222.6618l26.7019-44.5L1222.6618,615Z" transform="translate(-1171 -583)" fill="url(#d)" style="mix-blend-mode: luminosity"/>
      </g>
      <g>
        <path d="M1291.3164,638.6445H1270.583l-2.09,13.9619a29.0312,29.0312,0,0,1,4.4311-.3344,22.9673,22.9673,0,0,1,11.7041,2.9258,15.4906,15.4906,0,0,1,7.7754,13.9619c0,10.6176-8.4443,18.56-20.2324,18.56-5.9355,0-10.9517-1.6723-13.5435-3.3442l1.8394-5.6016a24.3388,24.3388,0,0,0,11.6211,3.01c6.9385,0,12.8745-4.5147,12.8745-11.7881-.0835-7.0225-4.7651-12.0386-15.6338-12.0386a56.1821,56.1821,0,0,0-7.5239.585l3.5107-26.084h26.001Z" transform="translate(-1171 -583)" fill="#fff"/>
        <path d="M1299.3418,697.083a120.254,120.254,0,0,0,5.0166-19.9814l8.1934-.836c-1.9229,7.1065-5.6016,16.3863-7.9424,20.3155Z" transform="translate(-1171 -583)" fill="#fff"/>
        <path d="M1355.1885,659.0439c0,18.4761-6.8555,28.6758-18.8946,28.6758-10.6171,0-17.8076-9.9492-17.9746-27.9238,0-18.2251,7.8584-28.2578,18.8946-28.2578C1348.668,631.5381,1355.1885,641.7378,1355.1885,659.0439Zm-29.5117.836c0,14.1289,4.3466,22.1543,11.0351,22.1543,7.5244,0,11.1192-8.7783,11.1192-22.6563,0-13.3764-3.4278-22.1548-11.0352-22.1548C1330.3584,637.2231,1325.6768,645.082,1325.6768,659.88Z" transform="translate(-1171 -583)" fill="#fff"/>
      </g>
      <g>
        <path d="M1217,594h10v-9h4v21h-4v-9h-10v9h-4V585h4Z" transform="translate(-1171 -583)" fill="#fff"/>
        <path d="M1251.1421,598.4944a9.8673,9.8673,0,0,1-.5518,3.3756,7.3983,7.3983,0,0,1-1.5822,2.6123,7.01,7.01,0,0,1-2.4906,1.68,8.6076,8.6076,0,0,1-3.2619.5924,8.8058,8.8058,0,0,1-3.3185-.5924,6.9125,6.9125,0,0,1-2.4909-1.68,7.3693,7.3693,0,0,1-1.5661-2.6123,9.9957,9.9957,0,0,1-.5437-3.3756,9.865,9.865,0,0,1,.5518-3.3752,7.409,7.409,0,0,1,1.5822-2.6127,7.0165,7.0165,0,0,1,2.491-1.6794,8.6088,8.6088,0,0,1,3.2619-.5924,8.8087,8.8087,0,0,1,3.3184.5924,6.9237,6.9237,0,0,1,2.491,1.6794,7.3791,7.3791,0,0,1,1.5657,2.6127A9.9933,9.9933,0,0,1,1251.1421,598.4944Zm-3.9757,0a7.5668,7.5668,0,0,0-.2922-2.2069,4.7705,4.7705,0,0,0-.8113-1.6064,3.3022,3.3022,0,0,0-1.2494-.9736,3.8731,3.8731,0,0,0-1.59-.3248,3.7765,3.7765,0,0,0-1.5661.3248,3.3147,3.3147,0,0,0-1.2413.9736,4.7654,4.7654,0,0,0-.8116,1.6064,8.48,8.48,0,0,0,0,4.4138,4.588,4.588,0,0,0,.82,1.5987,3.4987,3.4987,0,0,0,1.2493.9737,3.737,3.737,0,0,0,1.5823.3325,3.6833,3.6833,0,0,0,1.5741-.3325,3.4517,3.4517,0,0,0,1.2332-.9737,4.678,4.678,0,0,0,.8113-1.5987A7.5615,7.5615,0,0,0,1247.1664,598.4944Z" transform="translate(-1171 -583)" fill="#fff"/>
        <path d="M1258.0878,593h.0649c.227,0,.5136-.736.86-1.05a6.0923,6.0923,0,0,1,1.1845-.874,7.005,7.005,0,0,1,1.4686-.5991,6.4688,6.4688,0,0,1,1.712-.2308,7.0372,7.0372,0,0,1,1.6635.1889,4.979,4.979,0,0,1,1.4686.6056,4.5,4.5,0,0,1,1.1764,1.0694,5.0308,5.0308,0,0,1,.8032,1.5654,5.1863,5.1863,0,0,1,.3364,1.095,11.9371,11.9371,0,0,1,.1741,1.371V606h-4v-9.2579a9.4307,9.4307,0,0,0-.0889-1.0873,3.1683,3.1683,0,0,0-.1987-.7952,2.0042,2.0042,0,0,0-.8946-1.0711,2.9711,2.9711,0,0,0-1.441-.3245,5.5,5.5,0,0,0-2.3506.5275c-.6873.3516-1.0262.8627-2.0262,1.5335V606h-3V591h2.7308Z" transform="translate(-1171 -583)" fill="#fff"/>
        <path d="M1281.082,603.6549a13.3166,13.3166,0,0,0,2.3942-.2273c.8113-.1514,1.5238-.3677,2.5238-.6492v3.0673c-1,.2166-1.3176.4219-2.3452.6166a17.4649,17.4649,0,0,1-3.2257.2921,11.5783,11.5783,0,0,1-3.1868-.43,6.9239,6.9239,0,0,1-2.6279-1.3875,6.6828,6.6828,0,0,1-1.78-2.4829,9.3306,9.3306,0,0,1-.6591-3.7,10.4285,10.4285,0,0,1,.6157-3.7484,7.6309,7.6309,0,0,1,1.6551-2.6612,6.8129,6.8129,0,0,1,2.3771-1.5825,7.49,7.49,0,0,1,2.7666-.5272,8.04,8.04,0,0,1,2.75.4543,5.5283,5.5283,0,0,1,2.1745,1.4282,6.6793,6.6793,0,0,1,1.4279,2.5071,12.7432,12.7432,0,0,1,.5111,3.8115c-.0107.541-.0272.5642-.0485,1.5642H1276.1a14.8158,14.8158,0,0,0,.4868,1.6731,3.2687,3.2687,0,0,0,1.0628,1.1574,4.31,4.31,0,0,0,1.5335.6514A7.8609,7.8609,0,0,0,1281.082,603.6549Zm-1.5416-10.4181a2.9461,2.9461,0,0,0-2.28.9982,4.5888,4.5888,0,0,0-.6573,1.2646,3.21,3.21,0,0,0-.3245,1.5h6.1826a3.6212,3.6212,0,0,0-.1866-1.5,3.7215,3.7215,0,0,0-.5517-1.1718,2.7347,2.7347,0,0,0-.9088-.7766A2.8529,2.8529,0,0,0,1279.54,593.2368Z" transform="translate(-1171 -583)" fill="#fff"/>
        <path d="M1296.9851,601.7886a1.2125,1.2125,0,0,0-.2841-.8274,2.245,2.245,0,0,0-.7545-.5437,6.5669,6.5669,0,0,0-1.0792-.3812q-.6087-.1623-1.2739-.3248a16.135,16.135,0,0,1-1.6226-.5275,4.9285,4.9285,0,0,1-1.3714-.7867,3.4868,3.4868,0,0,1-.9411-1.2252,4.2163,4.2163,0,0,1-.3489-1.8095,5.1484,5.1484,0,0,1,.4706-2.28,4.5282,4.5282,0,0,1,1.2736-1.5983,5.4234,5.4234,0,0,1,1.8663-.9411,8.038,8.038,0,0,1,2.2476-.3083,13.9135,13.9135,0,0,1,2.6271.2354c.8438.1569,1.2054.36,2.2054.6085V594.21c0-.1188-.65-.23-1.0452-.3325s-.7537-.1921-1.1592-.2679-.7883-.1379-1.1883-.1866a9.242,9.242,0,0,0-1.1257-.073,4.3539,4.3539,0,0,0-1.147.13,2.2537,2.2537,0,0,0-.76.349,1.3136,1.3136,0,0,0-.4206.5029,1.4047,1.4047,0,0,0-.1291.5924,1.3238,1.3238,0,0,0,.284.8762,2.01,2.01,0,0,0,.7873.5517,7.2469,7.2469,0,0,0,1.0551.349q.5511.138,1.0709.2676.8111.1947,1.6229.4707a5.11,5.11,0,0,1,1.46.7706,3.818,3.818,0,0,1,1.0627,1.2823,4.2851,4.2851,0,0,1,.4139,2.0042,5.0623,5.0623,0,0,1-.503,2.3205,4.5846,4.5846,0,0,1-1.4036,1.6471,6.183,6.183,0,0,1-2.1585.9737,11.34,11.34,0,0,1-2.7667.3163,15.5871,15.5871,0,0,1-2.8322-.2353c-.7952-.1569-1.1182-.3541-2.1182-.5924v-3.1a17.7342,17.7342,0,0,0,2.4833.6411,13.6443,13.6443,0,0,0,2.0694.17,8.3412,8.3412,0,0,0,1.367-.1053,3.8581,3.8581,0,0,0,1.0814-.3325,2.0141,2.0141,0,0,0,.7149-.5763A1.3667,1.3667,0,0,0,1296.9851,601.7886Z" transform="translate(-1171 -583)" fill="#fff"/>
        <path d="M1314,606.3325c-1,.13-1.0913.2324-1.6918.3083a14.6119,14.6119,0,0,1-1.7508.1136,7.2832,7.2832,0,0,1-3.273-.6411,3.811,3.811,0,0,1-1.844-1.8418,5.8629,5.8629,0,0,1-.44-2.3366V594h-3v-3h3v-5h4v5h4v3h-4v7.4316a2.6132,2.6132,0,0,0,.2481,1.3468,2.1189,2.1189,0,0,0,1.9173.7467,10.1005,10.1005,0,0,0,1.458-.1055,8.5478,8.5478,0,0,1,1.3766-.268Z" transform="translate(-1171 -583)" fill="#fff"/>
        <path d="M1333,594h-.4116a9.769,9.769,0,0,0-3.3135.3649A9.4527,9.4527,0,0,0,1327,595.8168V606h-3V591h2.7464l.3571,2h.0649a4.12,4.12,0,0,1,1.874-1.9831,5.8082,5.8082,0,0,1,2.9078-.7359,6.7808,6.7808,0,0,1,1.05.0186Z" transform="translate(-1171 -583)" fill="#fff"/>
        <path d="M1344.4341,605h-.0648c-.2167,0-.4762.2984-.779.5363a7.1633,7.1633,0,0,1-1.0386.5928,6.0311,6.0311,0,0,1-1.2981.4707,5.8563,5.8563,0,0,1-1.5415.1748,6.1679,6.1679,0,0,1-2.0936-.3591,4.7368,4.7368,0,0,1-1.6713-1.0113,4.6725,4.6725,0,0,1-1.0954-1.5928,5.2739,5.2739,0,0,1-.3974-2.0864,5.3818,5.3818,0,0,1,.4623-2.2724,4.8449,4.8449,0,0,1,1.29-1.7042,5.7078,5.7078,0,0,1,1.98-1.063,8.4014,8.4014,0,0,1,2.5478-.3655,11.7816,11.7816,0,0,1,1.8192.13c.5733.0865,1.4463.1894,1.4463.3082v-.6327a3.0384,3.0384,0,0,0-.1237-1.0631,2.3092,2.3092,0,0,0-.569-.9088,2.8822,2.8822,0,0,0-1.0632-.6327,4.8492,4.8492,0,0,0-1.615-.2354,9.7117,9.7117,0,0,0-2.217.26,22.073,22.073,0,0,0-2.4121.779V591.322a17.9348,17.9348,0,0,1,2.3995-.7951,13.9069,13.9069,0,0,1,2.7334-.2922,9.513,9.513,0,0,1,2.9815.422,6.2523,6.2523,0,0,1,2.1437,1.16,4.7112,4.7112,0,0,1,1.305,1.7443A5.5219,5.5219,0,0,1,1348,595.752v5.923c0,1.0389-.0035,1.7569.0185,2.5032s.0288,1.8218.0508,1.8218h-3.4728ZM1344,599.6466a4.3174,4.3174,0,0,0-1.2029-.2353,9.4743,9.4743,0,0,0-1.4126-.1053,3.8488,3.8488,0,0,0-2.2157.56,1.9261,1.9261,0,0,0-.8115,1.712,2.172,2.172,0,0,0,.1906.933,1.8608,1.8608,0,0,0,.5049.6573,2.14,2.14,0,0,0,.7393.3893,3.0085,3.0085,0,0,0,.8931.13,3.8534,3.8534,0,0,0,1.1037-.154,5.0569,5.0569,0,0,0,.9577-.3893,4.1111,4.1111,0,0,0,.7239-.5275c.2327-.195.53-.3839.53-.5682Z" transform="translate(-1171 -583)" fill="#fff"/>
        <path d="M1362,606.3325c-1,.13-1.0017.2324-1.6021.3083a13.9052,13.9052,0,0,1-1.706.1136,7.1809,7.1809,0,0,1-3.2505-.6411,3.9831,3.9831,0,0,1-1.9226-1.8418,5.7463,5.7463,0,0,1-.5188-2.3366V594h-3v-3h3v-5h4v5h5v3h-5v7.4316a2.5206,2.5206,0,0,0,.3377,1.3468,2.21,2.21,0,0,0,1.9623.7467,9.1964,9.1964,0,0,0,1.3907-.1055c.438-.07,1.3093-.1595,1.3093-.268Z" transform="translate(-1171 -583)" fill="#fff"/>
        <path d="M1365,583h4v4h-4Zm0,8h4v15h-4Z" transform="translate(-1171 -583)" fill="#fff"/>
        <path d="M1376.6946,593h.0649c.2269,0,.5136-.736.86-1.05a6.0923,6.0923,0,0,1,1.1845-.874,7.0042,7.0042,0,0,1,1.4685-.5991,6.4693,6.4693,0,0,1,1.712-.2308,7.0375,7.0375,0,0,1,1.6636.1889,4.98,4.98,0,0,1,1.4686.6056,4.501,4.501,0,0,1,1.1764,1.0694,5.0308,5.0308,0,0,1,.8032,1.5654,5.58,5.58,0,0,1,.033,1.095c.0378.3951-.1293.8516-.1293,1.371V606h-3v-9.2579a6.8153,6.8153,0,0,0-.2856-1.0873,3.1265,3.1265,0,0,0-.2969-.7952,2.0825,2.0825,0,0,0-.9438-1.0711,3.0717,3.0717,0,0,0-1.4655-.3245,4.7253,4.7253,0,0,0-2.1663.5275c-.6873.3516-.8419.8627-1.8419,1.5335V606h-4V591h3.3375Z" transform="translate(-1171 -583)" fill="#fff"/>
        <path d="M1402,606.7544c0-.2166-.0982-.5581-.0927-.877s-.0821.1226-.06-.8774h-.0326c-.238,0-.5111.4609-.8194.65a7.8118,7.8118,0,0,1-1.0143.5561,6.4255,6.4255,0,0,1-1.2171.3916,6.7,6.7,0,0,1-1.363.1474,6.9151,6.9151,0,0,1-2.4422-.4418,5.6425,5.6425,0,0,1-2.1178-1.4095,7.1638,7.1638,0,0,1-1.4928-2.4737,10.327,10.327,0,0,1-.5682-3.6342,10.9671,10.9671,0,0,1,.5763-3.7239,8.04,8.04,0,0,1,1.5334-2.6694,6.3492,6.3492,0,0,1,4.7547-2.158,5.51,5.51,0,0,1,2.5639.9121A3.8112,3.8112,0,0,1,1402.0418,593h.0649l.1624-2H1406v15.6408a9.9681,9.9681,0,0,1-.4051,2.3693,6.4452,6.4452,0,0,1-.7543,1.7523,5.9705,5.9705,0,0,1-1.3668,1.558,7.5383,7.5383,0,0,1-1.8559,1.1035,10.5558,10.5558,0,0,1-2.2751.6573,15.0088,15.0088,0,0,1-2.618.2188c-.5194,0-1.0306-.019-1.5281-.0565s-.967-.0923-1.4051-.1623a10.016,10.016,0,0,1-1.0378-.2435c-.3626-.092-.7538-.1866-.7538-.2841v-3.1318c0,.2376,1.2993.4191,2.0838.5437a14.79,14.79,0,0,0,2.3926.1866,7.0538,7.0538,0,0,0,4.052-.9982A3.5005,3.5005,0,0,0,1402,607.1276Zm-3.6417-3.0672a4.0666,4.0666,0,0,0,1.1035-.1459,5.0262,5.0262,0,0,0,.9572-.3732,6.0012,6.0012,0,0,0,.8878-.5033c.2325-.1837.6932-.3674.6932-.5514v-7.0268c-1-.4868-1.0205-.8923-1.6262-1.2171a4.3824,4.3824,0,0,0-1.9816-.503,3.6772,3.6772,0,0,0-.78.09,3.0491,3.0491,0,0,0-.8158.3163,3.3447,3.3447,0,0,0-.7772.6086,3.6144,3.6144,0,0,0-.644.9653,6.3021,6.3021,0,0,0-.4481,1.3959,9.2312,9.2312,0,0,0-.1712,1.8821,8.9831,8.9831,0,0,0,.2269,2.1178,4.7392,4.7392,0,0,0,.6813,1.59,3.085,3.085,0,0,0,1.1278,1.0062A3.3543,3.3543,0,0,0,1398.3583,603.6872Z" transform="translate(-1171 -583)" fill="#fff"/>
      </g>
      <g>
        <g>
          <g clip-path="url(#e)">
            <g clip-path="url(#f)">
              <rect y="118" width="56" height="38" fill="#6d71f7"/>
            </g>
          </g>
          <g>
            <path d="M1236.3733,713l-.3634,2H1231v4h4v2h-4v4h5v2h-9V713Z" transform="translate(-1171 -583)" fill="#fff"/>
            <path d="M1244.6416,721.1182,1248.2951,727h-3.8245l-1.9658-4.1077L1240.5819,727h-3.6749l3.6535-5.7785-3.29-5.2215h3.7817l1.5809,3.5091L1244.15,716h3.5893Z" transform="translate(-1171 -583)" fill="#fff"/>
            <path d="M1258.999,717.2043a7.49,7.49,0,0,1,1.0468,4.2727,7.9269,7.9269,0,0,1-.5446,3.0238,4.7421,4.7421,0,0,1-1.57,2.0847,3.618,3.618,0,0,1-2.2837.7536c-1.14,0-2.6471-.3784-2.6471-1.1356v5.0158l-4,.3509V716h3.3758l.171,1.2316a4.1425,4.1425,0,0,1,1.5167-1.18,4.2485,4.2485,0,0,1,1.752-.3786A3.6,3.6,0,0,1,1258.999,717.2043Zm-2.457,4.3139a5.7009,5.7009,0,0,0-.4486-2.6935,1.4673,1.4673,0,0,0-1.3461-.7535,1.6,1.6,0,0,0-.97.33c-.3348.22-.7774.5365-.7774.9491v4.6237c0,.647.9235.97,1.6213.97C1255.9747,724.9445,1256.542,723.8025,1256.542,721.5182Z" transform="translate(-1171 -583)" fill="#fff"/>
            <path d="M1271.9889,723H1264.96a2.1231,2.1231,0,0,0,.812,1.6742,2.5927,2.5927,0,0,0,1.7733.424,3.8663,3.8663,0,0,0,1.3247-.3037,7.2126,7.2126,0,0,0,1.3889-.7663l1.3885,1.8a7.0716,7.0716,0,0,1-4.4224,1.5193,5.5272,5.5272,0,0,1-4.2307-1.573,5.9046,5.9046,0,0,1-1.474-4.213,7.035,7.035,0,0,1,.62-3.0043,4.9262,4.9262,0,0,1,1.816-2.1058,5.1565,5.1565,0,0,1,2.8629-.7744,5.0063,5.0063,0,0,1,3.8459,1.4864,6.5251,6.5251,0,0,1,1.3889,4.3939C1272.0531,722.0115,1272.0317,722,1271.9889,723ZM1269,720.3624c0-1.6789-.77-2.5183-1.9668-2.5183a1.9771,1.9771,0,0,0-1.4213.8658,4.6818,4.6818,0,0,0-.6524,2.29H1269Z" transform="translate(-1171 -583)" fill="#fff"/>
            <path d="M1281.24,715.8626l-.534,3.1582a4.9181,4.9181,0,0,0-1.0259-.1444,2.1643,2.1643,0,0,0-1.6925.67c-.3489.4474.0126,1.1182-.9874,2.0125V727h-3V716h2.9026l.2779,2.14a3.8522,3.8522,0,0,1,1.1642-1.7785,2.6746,2.6746,0,0,1,1.7628-.6468A4.1771,4.1771,0,0,1,1281.24,715.8626Z" transform="translate(-1171 -583)" fill="#fff"/>
            <path d="M1289.636,726.4722a4.9627,4.9627,0,0,1-1.4421.64,5.5678,5.5678,0,0,1-1.5554.2272c-2.4784-.0142-3.6385-1.3349-3.6385-3.9633V718h-2v-2h2v-2.3459l3-.3715V716h2.8244l-.3635,2H1286v5.3346a1.7626,1.7626,0,0,0,.365,1.094,1.08,1.08,0,0,0,.8664.33,2.6422,2.6422,0,0,0,1.2451-.351Z" transform="translate(-1171 -583)" fill="#fff"/>
            <path d="M1304.41,712.7251a7.0155,7.0155,0,0,1,2.04,1.1767l-1.6664,1.92a5.5141,5.5141,0,0,0-1.3033-.7434,3.7617,3.7617,0,0,0-1.3671-.2477,2.7451,2.7451,0,0,0-2.361,1.2178,6.5378,6.5378,0,0,0-.8653,3.7568,6.3954,6.3954,0,0,0,.8653,3.7051,2.7921,2.7921,0,0,0,2.4038,1.2073,3.5372,3.5372,0,0,0,1.4739-.2993,8.3316,8.3316,0,0,0,1.4317-.8564l1.56,1.94a6.7384,6.7384,0,0,1-2.019,1.3207,6.49,6.49,0,0,1-2.6172.5164,7.0712,7.0712,0,0,1-3.568-.8669,5.8658,5.8658,0,0,1-2.361-2.57,9.1429,9.1429,0,0,1-.8439-4.0972,8.7427,8.7427,0,0,1,.8653-4.025,6.0546,6.0546,0,0,1,2.3929-2.57,6.8436,6.8436,0,0,1,3.472-.8774A7.2087,7.2087,0,0,1,1304.41,712.7251Z" transform="translate(-1171 -583)" fill="#fff"/>
            <path d="M1317.1122,717.2144a5.966,5.966,0,0,1,1.4744,4.3038,6.62,6.62,0,0,1-.6733,3.0653,4.8575,4.8575,0,0,1-1.9229,2.0331,5.8156,5.8156,0,0,1-2.9589.7225,5.3938,5.3938,0,0,1-4.07-1.5378,5.9377,5.9377,0,0,1-1.4851-4.3037,6.6253,6.6253,0,0,1,.6731-3.0654,4.8675,4.8675,0,0,1,1.9229-2.033,5.8153,5.8153,0,0,1,2.9593-.7225A5.388,5.388,0,0,1,1317.1122,717.2144Zm-5.6192,1.6926a5.0919,5.0919,0,0,0-.5127,2.5906,5.2221,5.2221,0,0,0,.5022,2.6212,1.8493,1.8493,0,0,0,3.0871-.01,5.0862,5.0862,0,0,0,.5127-2.5905,5.2275,5.2275,0,0,0-.5018-2.6213,1.85,1.85,0,0,0-3.0875.01Z" transform="translate(-1171 -583)" fill="#fff"/>
            <path d="M1323.7032,710.7747a1.8482,1.8482,0,0,1,0,2.6628,2.0361,2.0361,0,0,1-1.4422.526,1.9981,1.9981,0,0,1-1.4316-.526,1.8735,1.8735,0,0,1,0-2.6628,1.9966,1.9966,0,0,1,1.4316-.5264A2.0346,2.0346,0,0,1,1323.7032,710.7747ZM1324,716v11h-3V716Z" transform="translate(-1171 -583)" fill="#fff"/>
            <path d="M1335.3691,716.5436a3.3182,3.3182,0,0,1,.6309,2.4356V727h-3v-7.4633a1.8481,1.8481,0,0,0-.2525-1.1456.9652.9652,0,0,0-.7915-.32c-.6837,0-.956.4748-1.956,1.4244V727h-3V716h2.568l.2352,1.3143a5.0546,5.0546,0,0,1,1.57-1.2315,3.8168,3.8168,0,0,1,1.7894-.41A2.8224,2.8224,0,0,1,1335.3691,716.5436Z" transform="translate(-1171 -583)" fill="#fff"/>
          </g>
        </g>
        <g>
          <path d="M1307.6751,733H1306v4h-1v-8h2.44a3.7777,3.7777,0,0,1,2.19.5051,1.7909,1.7909,0,0,1,.7451,1.5675,1.8692,1.8692,0,0,1-.4147,1.26,2.9516,2.9516,0,0,1-1.2545,1.03L1310.79,737h-1.2659Zm-.1234,0a2.1093,2.1093,0,0,0,1.2664-.602,1.57,1.57,0,0,0,.4256-1.2021,1.0411,1.0411,0,0,0-.4312-.9445,2.4836,2.4836,0,0,0-1.3839-.2514H1306v3Z" transform="translate(-1171 -583)" fill="#6d71f7"/>
          <path d="M1316.1783,735.5892a.8374.8374,0,0,0,.3976.2545l-.2214.6926a1.5811,1.5811,0,0,1-.7325-.2489,1.1328,1.1328,0,0,1-.4112-.6063,1.9989,1.9989,0,0,1-1.7571.8552,1.924,1.924,0,0,1-1.3771-.4764,1.6328,1.6328,0,0,1-.5034-1.2444,1.5542,1.5542,0,0,1,.6779-1.3624,3.2647,3.2647,0,0,1,1.9216-.4531H1315v-.49a1.0808,1.0808,0,0,0-.2626-.8657,1.3437,1.3437,0,0,0-.91-.26,5.3141,5.3141,0,0,0-1.5806.303l-.2528-.7249a6.1366,6.1366,0,0,1,2.0413-.39,2.0372,2.0372,0,0,1,1.5034.4926,1.8243,1.8243,0,0,1,.4611,1.4013v2.6083A.8584.8584,0,0,0,1316.1783,735.5892ZM1315,734.9018V734h-.693c-1.09,0-1.6357.1859-1.6357.9652a.8085.8085,0,0,0,.2577.6666.9183.9183,0,0,0,.7217.2084C1314.2408,735.84,1315,735.4936,1315,734.9018Z" transform="translate(-1171 -583)" fill="#6d71f7"/>
          <path d="M1321.2074,736.1466a2.3233,2.3233,0,0,1-1.3219.39,1.9762,1.9762,0,0,1-1.3181-.4167,1.712,1.712,0,0,1-.5674-1.2069V732h-1v-1h1v-1.5851l1-.119V731h1.7257l-.1117,1H1319v2.87a1.04,1.04,0,0,0,.3254.6438.8558.8558,0,0,0,.6243.2005,1.8828,1.8828,0,0,0,.8249-.2275Z" transform="translate(-1171 -583)" fill="#6d71f7"/>
          <path d="M1323.3022,728.16a.65.65,0,0,1,.2017.4869.6326.6326,0,0,1-.2017.4817.7378.7378,0,0,1-.5264.19.7239.7239,0,0,1-.5156-.19.6323.6323,0,0,1-.2013-.4817.6492.6492,0,0,1,.2013-.4869.7122.7122,0,0,1,.5156-.1948A.7257.7257,0,0,1,1323.3022,728.16ZM1323,731v6h-1v-6Z" transform="translate(-1171 -583)" fill="#6d71f7"/>
          <path d="M1329.5079,731.0381a1.7735,1.7735,0,0,1,.4921,1.2772V737h-1v-4.544a1.225,1.225,0,0,0-.2894-.8547.9749.9749,0,0,0-.7211-.2489,2.2227,2.2227,0,0,0-1.0734.2593c-.2388.1735.0839.4224-.9161.7471V737h-1v-6h1.3155l.09.6953a2.5388,2.5388,0,0,1,.7785-.7882,2.1662,2.1662,0,0,1,1.0444-.2969A1.7091,1.7091,0,0,1,1329.5079,731.0381Z" transform="translate(-1171 -583)" fill="#6d71f7"/>
          <path d="M1336.7564,730.9627a3.2434,3.2434,0,0,1-.7394.14q-.4031.0327-.9859.0326a1.5085,1.5085,0,0,1,1.042,1.4393,1.7871,1.7871,0,0,1-.6051,1.3962,2.3779,2.3779,0,0,1-1.6466.5413,2.5086,2.5086,0,0,1-.7507-.1085.6214.6214,0,0,0-.2126.2328,2.3182,2.3182,0,0,0-.0787.5977.781.781,0,0,0,.7729.7655h.9411c.3957,0,.7467-.2314,1.0533-.0947s.5433.1747.7111.4131a1.1545,1.1545,0,0,1,.2521.7366,1.3743,1.3743,0,0,1-.7059,1.2449,3.8826,3.8826,0,0,1-2.0609.43,4.7821,4.7821,0,0,1-1.5071-.1985,1.4213,1.4213,0,0,1-.79-.5631c-.1565-.2525-.2352.0315-.2352-.9685h.93a1.7987,1.7987,0,0,0,.1348.5366.8392.8392,0,0,0,.4816.298,3.6683,3.6683,0,0,0,.9859.1,2.8966,2.8966,0,0,0,1.3271-.2231.7184.7184,0,0,0,.3978-.6662.8957.8957,0,0,0-.3134-.7231,1.5872,1.5872,0,0,0-.8738-.3225h-.93a1.8372,1.8372,0,0,1-1.1371-.1917.8486.8486,0,0,1-.3865-.7155.8953.8953,0,0,1,.1678-.5122,1.5843,1.5843,0,0,1,.4817-.4509,1.823,1.823,0,0,1-.756-.6366,1.7155,1.7155,0,0,1-.2408-.9326,1.8308,1.8308,0,0,1,.2969-1.026,1.9972,1.9972,0,0,1,.8177-.7083,2.6087,2.6087,0,0,1,1.1593-.2536,8.4465,8.4465,0,0,0,1.1654-.0486,4.1514,4.1514,0,0,0,.7785-.1621q.308-.1027.756-.2976Zm-3.904.6765a1.5045,1.5045,0,0,0,.0057,1.8612,1.1859,1.1859,0,0,0,.9185.3518,1.2053,1.2053,0,0,0,.9241-.3409,1.3462,1.3462,0,0,0,.3191-.9576,1.119,1.119,0,0,0-1.2658-1.2663A1.1538,1.1538,0,0,0,1332.8524,731.6392Z" transform="translate(-1171 -583)" fill="#6d71f7"/>
        </g>
      </g>
    </g>
  </g>
</svg>
