<?xml-stylesheet type="text/css" href="../css/fonts.css"?>
<svg xmlns="http://www.w3.org/2000/svg" xmlns:xlink="http://www.w3.org/1999/xlink" width='100%' height='100%' viewBox="0 0 1796.3 1028.2">
<g id="star_2_">
	<g id="colors_plates_2_">
		<path fill="#D5527E" d="M483.2,326l275.8,200.4L687,747.7l-87.5,63.6C463.3,695,410.9,500,483.2,326z"/>
		<path fill="#46ABCC" d="M599.6,811.2l275.8-200.3l188.3,136.8l33.4,102.9C944.4,944.1,742.7,933.8,599.6,811.2z"/>
		<path fill="#49548E" d="M1097,850.5L991.7,526.3L1180,389.5l108.2,0C1330,563.6,1257.8,752.2,1097,850.5z"/>
		<path fill="#8BBE5C" d="M1288,389.5l-340.9,0l-71.9-221.4l33.4-102.9C1087.2,79.3,1244.3,206.2,1288,389.5z"/>
		<path fill="#8F588F" d="M908.7,65.4L803.4,389.6l-232.8,0L483.1,326C551.6,160.5,720.8,50.4,908.7,65.4z"/>
	</g>
	<g id="shaddows_2_" opacity="0.1">
		<linearGradient id="SVGID_1_" gradientUnits="userSpaceOnUse" x1="599.5647" y1="761.9483" x2="1097.0852" y2="761.9483">
			<stop offset="0" style="stop-color:#FFFFFF"/>
			<stop offset="0.4015" style="stop-color:#FDFDFD"/>
			<stop offset="0.5461" style="stop-color:#F6F6F6"/>
			<stop offset="0.6492" style="stop-color:#EBEBEB"/>
			<stop offset="0.7326" style="stop-color:#DADADA"/>
			<stop offset="0.804" style="stop-color:#C4C4C4"/>
			<stop offset="0.8672" style="stop-color:#A8A8A8"/>
			<stop offset="0.9244" style="stop-color:#888888"/>
			<stop offset="0.9752" style="stop-color:#646464"/>
			<stop offset="1" style="stop-color:#4F4F4F"/>
		</linearGradient>
		<path fill="url(#SVGID_1_)" d="M599.6,811.2l275.8-200.3l188.3,136.8l33.5,102.9C944.4,944.1,742.7,933.8,599.6,811.2z"/>

			<linearGradient id="SVGID_2_" gradientUnits="userSpaceOnUse" x1="1966.8844" y1="1556.2736" x2="2336.2476" y2="1453.1956" gradientTransform="matrix(0.309 -0.9511 0.9511 0.309 -953.1298 2161.8799)">
			<stop offset="0" style="stop-color:#FFFFFF"/>
			<stop offset="0.4015" style="stop-color:#FDFDFD"/>
			<stop offset="0.5461" style="stop-color:#F6F6F6"/>
			<stop offset="0.6492" style="stop-color:#EBEBEB"/>
			<stop offset="0.7326" style="stop-color:#DADADA"/>
			<stop offset="0.804" style="stop-color:#C4C4C4"/>
			<stop offset="0.8672" style="stop-color:#A8A8A8"/>
			<stop offset="0.9244" style="stop-color:#888888"/>
			<stop offset="0.9752" style="stop-color:#646464"/>
			<stop offset="1" style="stop-color:#4F4F4F"/>
		</linearGradient>
		<path fill="url(#SVGID_2_)" d="M1097,850.5L991.7,526.3L1180,389.5l108.2,0C1330,563.6,1257.8,752.2,1097,850.5z"/>

			<linearGradient id="SVGID_3_" gradientUnits="userSpaceOnUse" x1="1666.3291" y1="3001.7085" x2="2035.7136" y2="2898.6245" gradientTransform="matrix(-0.809 -0.5878 0.5878 -0.809 808.8047 3737.2019)">
			<stop offset="0" style="stop-color:#FFFFFF"/>
			<stop offset="0.4015" style="stop-color:#FDFDFD"/>
			<stop offset="0.5461" style="stop-color:#F6F6F6"/>
			<stop offset="0.6492" style="stop-color:#EBEBEB"/>
			<stop offset="0.7326" style="stop-color:#DADADA"/>
			<stop offset="0.804" style="stop-color:#C4C4C4"/>
			<stop offset="0.8672" style="stop-color:#A8A8A8"/>
			<stop offset="0.9244" style="stop-color:#888888"/>
			<stop offset="0.9752" style="stop-color:#646464"/>
			<stop offset="1" style="stop-color:#4F4F4F"/>
		</linearGradient>
		<path fill="url(#SVGID_3_)" d="M1288,389.5l-340.9,0l-71.9-221.4l33.4-102.9C1087.2,79.3,1244.3,206.2,1288,389.5z"/>

			<linearGradient id="SVGID_4_" gradientUnits="userSpaceOnUse" x1="197.9285" y1="3162.1099" x2="567.3057" y2="3059.0281" gradientTransform="matrix(-0.809 0.5878 -0.5878 -0.809 2850.8271 2548.4124)">
			<stop offset="0" style="stop-color:#FFFFFF"/>
			<stop offset="0.4015" style="stop-color:#FDFDFD"/>
			<stop offset="0.5461" style="stop-color:#F6F6F6"/>
			<stop offset="0.6492" style="stop-color:#EBEBEB"/>
			<stop offset="0.7326" style="stop-color:#DADADA"/>
			<stop offset="0.804" style="stop-color:#C4C4C4"/>
			<stop offset="0.8672" style="stop-color:#A8A8A8"/>
			<stop offset="0.9244" style="stop-color:#888888"/>
			<stop offset="0.9752" style="stop-color:#646464"/>
			<stop offset="1" style="stop-color:#4F4F4F"/>
		</linearGradient>
		<path fill="url(#SVGID_4_)" d="M908.7,65.4L803.4,389.6l-232.8,0L483.1,326C551.6,160.5,720.8,50.4,908.7,65.4z"/>

			<linearGradient id="SVGID_5_" gradientUnits="userSpaceOnUse" x1="-407.6747" y1="1814.7014" x2="-38.3041" y2="1711.6213" gradientTransform="matrix(0.309 0.9511 -0.9511 0.309 2350.6406 238.6631)">
			<stop offset="0" style="stop-color:#FFFFFF"/>
			<stop offset="0.4015" style="stop-color:#FDFDFD"/>
			<stop offset="0.5461" style="stop-color:#F6F6F6"/>
			<stop offset="0.6492" style="stop-color:#EBEBEB"/>
			<stop offset="0.7326" style="stop-color:#DADADA"/>
			<stop offset="0.804" style="stop-color:#C4C4C4"/>
			<stop offset="0.8672" style="stop-color:#A8A8A8"/>
			<stop offset="0.9244" style="stop-color:#888888"/>
			<stop offset="0.9752" style="stop-color:#646464"/>
			<stop offset="1" style="stop-color:#4F4F4F"/>
		</linearGradient>
		<path fill="url(#SVGID_5_)" d="M483.2,326l275.8,200.4L687,747.7l-87.5,63.6C463.3,695,410.9,500,483.2,326z"/>



	</g>
</g>
<g id="lines_2_">
	<line fill="none" stroke="#8F588F" stroke-miterlimit="10" x1="732.2" y1="537.6" x2="0.3" y2="5.1"/>
	<line fill="none" stroke="#8BBE5C" stroke-miterlimit="10" x1="785.5" y1="364.8" x2="904.4" y2="0.2"/>
	<line fill="none" stroke="#49548E" stroke-miterlimit="10" x1="965.1" y1="364.8" x2="1796.3" y2="364.6"/>
	<line fill="none" stroke="#46ABCC" stroke-miterlimit="10" x1="1020.9" y1="534.9" x2="1181.3" y2="1028.1"/>
	<line fill="none" stroke="#D5527E" stroke-miterlimit="10" x1="875.3" y1="642.4" x2="360.1" y2="1019.4"/>
</g>
<rect x="753.5" y="489.6" fill="none" width="243.3" height="122.7"/>
<text transform="matrix(1 0 0 1 750 500)">
    <tspan x="0" y="0" fill="#0E0F0F" font-family="Open Sans" font-size="16px">By uniting gifted people, token</tspan>
    <tspan x="10" y="20" fill="#0E0F0F" font-family="Open Sans" font-size="16px"> holders, business and advisors,</tspan>
    <tspan x="20" y="40" fill="#0E0F0F" font-family="Open Sans" font-size="16px">the platform offers uniques</tspan>
    <tspan x="5" y="60" fill="#0E0F0F" font-family="Open Sans" font-size="16px">opportunities to each of them.</tspan>
</text>
<g id="logo_4_">
	<polyline fill="#1B1B1A" points="939.4,430.9 926.6,430.9 928.4,416.9 923.1,416.9 921.5,430.9 914.9,430.9 914.3,434.9    920.9,434.9 917.6,462.9 922.8,462.9 926.1,434.9 938.4,434.9  "/>
	<polygon fill="#1B1B1A" points="803.9,404.9 765.9,404.9 765.2,409.9 781.5,409.9 775.2,462.9 780.5,462.9 786.9,409.9    803.3,409.9  "/>
	<path fill="#1B1B1A" d="M821.9,435.9c-1.1-1.8-2.6-3.2-4.4-4.3c-2.5-1.6-5.4-2.3-8.8-2.3c-3.9,0-7.2,1-9.8,2.8   c-2.6,1.8-4.6,4.2-5.9,7c-1.3,2.8-2,5.5-2,8.3c0,2.9,0.7,5.6,2,7.9c1.3,2.4,3.1,4.3,5.4,5.6c2.3,1.3,4.8,2,7.5,2   c3.1,0,6.1-0.7,8.7-2c1.8-0.9,3.3-1.8,4.6-3l-0.6,5h5.1l3.9-33h-4.6L821.9,435.9z M820.7,443.9l-0.5,4.4c-0.6,3-2.1,5.4-4.4,7.3   c-2.3,1.9-5,2.8-8.1,2.8c-2.2,0-4.2-0.5-6-1.5c-1.7-1-3.1-2.4-4.1-4.1c-1-1.7-1.5-3.7-1.5-5.8c0-1.8,0.5-3.8,1.4-5.8   c0.9-2,2.3-3.7,4.3-5.1c1.9-1.4,4.4-2.1,7.3-2.1c3.1,0,5.8,1,7.9,2.9C819.3,438.7,820.5,441.1,820.7,443.9z"/>
	<polygon fill="#1B1B1A" points="838.3,400.9 830.8,462.9 835.9,462.9 843.5,400.9  "/>
	<path fill="#1B1B1A" d="M876.5,442.4c-0.9-4.2-2.6-7.5-5.3-9.7c-2.6-2.2-6-3.3-9.9-3.3c-3.4,0-6.5,0.8-9.3,2.5   c-2.7,1.7-4.9,3.9-6.4,6.6c-1.5,2.7-2.3,5.6-2.3,8.7c0,3.1,0.7,5.8,2.1,8.2c1.4,2.4,3.3,4.3,5.8,5.7c2.5,1.3,5.3,2,8.5,2   c1.8,0,3.7-0.3,5.6-0.9c1.8-0.6,3.6-1.4,5.2-2.5l0.5-0.4l-2.3-4.1l-0.7,0.5c-2.4,1.8-5.1,2.8-8,2.8c-2.6,0-4.8-0.7-6.8-2.1   c-1.7-1.3-3-2.9-3.8-4.8l27.2-8.5L876.5,442.4z M870.6,440.4l-22,6.8c0-0.2,0-0.3,0-0.5c0-2.3,0.6-4.4,1.7-6.4   c1.1-2,2.7-3.5,4.6-4.7c1.9-1.2,4.1-1.7,6.5-1.7c2.3,0,4.3,0.7,5.9,2C868.7,437.1,869.8,438.6,870.6,440.4z"/>
	<path fill="#1B1B1A" d="M907.4,431.7c-2-1.6-4.2-2.3-7.2-2.3c-2.9,0-5.7,0.6-8.1,1.9c-1.7,0.9-3.2,1.9-4.5,3.2l0.2-4.6h-4.6l-4,33   h5.1l2.1-17.3c0.3-3.2,1.7-6,4-8.2c2.3-2.1,5-3.3,8.1-3.3c1.9,0,3.4,0.5,4.4,1.4c1,0.9,1.5,2.2,1.5,3.7l-0.1,1.1l-2.7,22.5h5.1   l2.8-23.2c0.1-0.3,0.2-0.9,0.2-1.5C909.9,435.5,909.4,433.3,907.4,431.7L907.4,431.7z"/>
	<path fill="#1B1B1A" d="M1010.4,445.5c-1.5-2.4-3.5-4.3-5.9-5.6c-2.5-1.3-5.2-2-8.2-2c-4,0-7.3,0.9-10,2.7c-2.7,1.8-4.7,4.1-6,6.8   c-1.3,2.7-2,5.6-2,8.5c0,3.1,0.8,5.9,2.2,8.3c1.5,2.4,3.5,4.2,6,5.5h0c2.5,1.3,5.2,1.9,8.1,1.9c4,0,7.4-0.9,10.1-2.8   c2.7-1.8,4.7-4.1,6-6.9c1.3-2.7,1.9-5.5,1.9-8.4C1012.6,450.6,1011.8,447.9,1010.4,445.5z M1007.4,453.9c0,2.2-0.5,4.3-1.4,6.4   c-0.9,2-2.3,3.7-4.2,4.9c-1.9,1.3-4.3,1.9-7,1.9c-2,0-3.9-0.5-5.6-1.4c-1.7-1-3.1-2.3-4.1-4c-1-1.7-1.5-3.7-1.5-5.9   c0-2.2,0.5-4.3,1.4-6.3c0.9-2,2.4-3.7,4.3-4.9c1.9-1.3,4.2-1.9,7-1.9c2,0,3.9,0.5,5.6,1.4c1.7,0.9,3.1,2.3,4.1,4   C1006.9,449.7,1007.4,451.7,1007.4,453.9z"/>
	<path fill="#1B1B1A" d="M957.7,444.5c2-1.2,4.1-1.7,6.3-1.7c1.7,0,3.3,0.3,4.7,0.9c1.5,0.6,2.7,1.5,3.7,2.5l0.5,0.5l3.3-3.5   l-0.5-0.5c-1.4-1.4-3.2-2.6-5.2-3.3c-2-0.8-4.3-1.2-6.8-1.2c-3.3,0-6.4,0.8-9.1,2.5c-2.7,1.7-4.8,3.9-6.4,6.6   c-1.5,2.7-2.3,5.6-2.3,8.7c0,3.2,0.8,6,2.3,8.3c1.5,2.4,3.6,4.2,6.1,5.4c2.5,1.3,5.1,1.9,7.8,1.9c3.6,0,7.1-1,10.2-3l0.6-0.4   l-2.5-3.7l-0.6,0.4c-2.2,1.4-4.6,2.2-7.2,2.2c-2.2,0-4.2-0.5-6-1.5c-1.7-1-3.1-2.4-4.1-4.1c-1-1.7-1.5-3.6-1.5-5.7   c0-2.4,0.6-4.6,1.8-6.6C954.2,447.3,955.7,445.7,957.7,444.5z"/>
	<polyline fill="#1B1B1A" points="937.9,435.4 932.7,478.9 937.8,478.9 943.5,430.9 938.4,430.9  "/>
	<polygon fill="#1B1B1A" points="941.4,412.8 944.1,418.2 950,419.1 945.7,423.2 946.8,429.2 941.4,426.4 936.1,429.2 937.1,423.2    932.8,419.1 938.8,418.2  "/>
	<path fill="#74C8D2" d="M753.3,430.9h-24.5l-8,7.9l20.5,24l20.2-24L753.3,430.9z M741.1,456.8L726,438.5l15,10.8l14.8-10.8   L741.1,456.8z"/>
</g>
<g id="names_1_">
<g>
    <text transform="matrix(1 0 0 1 647.6026 296.7953)">
        <tspan x="0" y="0" fill="#FFFFFF" font-family="Open Sans" font-size="22px">TALENTS</tspan>
    </text>
</g>
<g>
    <text transform="matrix(1 0 0 1 791.4896 783.765)">
        <tspan x="0" y="0" fill="#FFFFFF" font-family="Open Sans" font-size="22px">DECENTRALIZED</tspan>
        <tspan x="-30" y="30" fill="#FFFFFF" font-family="Open Sans" font-size="22px">CO-INVESTMENT FUND</tspan>
    </text>
</g>
<g>
    <text transform="matrix(1 0 0 1 1091.348 564.6849)" fill="#FFFFFF" font-family="Open Sans" font-size="22px">BUSINESS</text>
</g>
<g>
    <text transform="matrix(1 0 0 1 984.2896 296.7953)">
        <tspan x="0" y="0" fill="#FFFFFF" font-family="Open Sans" font-size="22px">TOKEN HOLDERS</tspan>
    </text>
</g>
<g>
    <text transform="matrix(1 0 0 1 549.6812 534.6849)">
        <tspan x="0" y="0" fill="#FFFFFF" font-family="Open Sans" font-size="22px">CELEBRITIES</tspan>
        <tspan x="35.3" y="30" fill="#FFFFFF" font-family="Open Sans" font-size="22px">AND</tspan>
        <tspan x="10.8" y="60" fill="#FFFFFF" font-family="Open Sans" font-size="22px">ADVISORS</tspan>
    </text>
</g>
</g>
</svg>
