
<svg xmlns="http://www.w3.org/2000/svg" xmlns:xlink="http://www.w3.org/1999/xlink" version="1.1" viewBox="0 0 384.864 384.864">
	<g transform="matrix(6.00138e-17 0.9801 -0.9801 6.00138e-17 381.035 3.82939)">
		<path id="Vintage_Luxury_Arrow_Left" d="M3.546,201.005c0.132,0.132,83.575,84.128,83.575,84.128   c2.442,2.442,5.654,3.585,8.842,3.501c0.096,0,0.18,0.06,0.277,0.06h276.697c10.587,0,15.88-13.342,8.481-20.776l-75.093-75.731   l74.215-74.853c7.988-7.447,4.415-21.161-10.166-21.137H96.348c-3.344-0.217-6.749,0.842-9.311,3.417l-83.49,84.2   C-1.182,188.566-1.182,196.265,3.546,201.005z M100.63,120.354l242.856-0.072l-62.678,63.207c-2.394,2.406-3.549,5.558-3.525,8.71   c-0.036,3.152,1.131,6.304,3.525,8.71l63.195,63.725h-243.06l-71.689-72.302L100.63,120.354z" data-original="#000000" class="active-path" data-old_color="#000000" fill="#00A8FF"/>
	</g>
</svg>
