<svg xmlns="http://www.w3.org/2000/svg" viewBox="0 0 861.917 694.0925">
  <g style="isolation: isolate">
    <g>
      <g opacity="0.7" style="mix-blend-mode: color-dodge">
        <g>
          <g>
            <path d="M571.1091,289.987a1.1644,1.1644,0,1,1,.0855,1.6441A1.1644,1.1644,0,0,1,571.1091,289.987Z" fill="#1dcad3"/>
            <path d="M698.1643,113.8089a1.1641,1.1641,0,1,1,.0852,1.6443A1.1637,1.1637,0,0,1,698.1643,113.8089Z" fill="#1dcad3"/>
            <path d="M496.8026,285.962a1.1641,1.1641,0,1,1,.0852,1.6441A1.1642,1.1642,0,0,1,496.8026,285.962Z" fill="#1dcad3"/>
            <path d="M537.8274,297.2951a1.1642,1.1642,0,1,1,.0853,1.6439A1.1643,1.1643,0,0,1,537.8274,297.2951Z" fill="#1dcad3"/>
            <path d="M729.8855,176.139a1.164,1.164,0,1,1,.0848,1.6441A1.1634,1.1634,0,0,1,729.8855,176.139Z" fill="#1dcad3"/>
            <path d="M606.2119,89.6362a1.1643,1.1643,0,1,1,.0854,1.6441A1.1649,1.1649,0,0,1,606.2119,89.6362Z" fill="#1dcad3"/>
            <path d="M588.0389,313.2373a1.1642,1.1642,0,1,1,.0852,1.6443A1.1645,1.1645,0,0,1,588.0389,313.2373Z" fill="#1dcad3"/>
            <path d="M680.5284,176.286a1.1641,1.1641,0,1,1,.0852,1.6444A1.1641,1.1641,0,0,1,680.5284,176.286Z" fill="#1dcad3"/>
            <path d="M471.138,363.87a1.1643,1.1643,0,1,1,.0852,1.6444A1.1643,1.1643,0,0,1,471.138,363.87Z" fill="#1dcad3"/>
            <path d="M549.2168,268.1588a1.1641,1.1641,0,1,1,.0848,1.6439A1.1639,1.1639,0,0,1,549.2168,268.1588Z" fill="#1dcad3"/>
            <path d="M528.5175,257.2566a1.1639,1.1639,0,1,1,.085,1.6441A1.1643,1.1643,0,0,1,528.5175,257.2566Z" fill="#1dcad3"/>
            <path d="M497.6816,240.0792a1.1642,1.1642,0,1,1,.085,1.6441A1.164,1.164,0,0,1,497.6816,240.0792Z" fill="#1dcad3"/>
            <path d="M584.9024,258.2549a1.1643,1.1643,0,1,1,.0857,1.6444A1.1648,1.1648,0,0,1,584.9024,258.2549Z" fill="#1dcad3"/>
            <path d="M608.278,281.8287a1.1642,1.1642,0,1,1,.0848,1.6442A1.1646,1.1646,0,0,1,608.278,281.8287Z" fill="#1dcad3"/>
            <path d="M607.797,261.8679a1.1641,1.1641,0,1,1,.0852,1.6441A1.1643,1.1643,0,0,1,607.797,261.8679Z" fill="#1dcad3"/>
            <path d="M530.91,230.0215a1.1643,1.1643,0,1,1,.0855,1.6441A1.1643,1.1643,0,0,1,530.91,230.0215Z" fill="#1dcad3"/>
            <path d="M536.6109,229.9239a1.1642,1.1642,0,1,1,.0853,1.6437A1.1638,1.1638,0,0,1,536.6109,229.9239Z" fill="#1dcad3"/>
            <path d="M509.8948,286.6819a1.1642,1.1642,0,1,1,.0853,1.644A1.1641,1.1641,0,0,1,509.8948,286.6819Z" fill="#1dcad3"/>
            <path d="M693.6185,126.2772a1.1642,1.1642,0,1,1,.0855,1.6445A1.164,1.164,0,0,1,693.6185,126.2772Z" fill="#1dcad3"/>
            <path d="M763.428,122.71a1.1642,1.1642,0,1,1,.0855,1.6442A1.1646,1.1646,0,0,1,763.428,122.71Z" fill="#1dcad3"/>
            <path d="M652.077,212.4062a1.1646,1.1646,0,1,1,.086,1.6442A1.1646,1.1646,0,0,1,652.077,212.4062Z" fill="#1dcad3"/>
            <path d="M471.0818,284.0777a1.1644,1.1644,0,1,1,.0852,1.6446A1.1644,1.1644,0,0,1,471.0818,284.0777Z" fill="#1dcad3"/>
            <path d="M514.4165,266.6611a1.1642,1.1642,0,1,1,.0852,1.6445A1.1631,1.1631,0,0,1,514.4165,266.6611Z" fill="#1dcad3"/>
            <path d="M625.8259,75.7a1.164,1.164,0,1,1,.0853,1.6442A1.1644,1.1644,0,0,1,625.8259,75.7Z" fill="#1dcad3"/>
            <path d="M488.6106,196.1928a1.1643,1.1643,0,1,1,.085,1.6441A1.1642,1.1642,0,0,1,488.6106,196.1928Z" fill="#1dcad3"/>
            <path d="M566.9071,157.1226a1.164,1.164,0,1,1,.0848,1.6446A1.1637,1.1637,0,0,1,566.9071,157.1226Z" fill="#1dcad3"/>
            <path d="M545.1128,168.1838a1.1641,1.1641,0,1,1,.0855,1.6441A1.1641,1.1641,0,0,1,545.1128,168.1838Z" fill="#1dcad3"/>
            <path d="M571.5572,239.66a1.1644,1.1644,0,1,1,.085,1.6444A1.1646,1.1646,0,0,1,571.5572,239.66Z" fill="#1dcad3"/>
            <path d="M568.5586,161.4492a1.164,1.164,0,1,1,.0848,1.6443A1.1641,1.1641,0,0,1,568.5586,161.4492Z" fill="#1dcad3"/>
            <path d="M538.3538,120.9147a1.1641,1.1641,0,1,1,.085,1.6445A1.1636,1.1636,0,0,1,538.3538,120.9147Z" fill="#1dcad3"/>
            <path d="M511.7459,88.18a1.1644,1.1644,0,1,1,.0857,1.6445A1.1645,1.1645,0,0,1,511.7459,88.18Z" fill="#1dcad3"/>
            <path d="M542.7,104.1324a1.1642,1.1642,0,1,1,.085,1.6441A1.1645,1.1645,0,0,1,542.7,104.1324Z" fill="#1dcad3"/>
            <path d="M619.32,130.3847a1.1644,1.1644,0,1,1,.085,1.6443A1.1642,1.1642,0,0,1,619.32,130.3847Z" fill="#1dcad3"/>
            <path d="M501.376,134.6406a1.1643,1.1643,0,1,1,.0853,1.6445A1.1638,1.1638,0,0,1,501.376,134.6406Z" fill="#1dcad3"/>
            <path d="M597.2148,137.3936a1.1642,1.1642,0,1,1,.0853,1.6441A1.1647,1.1647,0,0,1,597.2148,137.3936Z" fill="#1dcad3"/>
            <path d="M529.6966,83.641a1.164,1.164,0,1,1,.085,1.6441A1.1635,1.1635,0,0,1,529.6966,83.641Z" fill="#1dcad3"/>
            <path d="M668.319,145.1319a1.1642,1.1642,0,1,1,.0851,1.6441A1.1639,1.1639,0,0,1,668.319,145.1319Z" fill="#1dcad3"/>
            <path d="M628.6273,186.0413a1.1641,1.1641,0,1,1,.085,1.6436A1.1637,1.1637,0,0,1,628.6273,186.0413Z" fill="#1dcad3"/>
            <path d="M610.0622,222.2546a1.1644,1.1644,0,1,1,.085,1.6441A1.1633,1.1633,0,0,1,610.0622,222.2546Z" fill="#1dcad3"/>
            <path d="M578.2219,209.8785a1.1643,1.1643,0,1,1,.085,1.6441A1.1637,1.1637,0,0,1,578.2219,209.8785Z" fill="#1dcad3"/>
            <path d="M668.8189,190.5994a1.1644,1.1644,0,1,1,.0855,1.6441A1.1639,1.1639,0,0,1,668.8189,190.5994Z" fill="#1dcad3"/>
            <path d="M737.2194,77.9133a1.1641,1.1641,0,1,1,.0848,1.6441A1.1636,1.1636,0,0,1,737.2194,77.9133Z" fill="#1dcad3"/>
            <path d="M706.2826,175.7922a1.1641,1.1641,0,1,1,.0848,1.6441A1.1637,1.1637,0,0,1,706.2826,175.7922Z" fill="#1dcad3"/>
            <path d="M709.5992,146.9646a1.1641,1.1641,0,1,1,.0852,1.6444A1.1646,1.1646,0,0,1,709.5992,146.9646Z" fill="#1dcad3"/>
            <path d="M677.8148,87.5543a1.1642,1.1642,0,1,1,.0853,1.6438A1.1635,1.1635,0,0,1,677.8148,87.5543Z" fill="#1dcad3"/>
            <path d="M503.3774,223.9824a1.1641,1.1641,0,1,1,.0852,1.6438A1.1641,1.1641,0,0,1,503.3774,223.9824Z" fill="#1dcad3"/>
            <path d="M627.4145,207.401a1.164,1.164,0,1,1,.085,1.6439A1.1633,1.1633,0,0,1,627.4145,207.401Z" fill="#1dcad3"/>
            <path d="M565.9127,230.8538a1.1643,1.1643,0,1,1,.085,1.6441A1.164,1.164,0,0,1,565.9127,230.8538Z" fill="#1dcad3"/>
            <path d="M627.9615,199.5535a1.1642,1.1642,0,1,1,.0853,1.6446A1.1644,1.1644,0,0,1,627.9615,199.5535Z" fill="#1dcad3"/>
            <path d="M633.4576,211.0132a1.1641,1.1641,0,1,1,.0848,1.6441A1.1635,1.1635,0,0,1,633.4576,211.0132Z" fill="#1dcad3"/>
            <path d="M656.965,200.3128a1.1642,1.1642,0,1,1,.0852,1.6441A1.1644,1.1644,0,0,1,656.965,200.3128Z" fill="#1dcad3"/>
            <path d="M661.7289,260.4681a1.164,1.164,0,1,1,.0848,1.6441A1.1636,1.1636,0,0,1,661.7289,260.4681Z" fill="#1dcad3"/>
            <path d="M651.3481,280.6889a1.1643,1.1643,0,1,1,.0855,1.6444A1.1646,1.1646,0,0,1,651.3481,280.6889Z" fill="#1dcad3"/>
            <path d="M652.79,231.7985a1.1641,1.1641,0,1,1,.085,1.6441A1.1638,1.1638,0,0,1,652.79,231.7985Z" fill="#1dcad3"/>
            <path d="M538.154,153.6233a1.1641,1.1641,0,1,1,.0855,1.6439A1.1647,1.1647,0,0,1,538.154,153.6233Z" fill="#1dcad3"/>
            <path d="M511.2469,160.6643a1.1642,1.1642,0,1,1,.0853,1.6441A1.1642,1.1642,0,0,1,511.2469,160.6643Z" fill="#1dcad3"/>
            <path d="M473.8355,129.3728a1.1644,1.1644,0,1,1,.085,1.6446A1.1638,1.1638,0,0,1,473.8355,129.3728Z" fill="#1dcad3"/>
            <path d="M509.4837,79.3042a1.1642,1.1642,0,1,1,.0855,1.6441A1.1639,1.1639,0,0,1,509.4837,79.3042Z" fill="#1dcad3"/>
            <path d="M555.5679,209.8414a1.1639,1.1639,0,1,1,.085,1.6441A1.1641,1.1641,0,0,1,555.5679,209.8414Z" fill="#1dcad3"/>
            <path d="M556.796,188.9994a1.164,1.164,0,1,1,.0852,1.6439A1.1637,1.1637,0,0,1,556.796,188.9994Z" fill="#1dcad3"/>
            <path d="M540.9017,189.83a1.1641,1.1641,0,1,1,.0853,1.6438A1.1635,1.1635,0,0,1,540.9017,189.83Z" fill="#1dcad3"/>
            <path d="M508.7864,194.74a1.1641,1.1641,0,1,1,.085,1.6442A1.1643,1.1643,0,0,1,508.7864,194.74Z" fill="#1dcad3"/>
            <path d="M833.676,168.0983a1.1643,1.1643,0,1,1,.0853,1.6441A1.1649,1.1649,0,0,1,833.676,168.0983Z" fill="#1dcad3"/>
            <path d="M532.6875,326.149a1.1642,1.1642,0,1,1,.0857,1.6441A1.1639,1.1639,0,0,1,532.6875,326.149Z" fill="#1dcad3"/>
            <path d="M757.777,190.3936a1.1641,1.1641,0,1,1,.085,1.6446A1.1636,1.1636,0,0,1,757.777,190.3936Z" fill="#1dcad3"/>
            <path d="M827.95,117.0025a1.1644,1.1644,0,1,1,.085,1.6444A1.1638,1.1638,0,0,1,827.95,117.0025Z" fill="#1dcad3"/>
          </g>
          <g>
            <path d="M749.9557,99.9531a.4593.4593,0,1,1-.4852.4321A.46.46,0,0,1,749.9557,99.9531Z" fill="#1dcad3"/>
            <path d="M722.0357,84.8321a.4592.4592,0,1,1-.485.4316A.4595.4595,0,0,1,722.0357,84.8321Z" fill="#1dcad3"/>
            <path d="M736.5376,107.6682a.4592.4592,0,1,1-.485.4316A.4591.4591,0,0,1,736.5376,107.6682Z" fill="#1dcad3"/>
            <path d="M723.2635,75.4339a.4593.4593,0,1,1-.4852.4318A.4592.4592,0,0,1,723.2635,75.4339Z" fill="#1dcad3"/>
            <path d="M745.8083,84.7594a.4593.4593,0,1,1-.4855.4311A.4584.4584,0,0,1,745.8083,84.7594Z" fill="#1dcad3"/>
            <path d="M783.9705,43.4291a.4592.4592,0,1,1-.4855.4321A.4592.4592,0,0,1,783.9705,43.4291Z" fill="#1dcad3"/>
            <path d="M704.4088,77.5461a.4593.4593,0,1,1-.485.4318A.4586.4586,0,0,1,704.4088,77.5461Z" fill="#1dcad3"/>
            <path d="M645.1877,135.8317a.4591.4591,0,1,1-.4854.4316A.459.459,0,0,1,645.1877,135.8317Z" fill="#1dcad3"/>
            <path d="M574.375,236.9206a.4591.4591,0,1,1-.4857.4316A.4589.4589,0,0,1,574.375,236.9206Z" fill="#1dcad3"/>
            <path d="M575.0537,245.687a.4593.4593,0,1,1-.4854.4318A.46.46,0,0,1,575.0537,245.687Z" fill="#1dcad3"/>
            <path d="M592.3838,296.0956a.4591.4591,0,1,1-.485.4312A.4589.4589,0,0,1,592.3838,296.0956Z" fill="#1dcad3"/>
            <path d="M588.91,259.7141a.4594.4594,0,1,1-.485.4321A.46.46,0,0,1,588.91,259.7141Z" fill="#1dcad3"/>
            <path d="M609.4708,241.8118a.4592.4592,0,1,1-.4852.4316A.4591.4591,0,0,1,609.4708,241.8118Z" fill="#1dcad3"/>
            <path d="M578.4458,239.4968a.4594.4594,0,1,1-.4853.4321A.46.46,0,0,1,578.4458,239.4968Z" fill="#1dcad3"/>
            <path d="M569.7458,281.436a.4592.4592,0,1,1-.4848.4315A.459.459,0,0,1,569.7458,281.436Z" fill="#1dcad3"/>
            <path d="M550.0423,280.95a.4591.4591,0,1,1-.4852.4319A.4592.4592,0,0,1,550.0423,280.95Z" fill="#1dcad3"/>
            <path d="M541.622,278.2966a.4593.4593,0,1,1-.4852.4316A.4593.4593,0,0,1,541.622,278.2966Z" fill="#1dcad3"/>
            <path d="M574.6675,172.5073a.4593.4593,0,1,1-.4853.4313A.4589.4589,0,0,1,574.6675,172.5073Z" fill="#1dcad3"/>
            <path d="M532.6633,209.3687a.4593.4593,0,1,1-.4855.4318A.4591.4591,0,0,1,532.6633,209.3687Z" fill="#1dcad3"/>
            <path d="M861.4841,77.7921a.4591.4591,0,1,1-.4847.4311A.4589.4589,0,0,1,861.4841,77.7921Z" fill="#1dcad3"/>
            <path d="M594.3556,148.8526a.4593.4593,0,1,1-.4855.4321A.4591.4591,0,0,1,594.3556,148.8526Z" fill="#1dcad3"/>
            <path d="M606.7617,133.5242a.4593.4593,0,1,1-.485.4321A.4595.4595,0,0,1,606.7617,133.5242Z" fill="#1dcad3"/>
            <path d="M560.2215,149.5472a.46.46,0,1,1-.4853.432A.46.46,0,0,1,560.2215,149.5472Z" fill="#1dcad3"/>
            <path d="M567.4211,154.0033a.4592.4592,0,1,1-.4855.4318A.46.46,0,0,1,567.4211,154.0033Z" fill="#1dcad3"/>
            <path d="M549.8391,166.4256a.4592.4592,0,1,1-.485.432A.46.46,0,0,1,549.8391,166.4256Z" fill="#1dcad3"/>
            <path d="M543.9832,165.2728a.4592.4592,0,1,1-.4852.4316A.4595.4595,0,0,1,543.9832,165.2728Z" fill="#1dcad3"/>
            <path d="M533.3955,165.5945a.4593.4593,0,1,1-.4855.4316A.4589.4589,0,0,1,533.3955,165.5945Z" fill="#1dcad3"/>
            <path d="M544.3339,184.4423a.4593.4593,0,1,1-.4854.432A.459.459,0,0,1,544.3339,184.4423Z" fill="#1dcad3"/>
            <path d="M530.6336,206.9529a.4592.4592,0,1,1-.485.4316A.4587.4587,0,0,1,530.6336,206.9529Z" fill="#1dcad3"/>
            <path d="M524.3106,209.89a.4594.4594,0,1,1-.4855.4318A.4594.4594,0,0,1,524.3106,209.89Z" fill="#1dcad3"/>
            <path d="M560.1427,243.53a.4593.4593,0,1,1-.4847.4316A.4585.4585,0,0,1,560.1427,243.53Z" fill="#1dcad3"/>
            <path d="M533.0733,263.2037a.4593.4593,0,1,1-.4855.4319A.46.46,0,0,1,533.0733,263.2037Z" fill="#1dcad3"/>
            <path d="M530.9028,265.7638a.46.46,0,1,1-.4852.432A.46.46,0,0,1,530.9028,265.7638Z" fill="#1dcad3"/>
            <path d="M527.3891,267.635a.46.46,0,1,1-.4848.4318A.46.46,0,0,1,527.3891,267.635Z" fill="#1dcad3"/>
            <path d="M575.2022,217.5757a.4591.4591,0,1,1-.4855.4316A.4593.4593,0,0,1,575.2022,217.5757Z" fill="#1dcad3"/>
            <path d="M565.2739,268.0132a.4593.4593,0,1,1-.4855.432A.46.46,0,0,1,565.2739,268.0132Z" fill="#1dcad3"/>
            <path d="M582.9735,157.87a.46.46,0,1,1-.485.432A.46.46,0,0,1,582.9735,157.87Z" fill="#1dcad3"/>
            <path d="M610.11,151.3817a.46.46,0,1,1-.4853.4321A.4595.4595,0,0,1,610.11,151.3817Z" fill="#1dcad3"/>
            <path d="M626.5586,140.6019a.4593.4593,0,1,1-.4853.4318A.46.46,0,0,1,626.5586,140.6019Z" fill="#1dcad3"/>
            <path d="M607.3538,188.1249a.4591.4591,0,1,1-.4855.4313A.4591.4591,0,0,1,607.3538,188.1249Z" fill="#1dcad3"/>
            <path d="M623.6406,191.519a.4591.4591,0,1,1-.4855.4316A.4583.4583,0,0,1,623.6406,191.519Z" fill="#1dcad3"/>
            <path d="M621.5624,205.8168a.4592.4592,0,1,1-.4855.4318A.4591.4591,0,0,1,621.5624,205.8168Z" fill="#1dcad3"/>
            <path d="M641.8788,233.19a.4594.4594,0,1,1-.4854.4318A.46.46,0,0,1,641.8788,233.19Z" fill="#1dcad3"/>
            <path d="M641.26,200.2139a.4593.4593,0,1,1-.4855.4318A.4591.4591,0,0,1,641.26,200.2139Z" fill="#1dcad3"/>
            <path d="M707.7483,220.9517a.4593.4593,0,1,1-.4854.4319A.4592.4592,0,0,1,707.7483,220.9517Z" fill="#1dcad3"/>
            <path d="M634.0959,157.4181a.4591.4591,0,1,1-.485.4318A.4594.4594,0,0,1,634.0959,157.4181Z" fill="#1dcad3"/>
            <path d="M675.3717,167.8959a.4593.4593,0,1,1-.4851.4317A.46.46,0,0,1,675.3717,167.8959Z" fill="#1dcad3"/>
            <path d="M611.2269,128.197a.4594.4594,0,1,1-.485.4318A.46.46,0,0,1,611.2269,128.197Z" fill="#1dcad3"/>
            <path d="M625.3888,104.9033a.46.46,0,1,1-.4855.4321A.46.46,0,0,1,625.3888,104.9033Z" fill="#1dcad3"/>
            <path d="M606.7526,112.1123a.4593.4593,0,1,1-.4852.4315A.4588.4588,0,0,1,606.7526,112.1123Z" fill="#1dcad3"/>
            <path d="M653.2993,89.7624a.4593.4593,0,1,1-.4855.432A.46.46,0,0,1,653.2993,89.7624Z" fill="#1dcad3"/>
            <path d="M675.3963,107.3017a.4592.4592,0,1,1-.4853.4315A.46.46,0,0,1,675.3963,107.3017Z" fill="#1dcad3"/>
            <path d="M699.4674,160.5328a.4593.4593,0,1,1-.4848.4323A.4594.4594,0,0,1,699.4674,160.5328Z" fill="#1dcad3"/>
            <path d="M701.73,153.56a.4592.4592,0,1,1-.4853.4314A.4588.4588,0,0,1,701.73,153.56Z" fill="#1dcad3"/>
            <path d="M723.0066,99.5805a.4591.4591,0,1,1-.485.4316A.4585.4585,0,0,1,723.0066,99.5805Z" fill="#1dcad3"/>
            <path d="M733.2369,84.81a.4593.4593,0,1,1-.4855.4318A.4592.4592,0,0,1,733.2369,84.81Z" fill="#1dcad3"/>
            <path d="M743.223,102.4091a.459.459,0,1,1-.4855.4311A.4587.4587,0,0,1,743.223,102.4091Z" fill="#1dcad3"/>
            <path d="M755.0646,136.045a.459.459,0,1,1-.4853.4311A.4585.4585,0,0,1,755.0646,136.045Z" fill="#1dcad3"/>
            <path d="M718.724,82.884a.4594.4594,0,1,1-.4855.432A.4591.4591,0,0,1,718.724,82.884Z" fill="#1dcad3"/>
            <path d="M747.6847,61.7893a.4594.4594,0,1,1-.4852.4321A.46.46,0,0,1,747.6847,61.7893Z" fill="#1dcad3"/>
            <path d="M811.61,63.9412a.4591.4591,0,1,1-.485.4316A.4594.4594,0,0,1,811.61,63.9412Z" fill="#1dcad3"/>
            <path d="M746.5577,111.4437a.4592.4592,0,1,1-.4848.4319A.4595.4595,0,0,1,746.5577,111.4437Z" fill="#1dcad3"/>
            <path d="M761.6145,130.2759a.4593.4593,0,1,1-.4854.4316A.4593.4593,0,0,1,761.6145,130.2759Z" fill="#1dcad3"/>
            <path d="M752.1283,80.1365a.459.459,0,1,1-.485.4316A.4591.4591,0,0,1,752.1283,80.1365Z" fill="#1dcad3"/>
            <path d="M747.9753,78.862a.4593.4593,0,1,1-.4853.4315A.4592.4592,0,0,1,747.9753,78.862Z" fill="#1dcad3"/>
            <path d="M664.3214,131.209a.46.46,0,1,1-.4854.4321A.46.46,0,0,1,664.3214,131.209Z" fill="#1dcad3"/>
            <path d="M632.4539,103.938a.4593.4593,0,1,1-.4855.432A.459.459,0,0,1,632.4539,103.938Z" fill="#1dcad3"/>
            <path d="M620.7731,126.9136a.4593.4593,0,1,1-.4851.4321A.46.46,0,0,1,620.7731,126.9136Z" fill="#1dcad3"/>
            <path d="M579.2044,165.926a.4593.4593,0,1,1-.4854.4318A.4592.4592,0,0,1,579.2044,165.926Z" fill="#1dcad3"/>
            <path d="M686.2818,214.068a.4594.4594,0,1,1-.485.4316A.4594.4594,0,0,1,686.2818,214.068Z" fill="#1dcad3"/>
            <path d="M673.3406,239.5742a.4592.4592,0,1,1-.485.4318A.4584.4584,0,0,1,673.3406,239.5742Z" fill="#1dcad3"/>
            <path d="M692.2854,271.6461a.4593.4593,0,1,1-.4855.4316A.4592.4592,0,0,1,692.2854,271.6461Z" fill="#1dcad3"/>
            <path d="M671.2166,273.0384a.46.46,0,1,1-.4855.4321A.46.46,0,0,1,671.2166,273.0384Z" fill="#1dcad3"/>
            <path d="M666.48,285.3158a.4592.4592,0,1,1-.4857.4316A.459.459,0,0,1,666.48,285.3158Z" fill="#1dcad3"/>
            <path d="M639.9149,112.5705a.4591.4591,0,1,1-.485.4316A.459.459,0,0,1,639.9149,112.5705Z" fill="#1dcad3"/>
            <path d="M552.0906,184.941a.4593.4593,0,1,1-.4848.432A.46.46,0,0,1,552.0906,184.941Z" fill="#1dcad3"/>
            <path d="M545.045,173.2255a.4593.4593,0,1,1-.4855.4316A.4587.4587,0,0,1,545.045,173.2255Z" fill="#1dcad3"/>
            <path d="M537.6774,144.6193a.4593.4593,0,1,1-.4855.4315A.4593.4593,0,0,1,537.6774,144.6193Z" fill="#1dcad3"/>
            <path d="M563.63,162.9a.4593.4593,0,1,1-.4853.4321A.46.46,0,0,1,563.63,162.9Z" fill="#1dcad3"/>
            <path d="M562.3975,178.2226a.4593.4593,0,1,1-.485.4314A.459.459,0,0,1,562.3975,178.2226Z" fill="#1dcad3"/>
            <path d="M530.9955,259.2531a.4591.4591,0,1,1-.4855.4315A.4593.4593,0,0,1,530.9955,259.2531Z" fill="#1dcad3"/>
            <path d="M542.3414,246.19a.4593.4593,0,1,1-.485.4321A.46.46,0,0,1,542.3414,246.19Z" fill="#1dcad3"/>
            <path d="M606.0892,200.0069a.4592.4592,0,1,1-.4857.4314A.4592.4592,0,0,1,606.0892,200.0069Z" fill="#1dcad3"/>
            <path d="M658.3761,186.0181a.4592.4592,0,1,1-.4852.4318A.4593.4593,0,0,1,658.3761,186.0181Z" fill="#1dcad3"/>
            <path d="M634.872,194.0893a.4593.4593,0,1,1-.4855.4315A.4593.4593,0,0,1,634.872,194.0893Z" fill="#1dcad3"/>
            <path d="M702.4211,202.2845a.4593.4593,0,1,1-.4852.4316A.4594.4594,0,0,1,702.4211,202.2845Z" fill="#1dcad3"/>
            <path d="M572.9869,156.5459a.4592.4592,0,1,1-.485.4313A.4592.4592,0,0,1,572.9869,156.5459Z" fill="#1dcad3"/>
            <path d="M649.9094,180.6714a.4593.4593,0,1,1-.4855.432A.46.46,0,0,1,649.9094,180.6714Z" fill="#1dcad3"/>
            <path d="M531.1219,225.4232a.46.46,0,1,1-.4855.4321A.459.459,0,0,1,531.1219,225.4232Z" fill="#1dcad3"/>
            <path d="M564.6549,241.3939a.4591.4591,0,1,1-.4853.4316A.4589.4589,0,0,1,564.6549,241.3939Z" fill="#1dcad3"/>
            <path d="M561.6143,239.6659a.4592.4592,0,1,1-.4858.4316A.4593.4593,0,0,1,561.6143,239.6659Z" fill="#1dcad3"/>
            <path d="M800.9567,127.0781a.4592.4592,0,1,1-.4855.4316A.4584.4584,0,0,1,800.9567,127.0781Z" fill="#1dcad3"/>
            <path d="M604.5529,222.8788a.4592.4592,0,1,1-.4853.4316A.4594.4594,0,0,1,604.5529,222.8788Z" fill="#1dcad3"/>
            <path d="M629.0609,239.0541a.4593.4593,0,1,1-.4852.4316A.4589.4589,0,0,1,629.0609,239.0541Z" fill="#1dcad3"/>
            <path d="M666.6891,219.5144a.4593.4593,0,1,1-.4852.432A.4594.4594,0,0,1,666.6891,219.5144Z" fill="#1dcad3"/>
            <path d="M609.3087,177.0661a.4593.4593,0,1,1-.4853.4316A.459.459,0,0,1,609.3087,177.0661Z" fill="#1dcad3"/>
            <path d="M586.445,197.0653a.4592.4592,0,1,1-.4851.4313A.46.46,0,0,1,586.445,197.0653Z" fill="#1dcad3"/>
            <path d="M595.875,75.5758a.4593.4593,0,1,1-.485.4319A.46.46,0,0,1,595.875,75.5758Z" fill="#1dcad3"/>
            <path d="M595.7433,116.7747a.4593.4593,0,1,1-.4855.432A.46.46,0,0,1,595.7433,116.7747Z" fill="#1dcad3"/>
            <path d="M582.68,127.7422a.4593.4593,0,1,1-.4852.4316A.4591.4591,0,0,1,582.68,127.7422Z" fill="#1dcad3"/>
            <path d="M645.6286,164.6521a.4592.4592,0,1,1-.4855.4316A.46.46,0,0,1,645.6286,164.6521Z" fill="#1dcad3"/>
            <path d="M606.6486,178.1265a.4594.4594,0,1,1-.4851.4318A.4594.4594,0,0,1,606.6486,178.1265Z" fill="#1dcad3"/>
            <path d="M648.2608,205.4342a.4593.4593,0,1,1-.4854.4316A.4593.4593,0,0,1,648.2608,205.4342Z" fill="#1dcad3"/>
            <path d="M583.19,212.6864a.4593.4593,0,1,1-.485.4316A.4588.4588,0,0,1,583.19,212.6864Z" fill="#1dcad3"/>
            <path d="M581.4,214.3275a.4593.4593,0,1,1-.4852.4318A.459.459,0,0,1,581.4,214.3275Z" fill="#1dcad3"/>
            <path d="M572.8366,225.9033a.4593.4593,0,1,1-.4848.4319A.4588.4588,0,0,1,572.8366,225.9033Z" fill="#1dcad3"/>
            <path d="M592.9164,234.68a.4595.4595,0,1,1-.4855.4319A.46.46,0,0,1,592.9164,234.68Z" fill="#1dcad3"/>
            <path d="M570.5476,211.597a.4594.4594,0,1,1-.4854.4316A.4588.4588,0,0,1,570.5476,211.597Z" fill="#1dcad3"/>
            <path d="M577.63,247.0108a.4593.4593,0,1,1-.4852.432A.4591.4591,0,0,1,577.63,247.0108Z" fill="#1dcad3"/>
            <path d="M457.72,90.3737a.4592.4592,0,1,1-.485.4318A.459.459,0,0,1,457.72,90.3737Z" fill="#1dcad3"/>
            <path d="M557.1105,264.7312a.4593.4593,0,1,1-.4855.4321A.46.46,0,0,1,557.1105,264.7312Z" fill="#1dcad3"/>
            <path d="M536.4291,277.7222a.4594.4594,0,1,1-.4848.432A.46.46,0,0,1,536.4291,277.7222Z" fill="#1dcad3"/>
            <path d="M533.8628,281.0037a.4591.4591,0,1,1-.485.4316A.4595.4595,0,0,1,533.8628,281.0037Z" fill="#1dcad3"/>
            <path d="M552.2565,249.8809a.4593.4593,0,1,1-.4851.432A.459.459,0,0,1,552.2565,249.8809Z" fill="#1dcad3"/>
            <path d="M631.0818,201.11a.4593.4593,0,1,1-.4852.4316A.4591.4591,0,0,1,631.0818,201.11Z" fill="#1dcad3"/>
            <path d="M677.93,183.9919a.4593.4593,0,1,1-.4854.432A.4592.4592,0,0,1,677.93,183.9919Z" fill="#1dcad3"/>
            <path d="M692.4343,160.5964a.4593.4593,0,1,1-.485.4316A.4589.4589,0,0,1,692.4343,160.5964Z" fill="#1dcad3"/>
            <path d="M714.41,152.7a.4592.4592,0,1,1-.4855.4316A.4594.4594,0,0,1,714.41,152.7Z" fill="#1dcad3"/>
            <path d="M673.45,101.9916a.4592.4592,0,1,1-.4853.4314A.4588.4588,0,0,1,673.45,101.9916Z" fill="#1dcad3"/>
            <path d="M688.0662,126.2224a.4593.4593,0,1,1-.485.4315A.4588.4588,0,0,1,688.0662,126.2224Z" fill="#1dcad3"/>
            <path d="M723.0287,185.4357a.4593.4593,0,1,1-.4855.4319A.46.46,0,0,1,723.0287,185.4357Z" fill="#1dcad3"/>
            <path d="M736.3114,212.9333a.4593.4593,0,1,1-.4855.432A.4588.4588,0,0,1,736.3114,212.9333Z" fill="#1dcad3"/>
            <path d="M693.2313,213.7632a.4594.4594,0,1,1-.486.4321A.4591.4591,0,0,1,693.2313,213.7632Z" fill="#1dcad3"/>
            <path d="M705.0211,218.8733a.4593.4593,0,1,1-.4855.4315A.4594.4594,0,0,1,705.0211,218.8733Z" fill="#1dcad3"/>
            <path d="M710.8022,170.4172a.4592.4592,0,1,1-.4855.4313A.4587.4587,0,0,1,710.8022,170.4172Z" fill="#1dcad3"/>
            <path d="M789.6206.0008a.4592.4592,0,1,1-.4853.4311A.4595.4595,0,0,1,789.6206.0008Z" fill="#1dcad3"/>
            <path d="M751.1776,113.0384a.4592.4592,0,1,1-.4853.432A.46.46,0,0,1,751.1776,113.0384Z" fill="#1dcad3"/>
            <path d="M747.54,153.8077a.4593.4593,0,1,1-.4854.4316A.4591.4591,0,0,1,747.54,153.8077Z" fill="#1dcad3"/>
            <path d="M845.038,103.5809a.4593.4593,0,1,1-.485.4321A.46.46,0,0,1,845.038,103.5809Z" fill="#1dcad3"/>
          </g>
        </g>
      </g>
      <g opacity="0.7" style="mix-blend-mode: color-dodge">
        <g>
          <g>
            <path d="M194.1091,425.987a1.1644,1.1644,0,1,1,.0855,1.6441A1.1644,1.1644,0,0,1,194.1091,425.987Z" fill="#1dcad3"/>
            <path d="M321.1643,249.8089a1.1641,1.1641,0,1,1,.0852,1.6443A1.1637,1.1637,0,0,1,321.1643,249.8089Z" fill="#1dcad3"/>
            <path d="M119.8026,421.962a1.1641,1.1641,0,1,1,.0852,1.6441A1.1642,1.1642,0,0,1,119.8026,421.962Z" fill="#1dcad3"/>
            <path d="M160.8274,433.2951a1.1642,1.1642,0,1,1,.0853,1.6439A1.1643,1.1643,0,0,1,160.8274,433.2951Z" fill="#1dcad3"/>
            <path d="M67.84,379.9165a1.1642,1.1642,0,1,1,.0853,1.6441A1.1649,1.1649,0,0,1,67.84,379.9165Z" fill="#1dcad3"/>
            <path d="M74.087,379.3553a1.1639,1.1639,0,1,1,.085,1.6441A1.1632,1.1632,0,0,1,74.087,379.3553Z" fill="#1dcad3"/>
            <path d="M352.8855,312.139a1.164,1.164,0,1,1,.0848,1.6441A1.1634,1.1634,0,0,1,352.8855,312.139Z" fill="#1dcad3"/>
            <path d="M229.2119,225.6362a1.1643,1.1643,0,1,1,.0854,1.6441A1.1649,1.1649,0,0,1,229.2119,225.6362Z" fill="#1dcad3"/>
            <path d="M263.6944,116.0379a1.164,1.164,0,1,1,.085,1.6441A1.1644,1.1644,0,0,1,263.6944,116.0379Z" fill="#1dcad3"/>
            <path d="M211.0389,449.2373a1.1642,1.1642,0,1,1,.0852,1.6443A1.1645,1.1645,0,0,1,211.0389,449.2373Z" fill="#1dcad3"/>
            <path d="M303.5284,312.286a1.1641,1.1641,0,1,1,.0852,1.6444A1.1641,1.1641,0,0,1,303.5284,312.286Z" fill="#1dcad3"/>
            <path d="M94.138,499.87a1.1643,1.1643,0,1,1,.0852,1.6444A1.1643,1.1643,0,0,1,94.138,499.87Z" fill="#1dcad3"/>
            <path d="M172.2168,404.1588a1.1641,1.1641,0,1,1,.0848,1.6439A1.1639,1.1639,0,0,1,172.2168,404.1588Z" fill="#1dcad3"/>
            <path d="M151.5175,393.2566a1.1639,1.1639,0,1,1,.085,1.6441A1.1643,1.1643,0,0,1,151.5175,393.2566Z" fill="#1dcad3"/>
            <path d="M120.6816,376.0792a1.1642,1.1642,0,1,1,.085,1.6441A1.164,1.164,0,0,1,120.6816,376.0792Z" fill="#1dcad3"/>
            <path d="M207.9024,394.2549a1.1643,1.1643,0,1,1,.0857,1.6444A1.1648,1.1648,0,0,1,207.9024,394.2549Z" fill="#1dcad3"/>
            <path d="M231.278,417.8287a1.1642,1.1642,0,1,1,.0848,1.6442A1.1646,1.1646,0,0,1,231.278,417.8287Z" fill="#1dcad3"/>
            <path d="M230.797,397.8679a1.1641,1.1641,0,1,1,.0852,1.6441A1.1643,1.1643,0,0,1,230.797,397.8679Z" fill="#1dcad3"/>
            <path d="M153.91,366.0215a1.1643,1.1643,0,1,1,.0855,1.6441A1.1643,1.1643,0,0,1,153.91,366.0215Z" fill="#1dcad3"/>
            <path d="M159.6109,365.9239a1.1642,1.1642,0,1,1,.0853,1.6437A1.1638,1.1638,0,0,1,159.6109,365.9239Z" fill="#1dcad3"/>
            <path d="M132.8948,422.6819a1.1642,1.1642,0,1,1,.0853,1.644A1.1641,1.1641,0,0,1,132.8948,422.6819Z" fill="#1dcad3"/>
            <path d="M316.6185,262.2772a1.1642,1.1642,0,1,1,.0855,1.6445A1.164,1.164,0,0,1,316.6185,262.2772Z" fill="#1dcad3"/>
            <path d="M275.077,348.4062a1.1646,1.1646,0,1,1,.086,1.6442A1.1646,1.1646,0,0,1,275.077,348.4062Z" fill="#1dcad3"/>
            <path d="M94.0818,420.0777a1.1644,1.1644,0,1,1,.0852,1.6446A1.1644,1.1644,0,0,1,94.0818,420.0777Z" fill="#1dcad3"/>
            <path d="M137.4165,402.6611a1.1642,1.1642,0,1,1,.0852,1.6445A1.1631,1.1631,0,0,1,137.4165,402.6611Z" fill="#1dcad3"/>
            <path d="M248.8259,211.7a1.164,1.164,0,1,1,.0853,1.6442A1.1644,1.1644,0,0,1,248.8259,211.7Z" fill="#1dcad3"/>
            <path d="M111.6106,332.1928a1.1643,1.1643,0,1,1,.085,1.6441A1.1642,1.1642,0,0,1,111.6106,332.1928Z" fill="#1dcad3"/>
            <path d="M189.9071,293.1226a1.164,1.164,0,1,1,.0848,1.6446A1.1637,1.1637,0,0,1,189.9071,293.1226Z" fill="#1dcad3"/>
            <path d="M168.1128,304.1838a1.1641,1.1641,0,1,1,.0855,1.6441A1.1641,1.1641,0,0,1,168.1128,304.1838Z" fill="#1dcad3"/>
            <path d="M194.5572,375.66a1.1644,1.1644,0,1,1,.085,1.6444A1.1646,1.1646,0,0,1,194.5572,375.66Z" fill="#1dcad3"/>
            <path d="M191.5586,297.4492a1.164,1.164,0,1,1,.0848,1.6443A1.1641,1.1641,0,0,1,191.5586,297.4492Z" fill="#1dcad3"/>
            <path d="M161.3538,256.9147a1.1641,1.1641,0,1,1,.085,1.6445A1.1636,1.1636,0,0,1,161.3538,256.9147Z" fill="#1dcad3"/>
            <path d="M134.7459,224.18a1.1644,1.1644,0,1,1,.0857,1.6445A1.1645,1.1645,0,0,1,134.7459,224.18Z" fill="#1dcad3"/>
            <path d="M165.7,240.1324a1.1642,1.1642,0,1,1,.085,1.6441A1.1645,1.1645,0,0,1,165.7,240.1324Z" fill="#1dcad3"/>
            <path d="M242.32,266.3847a1.1644,1.1644,0,1,1,.085,1.6443A1.1642,1.1642,0,0,1,242.32,266.3847Z" fill="#1dcad3"/>
            <path d="M124.376,270.6406a1.1643,1.1643,0,1,1,.0853,1.6445A1.1638,1.1638,0,0,1,124.376,270.6406Z" fill="#1dcad3"/>
            <path d="M220.2148,273.3936a1.1642,1.1642,0,1,1,.0853,1.6441A1.1647,1.1647,0,0,1,220.2148,273.3936Z" fill="#1dcad3"/>
            <path d="M68.5082,318.4511a1.1643,1.1643,0,1,1,.0855,1.6437A1.1645,1.1645,0,0,1,68.5082,318.4511Z" fill="#1dcad3"/>
            <path d="M286.65,173.1865a1.1641,1.1641,0,1,1,.0848,1.6436A1.1641,1.1641,0,0,1,286.65,173.1865Z" fill="#1dcad3"/>
            <path d="M46.3539,350.704a1.1644,1.1644,0,1,1,.0855,1.6441A1.1646,1.1646,0,0,1,46.3539,350.704Z" fill="#1dcad3"/>
            <path d="M152.6966,219.641a1.164,1.164,0,1,1,.085,1.6441A1.1635,1.1635,0,0,1,152.6966,219.641Z" fill="#1dcad3"/>
            <path d="M210.4807,171.8769a1.1642,1.1642,0,1,1,.085,1.6443A1.1647,1.1647,0,0,1,210.4807,171.8769Z" fill="#1dcad3"/>
            <path d="M192.1175,189.4877a1.1641,1.1641,0,1,1,.0852,1.6439A1.1644,1.1644,0,0,1,192.1175,189.4877Z" fill="#1dcad3"/>
            <path d="M291.319,281.1319a1.1642,1.1642,0,1,1,.0851,1.6441A1.1639,1.1639,0,0,1,291.319,281.1319Z" fill="#1dcad3"/>
            <path d="M251.6273,322.0413a1.1641,1.1641,0,1,1,.085,1.6436A1.1637,1.1637,0,0,1,251.6273,322.0413Z" fill="#1dcad3"/>
            <path d="M233.0622,358.2546a1.1644,1.1644,0,1,1,.085,1.6441A1.1633,1.1633,0,0,1,233.0622,358.2546Z" fill="#1dcad3"/>
            <path d="M201.2219,345.8785a1.1643,1.1643,0,1,1,.085,1.6441A1.1637,1.1637,0,0,1,201.2219,345.8785Z" fill="#1dcad3"/>
            <path d="M291.8189,326.5994a1.1644,1.1644,0,1,1,.0855,1.6441A1.1639,1.1639,0,0,1,291.8189,326.5994Z" fill="#1dcad3"/>
            <path d="M329.2826,311.7922a1.1641,1.1641,0,1,1,.0848,1.6441A1.1637,1.1637,0,0,1,329.2826,311.7922Z" fill="#1dcad3"/>
            <path d="M332.5992,282.9646a1.1641,1.1641,0,1,1,.0852,1.6444A1.1646,1.1646,0,0,1,332.5992,282.9646Z" fill="#1dcad3"/>
            <path d="M300.8148,223.5543a1.1642,1.1642,0,1,1,.0853,1.6438A1.1635,1.1635,0,0,1,300.8148,223.5543Z" fill="#1dcad3"/>
            <path d="M126.3774,359.9824a1.1641,1.1641,0,1,1,.0852,1.6438A1.1641,1.1641,0,0,1,126.3774,359.9824Z" fill="#1dcad3"/>
            <path d="M250.4145,343.401a1.164,1.164,0,1,1,.085,1.6439A1.1633,1.1633,0,0,1,250.4145,343.401Z" fill="#1dcad3"/>
            <path d="M74.3037,289.7777a1.164,1.164,0,1,1,.085,1.6442A1.1637,1.1637,0,0,1,74.3037,289.7777Z" fill="#1dcad3"/>
            <path d="M.3,346.086a1.1639,1.1639,0,1,1,.0851,1.6445A1.1639,1.1639,0,0,1,.3,346.086Z" fill="#1dcad3"/>
            <path d="M188.9127,366.8538a1.1643,1.1643,0,1,1,.085,1.6441A1.164,1.164,0,0,1,188.9127,366.8538Z" fill="#1dcad3"/>
            <path d="M250.9615,335.5535a1.1642,1.1642,0,1,1,.0853,1.6446A1.1644,1.1644,0,0,1,250.9615,335.5535Z" fill="#1dcad3"/>
            <path d="M256.4576,347.0132a1.1641,1.1641,0,1,1,.0848,1.6441A1.1635,1.1635,0,0,1,256.4576,347.0132Z" fill="#1dcad3"/>
            <path d="M279.965,336.3128a1.1642,1.1642,0,1,1,.0852,1.6441A1.1644,1.1644,0,0,1,279.965,336.3128Z" fill="#1dcad3"/>
            <path d="M284.7289,396.4681a1.164,1.164,0,1,1,.0848,1.6441A1.1636,1.1636,0,0,1,284.7289,396.4681Z" fill="#1dcad3"/>
            <path d="M274.3481,416.6889a1.1643,1.1643,0,1,1,.0855,1.6444A1.1646,1.1646,0,0,1,274.3481,416.6889Z" fill="#1dcad3"/>
            <path d="M275.79,367.7985a1.1641,1.1641,0,1,1,.085,1.6441A1.1638,1.1638,0,0,1,275.79,367.7985Z" fill="#1dcad3"/>
            <path d="M161.154,289.6233a1.1641,1.1641,0,1,1,.0855,1.6439A1.1647,1.1647,0,0,1,161.154,289.6233Z" fill="#1dcad3"/>
            <path d="M134.2469,296.6643a1.1642,1.1642,0,1,1,.0853,1.6441A1.1642,1.1642,0,0,1,134.2469,296.6643Z" fill="#1dcad3"/>
            <path d="M93.99,283.9335a1.1641,1.1641,0,1,1,.0852,1.6441A1.1639,1.1639,0,0,1,93.99,283.9335Z" fill="#1dcad3"/>
            <path d="M96.8355,265.3728a1.1644,1.1644,0,1,1,.085,1.6446A1.1638,1.1638,0,0,1,96.8355,265.3728Z" fill="#1dcad3"/>
            <path d="M132.4837,215.3042a1.1642,1.1642,0,1,1,.0855,1.6441A1.1639,1.1639,0,0,1,132.4837,215.3042Z" fill="#1dcad3"/>
            <path d="M178.5679,345.8414a1.1639,1.1639,0,1,1,.085,1.6441A1.1641,1.1641,0,0,1,178.5679,345.8414Z" fill="#1dcad3"/>
            <path d="M179.796,324.9994a1.164,1.164,0,1,1,.0852,1.6439A1.1637,1.1637,0,0,1,179.796,324.9994Z" fill="#1dcad3"/>
            <path d="M163.9017,325.83a1.1641,1.1641,0,1,1,.0853,1.6438A1.1635,1.1635,0,0,1,163.9017,325.83Z" fill="#1dcad3"/>
            <path d="M131.7864,330.74a1.1641,1.1641,0,1,1,.085,1.6442A1.1643,1.1643,0,0,1,131.7864,330.74Z" fill="#1dcad3"/>
            <path d="M456.676,304.0983a1.1643,1.1643,0,1,1,.0853,1.6441A1.1649,1.1649,0,0,1,456.676,304.0983Z" fill="#1dcad3"/>
            <path d="M155.6875,462.149a1.1642,1.1642,0,1,1,.0857,1.6441A1.1639,1.1639,0,0,1,155.6875,462.149Z" fill="#1dcad3"/>
            <path d="M380.777,326.3936a1.1641,1.1641,0,1,1,.085,1.6446A1.1636,1.1636,0,0,1,380.777,326.3936Z" fill="#1dcad3"/>
          </g>
          <g>
            <path d="M372.9557,235.9531a.4593.4593,0,1,1-.4852.4321A.46.46,0,0,1,372.9557,235.9531Z" fill="#1dcad3"/>
            <path d="M346.2635,211.4339a.4593.4593,0,1,1-.4852.4318A.4592.4592,0,0,1,346.2635,211.4339Z" fill="#1dcad3"/>
            <path d="M406.9705,179.4291a.4592.4592,0,1,1-.4855.4321A.4592.4592,0,0,1,406.9705,179.4291Z" fill="#1dcad3"/>
            <path d="M346.7989,196.4755a.4591.4591,0,1,1-.4854.4314A.4588.4588,0,0,1,346.7989,196.4755Z" fill="#1dcad3"/>
            <path d="M311.4325,184.2732a.4594.4594,0,1,1-.4855.4318A.4595.4595,0,0,1,311.4325,184.2732Z" fill="#1dcad3"/>
            <path d="M340.8608,184.7568a.4592.4592,0,1,1-.4857.4313A.4589.4589,0,0,1,340.8608,184.7568Z" fill="#1dcad3"/>
            <path d="M354.311,181.1239a.4593.4593,0,1,1-.4857.432A.46.46,0,0,1,354.311,181.1239Z" fill="#1dcad3"/>
            <path d="M327.4088,213.5461a.4593.4593,0,1,1-.485.4318A.4586.4586,0,0,1,327.4088,213.5461Z" fill="#1dcad3"/>
            <path d="M268.1877,271.8317a.4591.4591,0,1,1-.4854.4316A.459.459,0,0,1,268.1877,271.8317Z" fill="#1dcad3"/>
            <path d="M197.375,372.9206a.4591.4591,0,1,1-.4857.4316A.4589.4589,0,0,1,197.375,372.9206Z" fill="#1dcad3"/>
            <path d="M198.0537,381.687a.4593.4593,0,1,1-.4854.4318A.46.46,0,0,1,198.0537,381.687Z" fill="#1dcad3"/>
            <path d="M215.3838,432.0956a.4591.4591,0,1,1-.485.4312A.4589.4589,0,0,1,215.3838,432.0956Z" fill="#1dcad3"/>
            <path d="M211.91,395.7141a.4594.4594,0,1,1-.485.4321A.46.46,0,0,1,211.91,395.7141Z" fill="#1dcad3"/>
            <path d="M232.4708,377.8118a.4592.4592,0,1,1-.4852.4316A.4591.4591,0,0,1,232.4708,377.8118Z" fill="#1dcad3"/>
            <path d="M201.4458,375.4968a.4594.4594,0,1,1-.4853.4321A.46.46,0,0,1,201.4458,375.4968Z" fill="#1dcad3"/>
            <path d="M192.7458,417.436a.4592.4592,0,1,1-.4848.4315A.459.459,0,0,1,192.7458,417.436Z" fill="#1dcad3"/>
            <path d="M173.0423,416.95a.4591.4591,0,1,1-.4852.4319A.4592.4592,0,0,1,173.0423,416.95Z" fill="#1dcad3"/>
            <path d="M164.622,414.2966a.4593.4593,0,1,1-.4852.4316A.4593.4593,0,0,1,164.622,414.2966Z" fill="#1dcad3"/>
            <path d="M197.6675,308.5073a.4593.4593,0,1,1-.4853.4313A.4589.4589,0,0,1,197.6675,308.5073Z" fill="#1dcad3"/>
            <path d="M155.6633,345.3687a.4593.4593,0,1,1-.4855.4318A.4591.4591,0,0,1,155.6633,345.3687Z" fill="#1dcad3"/>
            <path d="M484.4841,213.7921a.4591.4591,0,1,1-.4847.4311A.4589.4589,0,0,1,484.4841,213.7921Z" fill="#1dcad3"/>
            <path d="M154.8131,170.9271a.4593.4593,0,1,1-.4854.4315A.4582.4582,0,0,1,154.8131,170.9271Z" fill="#1dcad3"/>
            <path d="M217.3556,284.8526a.4593.4593,0,1,1-.4855.4321A.4591.4591,0,0,1,217.3556,284.8526Z" fill="#1dcad3"/>
            <path d="M229.7617,269.5242a.4593.4593,0,1,1-.485.4321A.4595.4595,0,0,1,229.7617,269.5242Z" fill="#1dcad3"/>
            <path d="M183.2215,285.5472a.46.46,0,1,1-.4853.432A.46.46,0,0,1,183.2215,285.5472Z" fill="#1dcad3"/>
            <path d="M190.4211,290.0033a.4592.4592,0,1,1-.4855.4318A.46.46,0,0,1,190.4211,290.0033Z" fill="#1dcad3"/>
            <path d="M172.8391,302.4256a.4592.4592,0,1,1-.485.432A.46.46,0,0,1,172.8391,302.4256Z" fill="#1dcad3"/>
            <path d="M166.9832,301.2728a.4592.4592,0,1,1-.4852.4316A.4595.4595,0,0,1,166.9832,301.2728Z" fill="#1dcad3"/>
            <path d="M156.3955,301.5945a.4593.4593,0,1,1-.4855.4316A.4589.4589,0,0,1,156.3955,301.5945Z" fill="#1dcad3"/>
            <path d="M167.3339,320.4423a.4593.4593,0,1,1-.4854.432A.459.459,0,0,1,167.3339,320.4423Z" fill="#1dcad3"/>
            <path d="M153.6336,342.9529a.4592.4592,0,1,1-.485.4316A.4587.4587,0,0,1,153.6336,342.9529Z" fill="#1dcad3"/>
            <path d="M147.3106,345.89a.4594.4594,0,1,1-.4855.4318A.4594.4594,0,0,1,147.3106,345.89Z" fill="#1dcad3"/>
            <path d="M183.1427,379.53a.4593.4593,0,1,1-.4847.4316A.4585.4585,0,0,1,183.1427,379.53Z" fill="#1dcad3"/>
            <path d="M156.0733,399.2037a.4593.4593,0,1,1-.4855.4319A.46.46,0,0,1,156.0733,399.2037Z" fill="#1dcad3"/>
            <path d="M153.9028,401.7638a.46.46,0,1,1-.4852.432A.46.46,0,0,1,153.9028,401.7638Z" fill="#1dcad3"/>
            <path d="M150.3891,403.635a.46.46,0,1,1-.4848.4318A.46.46,0,0,1,150.3891,403.635Z" fill="#1dcad3"/>
            <path d="M198.2022,353.5757a.4591.4591,0,1,1-.4855.4316A.4593.4593,0,0,1,198.2022,353.5757Z" fill="#1dcad3"/>
            <path d="M188.2739,404.0132a.4593.4593,0,1,1-.4855.432A.46.46,0,0,1,188.2739,404.0132Z" fill="#1dcad3"/>
            <path d="M205.9735,293.87a.46.46,0,1,1-.485.432A.46.46,0,0,1,205.9735,293.87Z" fill="#1dcad3"/>
            <path d="M233.11,287.3817a.46.46,0,1,1-.4853.4321A.4595.4595,0,0,1,233.11,287.3817Z" fill="#1dcad3"/>
            <path d="M249.5586,276.6019a.4593.4593,0,1,1-.4853.4318A.46.46,0,0,1,249.5586,276.6019Z" fill="#1dcad3"/>
            <path d="M230.3538,324.1249a.4591.4591,0,1,1-.4855.4313A.4591.4591,0,0,1,230.3538,324.1249Z" fill="#1dcad3"/>
            <path d="M246.6406,327.519a.4591.4591,0,1,1-.4855.4316A.4583.4583,0,0,1,246.6406,327.519Z" fill="#1dcad3"/>
            <path d="M244.5624,341.8168a.4592.4592,0,1,1-.4855.4318A.4591.4591,0,0,1,244.5624,341.8168Z" fill="#1dcad3"/>
            <path d="M264.8788,369.19a.4594.4594,0,1,1-.4854.4318A.46.46,0,0,1,264.8788,369.19Z" fill="#1dcad3"/>
            <path d="M264.26,336.2139a.4593.4593,0,1,1-.4855.4318A.4591.4591,0,0,1,264.26,336.2139Z" fill="#1dcad3"/>
            <path d="M330.7483,356.9517a.4593.4593,0,1,1-.4854.4319A.4592.4592,0,0,1,330.7483,356.9517Z" fill="#1dcad3"/>
            <path d="M257.0959,293.4181a.4591.4591,0,1,1-.485.4318A.4594.4594,0,0,1,257.0959,293.4181Z" fill="#1dcad3"/>
            <path d="M298.3717,303.8959a.4593.4593,0,1,1-.4851.4317A.46.46,0,0,1,298.3717,303.8959Z" fill="#1dcad3"/>
            <path d="M234.2269,264.197a.4594.4594,0,1,1-.485.4318A.46.46,0,0,1,234.2269,264.197Z" fill="#1dcad3"/>
            <path d="M248.3888,240.9033a.46.46,0,1,1-.4855.4321A.46.46,0,0,1,248.3888,240.9033Z" fill="#1dcad3"/>
            <path d="M229.7526,248.1123a.4593.4593,0,1,1-.4852.4315A.4588.4588,0,0,1,229.7526,248.1123Z" fill="#1dcad3"/>
            <path d="M276.2993,225.7624a.4593.4593,0,1,1-.4855.432A.46.46,0,0,1,276.2993,225.7624Z" fill="#1dcad3"/>
            <path d="M298.3963,243.3017a.4592.4592,0,1,1-.4853.4315A.46.46,0,0,1,298.3963,243.3017Z" fill="#1dcad3"/>
            <path d="M322.4674,296.5328a.4593.4593,0,1,1-.4848.4323A.4594.4594,0,0,1,322.4674,296.5328Z" fill="#1dcad3"/>
            <path d="M324.73,289.56a.4592.4592,0,1,1-.4853.4314A.4588.4588,0,0,1,324.73,289.56Z" fill="#1dcad3"/>
            <path d="M378.0646,272.045a.459.459,0,1,1-.4853.4311A.4585.4585,0,0,1,378.0646,272.045Z" fill="#1dcad3"/>
            <path d="M331.677,194.9434a.4592.4592,0,1,1-.4855.4318A.4592.4592,0,0,1,331.677,194.9434Z" fill="#1dcad3"/>
            <path d="M303.5757,186.6478a.4593.4593,0,1,1-.4854.4316A.4591.4591,0,0,1,303.5757,186.6478Z" fill="#1dcad3"/>
            <path d="M285.4369,186.6638a.46.46,0,1,1-.4855.4323A.4593.4593,0,0,1,285.4369,186.6638Z" fill="#1dcad3"/>
            <path d="M287.3214,267.209a.46.46,0,1,1-.4854.4321A.46.46,0,0,1,287.3214,267.209Z" fill="#1dcad3"/>
            <path d="M255.4539,239.938a.4593.4593,0,1,1-.4855.432A.459.459,0,0,1,255.4539,239.938Z" fill="#1dcad3"/>
            <path d="M243.7731,262.9136a.4593.4593,0,1,1-.4851.4321A.46.46,0,0,1,243.7731,262.9136Z" fill="#1dcad3"/>
            <path d="M202.2044,301.926a.4593.4593,0,1,1-.4854.4318A.4592.4592,0,0,1,202.2044,301.926Z" fill="#1dcad3"/>
            <path d="M309.2818,350.068a.4594.4594,0,1,1-.485.4316A.4594.4594,0,0,1,309.2818,350.068Z" fill="#1dcad3"/>
            <path d="M296.3406,375.5742a.4592.4592,0,1,1-.485.4318A.4584.4584,0,0,1,296.3406,375.5742Z" fill="#1dcad3"/>
            <path d="M315.2854,407.6461a.4593.4593,0,1,1-.4855.4316A.4592.4592,0,0,1,315.2854,407.6461Z" fill="#1dcad3"/>
            <path d="M294.2166,409.0384a.46.46,0,1,1-.4855.4321A.46.46,0,0,1,294.2166,409.0384Z" fill="#1dcad3"/>
            <path d="M289.48,421.3158a.4592.4592,0,1,1-.4857.4316A.459.459,0,0,1,289.48,421.3158Z" fill="#1dcad3"/>
            <path d="M262.9149,248.5705a.4591.4591,0,1,1-.485.4316A.459.459,0,0,1,262.9149,248.5705Z" fill="#1dcad3"/>
            <path d="M217.8332,196.5113a.4593.4593,0,1,1-.485.4316A.4588.4588,0,0,1,217.8332,196.5113Z" fill="#1dcad3"/>
            <path d="M183.6461,199.8016a.4592.4592,0,1,1-.485.4318A.459.459,0,0,1,183.6461,199.8016Z" fill="#1dcad3"/>
            <path d="M182.9386,196.1668a.4593.4593,0,1,1-.4851.4316A.46.46,0,0,1,182.9386,196.1668Z" fill="#1dcad3"/>
            <path d="M220.9827,166.2119a.4593.4593,0,1,1-.4847.4316A.46.46,0,0,1,220.9827,166.2119Z" fill="#1dcad3"/>
            <path d="M221.91,173.2446a.4592.4592,0,1,1-.485.4315A.4585.4585,0,0,1,221.91,173.2446Z" fill="#1dcad3"/>
            <path d="M190.9586,173.2889a.4592.4592,0,1,1-.485.4316A.46.46,0,0,1,190.9586,173.2889Z" fill="#1dcad3"/>
            <path d="M188.0142,171.4142a.4593.4593,0,1,1-.4855.4315A.4589.4589,0,0,1,188.0142,171.4142Z" fill="#1dcad3"/>
            <path d="M190.171,178.4784a.4593.4593,0,1,1-.4855.4318A.4589.4589,0,0,1,190.171,178.4784Z" fill="#1dcad3"/>
            <path d="M175.0906,320.941a.4593.4593,0,1,1-.4848.432A.46.46,0,0,1,175.0906,320.941Z" fill="#1dcad3"/>
            <path d="M168.045,309.2255a.4593.4593,0,1,1-.4855.4316A.4587.4587,0,0,1,168.045,309.2255Z" fill="#1dcad3"/>
            <path d="M160.6774,280.6193a.4593.4593,0,1,1-.4855.4315A.4593.4593,0,0,1,160.6774,280.6193Z" fill="#1dcad3"/>
            <path d="M186.63,298.9a.4593.4593,0,1,1-.4853.4321A.46.46,0,0,1,186.63,298.9Z" fill="#1dcad3"/>
            <path d="M185.3975,314.2226a.4593.4593,0,1,1-.485.4314A.459.459,0,0,1,185.3975,314.2226Z" fill="#1dcad3"/>
            <path d="M153.9955,395.2531a.4591.4591,0,1,1-.4855.4315A.4593.4593,0,0,1,153.9955,395.2531Z" fill="#1dcad3"/>
            <path d="M165.3414,382.19a.4593.4593,0,1,1-.485.4321A.46.46,0,0,1,165.3414,382.19Z" fill="#1dcad3"/>
            <path d="M229.0892,336.0069a.4592.4592,0,1,1-.4857.4314A.4592.4592,0,0,1,229.0892,336.0069Z" fill="#1dcad3"/>
            <path d="M281.3761,322.0181a.4592.4592,0,1,1-.4852.4318A.4593.4593,0,0,1,281.3761,322.0181Z" fill="#1dcad3"/>
            <path d="M257.872,330.0893a.4593.4593,0,1,1-.4855.4315A.4593.4593,0,0,1,257.872,330.0893Z" fill="#1dcad3"/>
            <path d="M325.4211,338.2845a.4593.4593,0,1,1-.4852.4316A.4594.4594,0,0,1,325.4211,338.2845Z" fill="#1dcad3"/>
            <path d="M195.9869,292.5459a.4592.4592,0,1,1-.485.4313A.4592.4592,0,0,1,195.9869,292.5459Z" fill="#1dcad3"/>
            <path d="M272.9094,316.6714a.4593.4593,0,1,1-.4855.432A.46.46,0,0,1,272.9094,316.6714Z" fill="#1dcad3"/>
            <path d="M154.1219,361.4232a.46.46,0,1,1-.4855.4321A.459.459,0,0,1,154.1219,361.4232Z" fill="#1dcad3"/>
            <path d="M142.0728,174.4533a.4593.4593,0,1,1-.4855.4319A.46.46,0,0,1,142.0728,174.4533Z" fill="#1dcad3"/>
            <path d="M187.6549,377.3939a.4591.4591,0,1,1-.4853.4316A.4589.4589,0,0,1,187.6549,377.3939Z" fill="#1dcad3"/>
            <path d="M184.6143,375.6659a.4592.4592,0,1,1-.4858.4316A.4593.4593,0,0,1,184.6143,375.6659Z" fill="#1dcad3"/>
            <path d="M227.5529,358.8788a.4592.4592,0,1,1-.4853.4316A.4594.4594,0,0,1,227.5529,358.8788Z" fill="#1dcad3"/>
            <path d="M252.0609,375.0541a.4593.4593,0,1,1-.4852.4316A.4589.4589,0,0,1,252.0609,375.0541Z" fill="#1dcad3"/>
            <path d="M289.6891,355.5144a.4593.4593,0,1,1-.4852.432A.4594.4594,0,0,1,289.6891,355.5144Z" fill="#1dcad3"/>
            <path d="M232.3087,313.0661a.4593.4593,0,1,1-.4853.4316A.459.459,0,0,1,232.3087,313.0661Z" fill="#1dcad3"/>
            <path d="M209.445,333.0653a.4592.4592,0,1,1-.4851.4313A.46.46,0,0,1,209.445,333.0653Z" fill="#1dcad3"/>
            <path d="M258.7749,189.6643a.4593.4593,0,1,1-.4855.4322A.46.46,0,0,1,258.7749,189.6643Z" fill="#1dcad3"/>
            <path d="M228.0325,182.77a.46.46,0,1,1-.4854.4318A.4595.4595,0,0,1,228.0325,182.77Z" fill="#1dcad3"/>
            <path d="M250.8986,169.5069a.4593.4593,0,1,1-.4852.4318A.46.46,0,0,1,250.8986,169.5069Z" fill="#1dcad3"/>
            <path d="M218.875,211.5758a.4593.4593,0,1,1-.485.4319A.46.46,0,0,1,218.875,211.5758Z" fill="#1dcad3"/>
            <path d="M218.7433,252.7747a.4593.4593,0,1,1-.4855.432A.46.46,0,0,1,218.7433,252.7747Z" fill="#1dcad3"/>
            <path d="M205.68,263.7422a.4593.4593,0,1,1-.4852.4316A.4591.4591,0,0,1,205.68,263.7422Z" fill="#1dcad3"/>
            <path d="M268.6286,300.6521a.4592.4592,0,1,1-.4855.4316A.46.46,0,0,1,268.6286,300.6521Z" fill="#1dcad3"/>
            <path d="M229.6486,314.1265a.4594.4594,0,1,1-.4851.4318A.4594.4594,0,0,1,229.6486,314.1265Z" fill="#1dcad3"/>
            <path d="M271.2608,341.4342a.4593.4593,0,1,1-.4854.4316A.4593.4593,0,0,1,271.2608,341.4342Z" fill="#1dcad3"/>
            <path d="M206.19,348.6864a.4593.4593,0,1,1-.485.4316A.4588.4588,0,0,1,206.19,348.6864Z" fill="#1dcad3"/>
            <path d="M204.4,350.3275a.4593.4593,0,1,1-.4852.4318A.459.459,0,0,1,204.4,350.3275Z" fill="#1dcad3"/>
            <path d="M195.8366,361.9033a.4593.4593,0,1,1-.4848.4319A.4588.4588,0,0,1,195.8366,361.9033Z" fill="#1dcad3"/>
            <path d="M215.9164,370.68a.4595.4595,0,1,1-.4855.4319A.46.46,0,0,1,215.9164,370.68Z" fill="#1dcad3"/>
            <path d="M193.5476,347.597a.4594.4594,0,1,1-.4854.4316A.4588.4588,0,0,1,193.5476,347.597Z" fill="#1dcad3"/>
            <path d="M200.63,383.0108a.4593.4593,0,1,1-.4852.432A.4591.4591,0,0,1,200.63,383.0108Z" fill="#1dcad3"/>
            <path d="M80.72,226.3737a.4592.4592,0,1,1-.485.4318A.459.459,0,0,1,80.72,226.3737Z" fill="#1dcad3"/>
            <path d="M180.1105,400.7312a.4593.4593,0,1,1-.4855.4321A.46.46,0,0,1,180.1105,400.7312Z" fill="#1dcad3"/>
            <path d="M159.4291,413.7222a.4594.4594,0,1,1-.4848.432A.46.46,0,0,1,159.4291,413.7222Z" fill="#1dcad3"/>
            <path d="M156.8628,417.0037a.4591.4591,0,1,1-.485.4316A.4595.4595,0,0,1,156.8628,417.0037Z" fill="#1dcad3"/>
            <path d="M175.2565,385.8809a.4593.4593,0,1,1-.4851.432A.459.459,0,0,1,175.2565,385.8809Z" fill="#1dcad3"/>
            <path d="M254.0818,337.11a.4593.4593,0,1,1-.4852.4316A.4591.4591,0,0,1,254.0818,337.11Z" fill="#1dcad3"/>
            <path d="M300.93,319.9919a.4593.4593,0,1,1-.4854.432A.4592.4592,0,0,1,300.93,319.9919Z" fill="#1dcad3"/>
            <path d="M315.4343,296.5964a.4593.4593,0,1,1-.485.4316A.4589.4589,0,0,1,315.4343,296.5964Z" fill="#1dcad3"/>
            <path d="M337.41,288.7a.4592.4592,0,1,1-.4855.4316A.4594.4594,0,0,1,337.41,288.7Z" fill="#1dcad3"/>
            <path d="M296.45,237.9916a.4592.4592,0,1,1-.4853.4314A.4588.4588,0,0,1,296.45,237.9916Z" fill="#1dcad3"/>
            <path d="M311.0662,262.2224a.4593.4593,0,1,1-.485.4315A.4588.4588,0,0,1,311.0662,262.2224Z" fill="#1dcad3"/>
            <path d="M346.0287,321.4357a.4593.4593,0,1,1-.4855.4319A.46.46,0,0,1,346.0287,321.4357Z" fill="#1dcad3"/>
            <path d="M359.3114,348.9333a.4593.4593,0,1,1-.4855.432A.4588.4588,0,0,1,359.3114,348.9333Z" fill="#1dcad3"/>
            <path d="M316.2313,349.7632a.4594.4594,0,1,1-.486.4321A.4591.4591,0,0,1,316.2313,349.7632Z" fill="#1dcad3"/>
            <path d="M328.0211,354.8733a.4593.4593,0,1,1-.4855.4315A.4594.4594,0,0,1,328.0211,354.8733Z" fill="#1dcad3"/>
            <path d="M333.8022,306.4172a.4592.4592,0,1,1-.4855.4313A.4587.4587,0,0,1,333.8022,306.4172Z" fill="#1dcad3"/>
            <path d="M333.7643,192.1564a.4593.4593,0,1,1-.4848.4321A.46.46,0,0,1,333.7643,192.1564Z" fill="#1dcad3"/>
            <path d="M306.9255,177.6886a.4593.4593,0,1,1-.4855.4321A.46.46,0,0,1,306.9255,177.6886Z" fill="#1dcad3"/>
            <path d="M334.11,163.107a.4593.4593,0,1,1-.4855.4316A.4587.4587,0,0,1,334.11,163.107Z" fill="#1dcad3"/>
            <path d="M298.4067,166.1961a.4592.4592,0,1,1-.485.4316A.46.46,0,0,1,298.4067,166.1961Z" fill="#1dcad3"/>
            <path d="M412.6206,136.0008a.4592.4592,0,1,1-.4853.4311A.4595.4595,0,0,1,412.6206,136.0008Z" fill="#1dcad3"/>
            <path d="M370.54,289.8077a.4593.4593,0,1,1-.4854.4316A.4591.4591,0,0,1,370.54,289.8077Z" fill="#1dcad3"/>
          </g>
        </g>
      </g>
      <g opacity="0.7" style="mix-blend-mode: color-dodge">
        <g>
          <g>
            <path d="M371.1091,655.987a1.1644,1.1644,0,1,1,.0855,1.6441A1.1644,1.1644,0,0,1,371.1091,655.987Z" fill="#1dcad3"/>
            <path d="M498.1643,479.8089a1.1641,1.1641,0,1,1,.0852,1.6443A1.1637,1.1637,0,0,1,498.1643,479.8089Z" fill="#1dcad3"/>
            <path d="M296.8026,651.962a1.1641,1.1641,0,1,1,.0852,1.6441A1.1642,1.1642,0,0,1,296.8026,651.962Z" fill="#1dcad3"/>
            <path d="M337.8274,663.2951a1.1642,1.1642,0,1,1,.0853,1.6439A1.1643,1.1643,0,0,1,337.8274,663.2951Z" fill="#1dcad3"/>
            <path d="M541.8265,367.4568a1.1643,1.1643,0,1,1,.0852,1.6441A1.1632,1.1632,0,0,1,541.8265,367.4568Z" fill="#1dcad3"/>
            <path d="M244.84,609.9165a1.1642,1.1642,0,1,1,.0853,1.6441A1.1649,1.1649,0,0,1,244.84,609.9165Z" fill="#1dcad3"/>
            <path d="M251.087,609.3553a1.1639,1.1639,0,1,1,.085,1.6441A1.1632,1.1632,0,0,1,251.087,609.3553Z" fill="#1dcad3"/>
            <path d="M529.8855,542.139a1.164,1.164,0,1,1,.0848,1.6441A1.1634,1.1634,0,0,1,529.8855,542.139Z" fill="#1dcad3"/>
            <path d="M406.2119,455.6362a1.1643,1.1643,0,1,1,.0854,1.6441A1.1649,1.1649,0,0,1,406.2119,455.6362Z" fill="#1dcad3"/>
            <path d="M440.6944,346.0379a1.164,1.164,0,1,1,.085,1.6441A1.1644,1.1644,0,0,1,440.6944,346.0379Z" fill="#1dcad3"/>
            <path d="M388.0389,679.2373a1.1642,1.1642,0,1,1,.0852,1.6443A1.1645,1.1645,0,0,1,388.0389,679.2373Z" fill="#1dcad3"/>
            <path d="M480.5284,542.286a1.1641,1.1641,0,1,1,.0852,1.6444A1.1641,1.1641,0,0,1,480.5284,542.286Z" fill="#1dcad3"/>
            <path d="M349.2168,634.1588a1.1641,1.1641,0,1,1,.0848,1.6439A1.1639,1.1639,0,0,1,349.2168,634.1588Z" fill="#1dcad3"/>
            <path d="M328.5175,623.2566a1.1639,1.1639,0,1,1,.085,1.6441A1.1643,1.1643,0,0,1,328.5175,623.2566Z" fill="#1dcad3"/>
            <path d="M297.6816,606.0792a1.1642,1.1642,0,1,1,.085,1.6441A1.164,1.164,0,0,1,297.6816,606.0792Z" fill="#1dcad3"/>
            <path d="M384.9024,624.2549a1.1643,1.1643,0,1,1,.0857,1.6444A1.1648,1.1648,0,0,1,384.9024,624.2549Z" fill="#1dcad3"/>
            <path d="M408.278,647.8287a1.1642,1.1642,0,1,1,.0848,1.6442A1.1646,1.1646,0,0,1,408.278,647.8287Z" fill="#1dcad3"/>
            <path d="M407.797,627.8679a1.1641,1.1641,0,1,1,.0852,1.6441A1.1643,1.1643,0,0,1,407.797,627.8679Z" fill="#1dcad3"/>
            <path d="M330.91,596.0215a1.1643,1.1643,0,1,1,.0855,1.6441A1.1643,1.1643,0,0,1,330.91,596.0215Z" fill="#1dcad3"/>
            <path d="M336.6109,595.9239a1.1642,1.1642,0,1,1,.0853,1.6437A1.1638,1.1638,0,0,1,336.6109,595.9239Z" fill="#1dcad3"/>
            <path d="M309.8948,652.6819a1.1642,1.1642,0,1,1,.0853,1.644A1.1641,1.1641,0,0,1,309.8948,652.6819Z" fill="#1dcad3"/>
            <path d="M493.6185,492.2772a1.1642,1.1642,0,1,1,.0855,1.6445A1.164,1.164,0,0,1,493.6185,492.2772Z" fill="#1dcad3"/>
            <path d="M563.428,488.71a1.1642,1.1642,0,1,1,.0855,1.6442A1.1646,1.1646,0,0,1,563.428,488.71Z" fill="#1dcad3"/>
            <path d="M452.077,578.4062a1.1646,1.1646,0,1,1,.086,1.6442A1.1646,1.1646,0,0,1,452.077,578.4062Z" fill="#1dcad3"/>
            <path d="M271.0818,650.0777a1.1644,1.1644,0,1,1,.0852,1.6446A1.1644,1.1644,0,0,1,271.0818,650.0777Z" fill="#1dcad3"/>
            <path d="M314.4165,632.6611a1.1642,1.1642,0,1,1,.0852,1.6445A1.1631,1.1631,0,0,1,314.4165,632.6611Z" fill="#1dcad3"/>
            <path d="M425.8259,441.7a1.164,1.164,0,1,1,.0853,1.6442A1.1644,1.1644,0,0,1,425.8259,441.7Z" fill="#1dcad3"/>
            <path d="M288.6106,562.1928a1.1643,1.1643,0,1,1,.085,1.6441A1.1642,1.1642,0,0,1,288.6106,562.1928Z" fill="#1dcad3"/>
            <path d="M366.9071,523.1226a1.164,1.164,0,1,1,.0848,1.6446A1.1637,1.1637,0,0,1,366.9071,523.1226Z" fill="#1dcad3"/>
            <path d="M345.1128,534.1838a1.1641,1.1641,0,1,1,.0855,1.6441A1.1641,1.1641,0,0,1,345.1128,534.1838Z" fill="#1dcad3"/>
            <path d="M371.5572,605.66a1.1644,1.1644,0,1,1,.085,1.6444A1.1646,1.1646,0,0,1,371.5572,605.66Z" fill="#1dcad3"/>
            <path d="M368.5586,527.4492a1.164,1.164,0,1,1,.0848,1.6443A1.1641,1.1641,0,0,1,368.5586,527.4492Z" fill="#1dcad3"/>
            <path d="M338.3538,486.9147a1.1641,1.1641,0,1,1,.085,1.6445A1.1636,1.1636,0,0,1,338.3538,486.9147Z" fill="#1dcad3"/>
            <path d="M311.7459,454.18a1.1644,1.1644,0,1,1,.0857,1.6445A1.1645,1.1645,0,0,1,311.7459,454.18Z" fill="#1dcad3"/>
            <path d="M342.7,470.1324a1.1642,1.1642,0,1,1,.085,1.6441A1.1645,1.1645,0,0,1,342.7,470.1324Z" fill="#1dcad3"/>
            <path d="M419.32,496.3847a1.1644,1.1644,0,1,1,.085,1.6443A1.1642,1.1642,0,0,1,419.32,496.3847Z" fill="#1dcad3"/>
            <path d="M301.376,500.6406a1.1643,1.1643,0,1,1,.0853,1.6445A1.1638,1.1638,0,0,1,301.376,500.6406Z" fill="#1dcad3"/>
            <path d="M397.2148,503.3936a1.1642,1.1642,0,1,1,.0853,1.6441A1.1647,1.1647,0,0,1,397.2148,503.3936Z" fill="#1dcad3"/>
            <path d="M245.5082,548.4511a1.1643,1.1643,0,1,1,.0855,1.6437A1.1645,1.1645,0,0,1,245.5082,548.4511Z" fill="#1dcad3"/>
            <path d="M463.65,403.1865a1.1641,1.1641,0,1,1,.0848,1.6436A1.1641,1.1641,0,0,1,463.65,403.1865Z" fill="#1dcad3"/>
            <path d="M223.3539,580.704a1.1644,1.1644,0,1,1,.0855,1.6441A1.1646,1.1646,0,0,1,223.3539,580.704Z" fill="#1dcad3"/>
            <path d="M329.6966,449.641a1.164,1.164,0,1,1,.085,1.6441A1.1635,1.1635,0,0,1,329.6966,449.641Z" fill="#1dcad3"/>
            <path d="M387.4807,401.8769a1.1642,1.1642,0,1,1,.085,1.6443A1.1647,1.1647,0,0,1,387.4807,401.8769Z" fill="#1dcad3"/>
            <path d="M369.1175,419.4877a1.1641,1.1641,0,1,1,.0852,1.6439A1.1644,1.1644,0,0,1,369.1175,419.4877Z" fill="#1dcad3"/>
            <path d="M468.319,511.1319a1.1642,1.1642,0,1,1,.0851,1.6441A1.1639,1.1639,0,0,1,468.319,511.1319Z" fill="#1dcad3"/>
            <path d="M428.6273,552.0413a1.1641,1.1641,0,1,1,.085,1.6436A1.1637,1.1637,0,0,1,428.6273,552.0413Z" fill="#1dcad3"/>
            <path d="M410.0622,588.2546a1.1644,1.1644,0,1,1,.085,1.6441A1.1633,1.1633,0,0,1,410.0622,588.2546Z" fill="#1dcad3"/>
            <path d="M378.2219,575.8785a1.1643,1.1643,0,1,1,.085,1.6441A1.1637,1.1637,0,0,1,378.2219,575.8785Z" fill="#1dcad3"/>
            <path d="M468.8189,556.5994a1.1644,1.1644,0,1,1,.0855,1.6441A1.1639,1.1639,0,0,1,468.8189,556.5994Z" fill="#1dcad3"/>
            <path d="M537.2194,443.9133a1.1641,1.1641,0,1,1,.0848,1.6441A1.1636,1.1636,0,0,1,537.2194,443.9133Z" fill="#1dcad3"/>
            <path d="M506.2826,541.7922a1.1641,1.1641,0,1,1,.0848,1.6441A1.1637,1.1637,0,0,1,506.2826,541.7922Z" fill="#1dcad3"/>
            <path d="M509.5992,512.9646a1.1641,1.1641,0,1,1,.0852,1.6444A1.1646,1.1646,0,0,1,509.5992,512.9646Z" fill="#1dcad3"/>
            <path d="M477.8148,453.5543a1.1642,1.1642,0,1,1,.0853,1.6438A1.1635,1.1635,0,0,1,477.8148,453.5543Z" fill="#1dcad3"/>
            <path d="M303.3774,589.9824a1.1641,1.1641,0,1,1,.0852,1.6438A1.1641,1.1641,0,0,1,303.3774,589.9824Z" fill="#1dcad3"/>
            <path d="M427.4145,573.401a1.164,1.164,0,1,1,.085,1.6439A1.1633,1.1633,0,0,1,427.4145,573.401Z" fill="#1dcad3"/>
            <path d="M251.3037,519.7777a1.164,1.164,0,1,1,.085,1.6442A1.1637,1.1637,0,0,1,251.3037,519.7777Z" fill="#1dcad3"/>
            <path d="M177.3,576.086a1.1639,1.1639,0,1,1,.0851,1.6445A1.1639,1.1639,0,0,1,177.3,576.086Z" fill="#1dcad3"/>
            <path d="M365.9127,596.8538a1.1643,1.1643,0,1,1,.085,1.6441A1.164,1.164,0,0,1,365.9127,596.8538Z" fill="#1dcad3"/>
            <path d="M427.9615,565.5535a1.1642,1.1642,0,1,1,.0853,1.6446A1.1644,1.1644,0,0,1,427.9615,565.5535Z" fill="#1dcad3"/>
            <path d="M433.4576,577.0132a1.1641,1.1641,0,1,1,.0848,1.6441A1.1635,1.1635,0,0,1,433.4576,577.0132Z" fill="#1dcad3"/>
            <path d="M456.965,566.3128a1.1642,1.1642,0,1,1,.0852,1.6441A1.1644,1.1644,0,0,1,456.965,566.3128Z" fill="#1dcad3"/>
            <path d="M461.7289,626.4681a1.164,1.164,0,1,1,.0848,1.6441A1.1636,1.1636,0,0,1,461.7289,626.4681Z" fill="#1dcad3"/>
            <path d="M451.3481,646.6889a1.1643,1.1643,0,1,1,.0855,1.6444A1.1646,1.1646,0,0,1,451.3481,646.6889Z" fill="#1dcad3"/>
            <path d="M452.79,597.7985a1.1641,1.1641,0,1,1,.085,1.6441A1.1638,1.1638,0,0,1,452.79,597.7985Z" fill="#1dcad3"/>
            <path d="M338.154,519.6233a1.1641,1.1641,0,1,1,.0855,1.6439A1.1647,1.1647,0,0,1,338.154,519.6233Z" fill="#1dcad3"/>
            <path d="M311.2469,526.6643a1.1642,1.1642,0,1,1,.0853,1.6441A1.1642,1.1642,0,0,1,311.2469,526.6643Z" fill="#1dcad3"/>
            <path d="M270.99,513.9335a1.1641,1.1641,0,1,1,.0852,1.6441A1.1639,1.1639,0,0,1,270.99,513.9335Z" fill="#1dcad3"/>
            <path d="M273.8355,495.3728a1.1644,1.1644,0,1,1,.085,1.6446A1.1638,1.1638,0,0,1,273.8355,495.3728Z" fill="#1dcad3"/>
            <path d="M309.4837,445.3042a1.1642,1.1642,0,1,1,.0855,1.6441A1.1639,1.1639,0,0,1,309.4837,445.3042Z" fill="#1dcad3"/>
            <path d="M355.5679,575.8414a1.1639,1.1639,0,1,1,.085,1.6441A1.1641,1.1641,0,0,1,355.5679,575.8414Z" fill="#1dcad3"/>
            <path d="M356.796,554.9994a1.164,1.164,0,1,1,.0852,1.6439A1.1637,1.1637,0,0,1,356.796,554.9994Z" fill="#1dcad3"/>
            <path d="M340.9017,555.83a1.1641,1.1641,0,1,1,.0853,1.6438A1.1635,1.1635,0,0,1,340.9017,555.83Z" fill="#1dcad3"/>
            <path d="M308.7864,560.74a1.1641,1.1641,0,1,1,.085,1.6442A1.1643,1.1643,0,0,1,308.7864,560.74Z" fill="#1dcad3"/>
            <path d="M633.676,534.0983a1.1643,1.1643,0,1,1,.0853,1.6441A1.1649,1.1649,0,0,1,633.676,534.0983Z" fill="#1dcad3"/>
            <path d="M332.6875,692.149a1.1642,1.1642,0,1,1,.0857,1.6441A1.1639,1.1639,0,0,1,332.6875,692.149Z" fill="#1dcad3"/>
            <path d="M557.777,556.3936a1.1641,1.1641,0,1,1,.085,1.6446A1.1636,1.1636,0,0,1,557.777,556.3936Z" fill="#1dcad3"/>
            <path d="M627.95,483.0025a1.1644,1.1644,0,1,1,.085,1.6444A1.1638,1.1638,0,0,1,627.95,483.0025Z" fill="#1dcad3"/>
          </g>
          <g>
            <path d="M549.9557,465.9531a.4593.4593,0,1,1-.4852.4321A.46.46,0,0,1,549.9557,465.9531Z" fill="#1dcad3"/>
            <path d="M522.0357,450.8321a.4592.4592,0,1,1-.485.4316A.4595.4595,0,0,1,522.0357,450.8321Z" fill="#1dcad3"/>
            <path d="M536.5376,473.6682a.4592.4592,0,1,1-.485.4316A.4591.4591,0,0,1,536.5376,473.6682Z" fill="#1dcad3"/>
            <path d="M523.2635,441.4339a.4593.4593,0,1,1-.4852.4318A.4592.4592,0,0,1,523.2635,441.4339Z" fill="#1dcad3"/>
            <path d="M545.8083,450.7594a.4593.4593,0,1,1-.4855.4311A.4584.4584,0,0,1,545.8083,450.7594Z" fill="#1dcad3"/>
            <path d="M583.9705,409.4291a.4592.4592,0,1,1-.4855.4321A.4592.4592,0,0,1,583.9705,409.4291Z" fill="#1dcad3"/>
            <path d="M523.7989,426.4755a.4591.4591,0,1,1-.4854.4314A.4588.4588,0,0,1,523.7989,426.4755Z" fill="#1dcad3"/>
            <path d="M488.4325,414.2732a.4594.4594,0,1,1-.4855.4318A.4595.4595,0,0,1,488.4325,414.2732Z" fill="#1dcad3"/>
            <path d="M517.8608,414.7568a.4592.4592,0,1,1-.4857.4313A.4589.4589,0,0,1,517.8608,414.7568Z" fill="#1dcad3"/>
            <path d="M531.311,411.1239a.4593.4593,0,1,1-.4857.432A.46.46,0,0,1,531.311,411.1239Z" fill="#1dcad3"/>
            <path d="M504.4088,443.5461a.4593.4593,0,1,1-.485.4318A.4586.4586,0,0,1,504.4088,443.5461Z" fill="#1dcad3"/>
            <path d="M445.1877,501.8317a.4591.4591,0,1,1-.4854.4316A.459.459,0,0,1,445.1877,501.8317Z" fill="#1dcad3"/>
            <path d="M374.375,602.9206a.4591.4591,0,1,1-.4857.4316A.4589.4589,0,0,1,374.375,602.9206Z" fill="#1dcad3"/>
            <path d="M375.0537,611.687a.4593.4593,0,1,1-.4854.4318A.46.46,0,0,1,375.0537,611.687Z" fill="#1dcad3"/>
            <path d="M392.3838,662.0956a.4591.4591,0,1,1-.485.4312A.4589.4589,0,0,1,392.3838,662.0956Z" fill="#1dcad3"/>
            <path d="M388.91,625.7141a.4594.4594,0,1,1-.485.4321A.46.46,0,0,1,388.91,625.7141Z" fill="#1dcad3"/>
            <path d="M409.4708,607.8118a.4592.4592,0,1,1-.4852.4316A.4591.4591,0,0,1,409.4708,607.8118Z" fill="#1dcad3"/>
            <path d="M378.4458,605.4968a.4594.4594,0,1,1-.4853.4321A.46.46,0,0,1,378.4458,605.4968Z" fill="#1dcad3"/>
            <path d="M369.7458,647.436a.4592.4592,0,1,1-.4848.4315A.459.459,0,0,1,369.7458,647.436Z" fill="#1dcad3"/>
            <path d="M350.0423,646.95a.4591.4591,0,1,1-.4852.4319A.4592.4592,0,0,1,350.0423,646.95Z" fill="#1dcad3"/>
            <path d="M341.622,644.2966a.4593.4593,0,1,1-.4852.4316A.4593.4593,0,0,1,341.622,644.2966Z" fill="#1dcad3"/>
            <path d="M374.6675,538.5073a.4593.4593,0,1,1-.4853.4313A.4589.4589,0,0,1,374.6675,538.5073Z" fill="#1dcad3"/>
            <path d="M332.6633,575.3687a.4593.4593,0,1,1-.4855.4318A.4591.4591,0,0,1,332.6633,575.3687Z" fill="#1dcad3"/>
            <path d="M661.4841,443.7921a.4591.4591,0,1,1-.4847.4311A.4589.4589,0,0,1,661.4841,443.7921Z" fill="#1dcad3"/>
            <path d="M331.8131,400.9271a.4593.4593,0,1,1-.4854.4315A.4582.4582,0,0,1,331.8131,400.9271Z" fill="#1dcad3"/>
            <path d="M394.3556,514.8526a.4593.4593,0,1,1-.4855.4321A.4591.4591,0,0,1,394.3556,514.8526Z" fill="#1dcad3"/>
            <path d="M406.7617,499.5242a.4593.4593,0,1,1-.485.4321A.4595.4595,0,0,1,406.7617,499.5242Z" fill="#1dcad3"/>
            <path d="M360.2215,515.5472a.46.46,0,1,1-.4853.432A.46.46,0,0,1,360.2215,515.5472Z" fill="#1dcad3"/>
            <path d="M367.4211,520.0033a.4592.4592,0,1,1-.4855.4318A.46.46,0,0,1,367.4211,520.0033Z" fill="#1dcad3"/>
            <path d="M349.8391,532.4256a.4592.4592,0,1,1-.485.432A.46.46,0,0,1,349.8391,532.4256Z" fill="#1dcad3"/>
            <path d="M343.9832,531.2728a.4592.4592,0,1,1-.4852.4316A.4595.4595,0,0,1,343.9832,531.2728Z" fill="#1dcad3"/>
            <path d="M333.3955,531.5945a.4593.4593,0,1,1-.4855.4316A.4589.4589,0,0,1,333.3955,531.5945Z" fill="#1dcad3"/>
            <path d="M344.3339,550.4423a.4593.4593,0,1,1-.4854.432A.459.459,0,0,1,344.3339,550.4423Z" fill="#1dcad3"/>
            <path d="M330.6336,572.9529a.4592.4592,0,1,1-.485.4316A.4587.4587,0,0,1,330.6336,572.9529Z" fill="#1dcad3"/>
            <path d="M324.3106,575.89a.4594.4594,0,1,1-.4855.4318A.4594.4594,0,0,1,324.3106,575.89Z" fill="#1dcad3"/>
            <path d="M360.1427,609.53a.4593.4593,0,1,1-.4847.4316A.4585.4585,0,0,1,360.1427,609.53Z" fill="#1dcad3"/>
            <path d="M333.0733,629.2037a.4593.4593,0,1,1-.4855.4319A.46.46,0,0,1,333.0733,629.2037Z" fill="#1dcad3"/>
            <path d="M330.9028,631.7638a.46.46,0,1,1-.4852.432A.46.46,0,0,1,330.9028,631.7638Z" fill="#1dcad3"/>
            <path d="M327.3891,633.635a.46.46,0,1,1-.4848.4318A.46.46,0,0,1,327.3891,633.635Z" fill="#1dcad3"/>
            <path d="M375.2022,583.5757a.4591.4591,0,1,1-.4855.4316A.4593.4593,0,0,1,375.2022,583.5757Z" fill="#1dcad3"/>
            <path d="M365.2739,634.0132a.4593.4593,0,1,1-.4855.432A.46.46,0,0,1,365.2739,634.0132Z" fill="#1dcad3"/>
            <path d="M382.9735,523.87a.46.46,0,1,1-.485.432A.46.46,0,0,1,382.9735,523.87Z" fill="#1dcad3"/>
            <path d="M410.11,517.3817a.46.46,0,1,1-.4853.4321A.4595.4595,0,0,1,410.11,517.3817Z" fill="#1dcad3"/>
            <path d="M426.5586,506.6019a.4593.4593,0,1,1-.4853.4318A.46.46,0,0,1,426.5586,506.6019Z" fill="#1dcad3"/>
            <path d="M407.3538,554.1249a.4591.4591,0,1,1-.4855.4313A.4591.4591,0,0,1,407.3538,554.1249Z" fill="#1dcad3"/>
            <path d="M423.6406,557.519a.4591.4591,0,1,1-.4855.4316A.4583.4583,0,0,1,423.6406,557.519Z" fill="#1dcad3"/>
            <path d="M421.5624,571.8168a.4592.4592,0,1,1-.4855.4318A.4591.4591,0,0,1,421.5624,571.8168Z" fill="#1dcad3"/>
            <path d="M441.8788,599.19a.4594.4594,0,1,1-.4854.4318A.46.46,0,0,1,441.8788,599.19Z" fill="#1dcad3"/>
            <path d="M441.26,566.2139a.4593.4593,0,1,1-.4855.4318A.4591.4591,0,0,1,441.26,566.2139Z" fill="#1dcad3"/>
            <path d="M507.7483,586.9517a.4593.4593,0,1,1-.4854.4319A.4592.4592,0,0,1,507.7483,586.9517Z" fill="#1dcad3"/>
            <path d="M434.0959,523.4181a.4591.4591,0,1,1-.485.4318A.4594.4594,0,0,1,434.0959,523.4181Z" fill="#1dcad3"/>
            <path d="M475.3717,533.8959a.4593.4593,0,1,1-.4851.4317A.46.46,0,0,1,475.3717,533.8959Z" fill="#1dcad3"/>
            <path d="M411.2269,494.197a.4594.4594,0,1,1-.485.4318A.46.46,0,0,1,411.2269,494.197Z" fill="#1dcad3"/>
            <path d="M425.3888,470.9033a.46.46,0,1,1-.4855.4321A.46.46,0,0,1,425.3888,470.9033Z" fill="#1dcad3"/>
            <path d="M406.7526,478.1123a.4593.4593,0,1,1-.4852.4315A.4588.4588,0,0,1,406.7526,478.1123Z" fill="#1dcad3"/>
            <path d="M453.2993,455.7624a.4593.4593,0,1,1-.4855.432A.46.46,0,0,1,453.2993,455.7624Z" fill="#1dcad3"/>
            <path d="M475.3963,473.3017a.4592.4592,0,1,1-.4853.4315A.46.46,0,0,1,475.3963,473.3017Z" fill="#1dcad3"/>
            <path d="M499.4674,526.5328a.4593.4593,0,1,1-.4848.4323A.4594.4594,0,0,1,499.4674,526.5328Z" fill="#1dcad3"/>
            <path d="M501.73,519.56a.4592.4592,0,1,1-.4853.4314A.4588.4588,0,0,1,501.73,519.56Z" fill="#1dcad3"/>
            <path d="M523.0066,465.5805a.4591.4591,0,1,1-.485.4316A.4585.4585,0,0,1,523.0066,465.5805Z" fill="#1dcad3"/>
            <path d="M533.2369,450.81a.4593.4593,0,1,1-.4855.4318A.4592.4592,0,0,1,533.2369,450.81Z" fill="#1dcad3"/>
            <path d="M543.223,468.4091a.459.459,0,1,1-.4855.4311A.4587.4587,0,0,1,543.223,468.4091Z" fill="#1dcad3"/>
            <path d="M555.0646,502.045a.459.459,0,1,1-.4853.4311A.4585.4585,0,0,1,555.0646,502.045Z" fill="#1dcad3"/>
            <path d="M518.724,448.884a.4594.4594,0,1,1-.4855.432A.4591.4591,0,0,1,518.724,448.884Z" fill="#1dcad3"/>
            <path d="M547.6847,427.7893a.4594.4594,0,1,1-.4852.4321A.46.46,0,0,1,547.6847,427.7893Z" fill="#1dcad3"/>
            <path d="M508.677,424.9434a.4592.4592,0,1,1-.4855.4318A.4592.4592,0,0,1,508.677,424.9434Z" fill="#1dcad3"/>
            <path d="M480.5757,416.6478a.4593.4593,0,1,1-.4854.4316A.4591.4591,0,0,1,480.5757,416.6478Z" fill="#1dcad3"/>
            <path d="M462.4369,416.6638a.46.46,0,1,1-.4855.4323A.4593.4593,0,0,1,462.4369,416.6638Z" fill="#1dcad3"/>
            <path d="M611.61,429.9412a.4591.4591,0,1,1-.485.4316A.4594.4594,0,0,1,611.61,429.9412Z" fill="#1dcad3"/>
            <path d="M546.5577,477.4437a.4592.4592,0,1,1-.4848.4319A.4595.4595,0,0,1,546.5577,477.4437Z" fill="#1dcad3"/>
            <path d="M561.6145,496.2759a.4593.4593,0,1,1-.4854.4316A.4593.4593,0,0,1,561.6145,496.2759Z" fill="#1dcad3"/>
            <path d="M552.1283,446.1365a.459.459,0,1,1-.485.4316A.4591.4591,0,0,1,552.1283,446.1365Z" fill="#1dcad3"/>
            <path d="M547.9753,444.862a.4593.4593,0,1,1-.4853.4315A.4592.4592,0,0,1,547.9753,444.862Z" fill="#1dcad3"/>
            <path d="M464.3214,497.209a.46.46,0,1,1-.4854.4321A.46.46,0,0,1,464.3214,497.209Z" fill="#1dcad3"/>
            <path d="M432.4539,469.938a.4593.4593,0,1,1-.4855.432A.459.459,0,0,1,432.4539,469.938Z" fill="#1dcad3"/>
            <path d="M420.7731,492.9136a.4593.4593,0,1,1-.4851.4321A.46.46,0,0,1,420.7731,492.9136Z" fill="#1dcad3"/>
            <path d="M379.2044,531.926a.4593.4593,0,1,1-.4854.4318A.4592.4592,0,0,1,379.2044,531.926Z" fill="#1dcad3"/>
            <path d="M486.2818,580.068a.4594.4594,0,1,1-.485.4316A.4594.4594,0,0,1,486.2818,580.068Z" fill="#1dcad3"/>
            <path d="M473.3406,605.5742a.4592.4592,0,1,1-.485.4318A.4584.4584,0,0,1,473.3406,605.5742Z" fill="#1dcad3"/>
            <path d="M492.2854,637.6461a.4593.4593,0,1,1-.4855.4316A.4592.4592,0,0,1,492.2854,637.6461Z" fill="#1dcad3"/>
            <path d="M471.2166,639.0384a.46.46,0,1,1-.4855.4321A.46.46,0,0,1,471.2166,639.0384Z" fill="#1dcad3"/>
            <path d="M466.48,651.3158a.4592.4592,0,1,1-.4857.4316A.459.459,0,0,1,466.48,651.3158Z" fill="#1dcad3"/>
            <path d="M439.9149,478.5705a.4591.4591,0,1,1-.485.4316A.459.459,0,0,1,439.9149,478.5705Z" fill="#1dcad3"/>
            <path d="M394.8332,426.5113a.4593.4593,0,1,1-.485.4316A.4588.4588,0,0,1,394.8332,426.5113Z" fill="#1dcad3"/>
            <path d="M360.6461,429.8016a.4592.4592,0,1,1-.485.4318A.459.459,0,0,1,360.6461,429.8016Z" fill="#1dcad3"/>
            <path d="M359.9386,426.1668a.4593.4593,0,1,1-.4851.4316A.46.46,0,0,1,359.9386,426.1668Z" fill="#1dcad3"/>
            <path d="M397.9827,396.2119a.4593.4593,0,1,1-.4847.4316A.46.46,0,0,1,397.9827,396.2119Z" fill="#1dcad3"/>
            <path d="M398.91,403.2446a.4592.4592,0,1,1-.485.4315A.4585.4585,0,0,1,398.91,403.2446Z" fill="#1dcad3"/>
            <path d="M367.9586,403.2889a.4592.4592,0,1,1-.485.4316A.46.46,0,0,1,367.9586,403.2889Z" fill="#1dcad3"/>
            <path d="M365.0142,401.4142a.4593.4593,0,1,1-.4855.4315A.4589.4589,0,0,1,365.0142,401.4142Z" fill="#1dcad3"/>
            <path d="M367.171,408.4784a.4593.4593,0,1,1-.4855.4318A.4589.4589,0,0,1,367.171,408.4784Z" fill="#1dcad3"/>
            <path d="M352.0906,550.941a.4593.4593,0,1,1-.4848.432A.46.46,0,0,1,352.0906,550.941Z" fill="#1dcad3"/>
            <path d="M345.045,539.2255a.4593.4593,0,1,1-.4855.4316A.4587.4587,0,0,1,345.045,539.2255Z" fill="#1dcad3"/>
            <path d="M337.6774,510.6193a.4593.4593,0,1,1-.4855.4315A.4593.4593,0,0,1,337.6774,510.6193Z" fill="#1dcad3"/>
            <path d="M363.63,528.9a.4593.4593,0,1,1-.4853.4321A.46.46,0,0,1,363.63,528.9Z" fill="#1dcad3"/>
            <path d="M362.3975,544.2226a.4593.4593,0,1,1-.485.4314A.459.459,0,0,1,362.3975,544.2226Z" fill="#1dcad3"/>
            <path d="M330.9955,625.2531a.4591.4591,0,1,1-.4855.4315A.4593.4593,0,0,1,330.9955,625.2531Z" fill="#1dcad3"/>
            <path d="M342.3414,612.19a.4593.4593,0,1,1-.485.4321A.46.46,0,0,1,342.3414,612.19Z" fill="#1dcad3"/>
            <path d="M406.0892,566.0069a.4592.4592,0,1,1-.4857.4314A.4592.4592,0,0,1,406.0892,566.0069Z" fill="#1dcad3"/>
            <path d="M458.3761,552.0181a.4592.4592,0,1,1-.4852.4318A.4593.4593,0,0,1,458.3761,552.0181Z" fill="#1dcad3"/>
            <path d="M434.872,560.0893a.4593.4593,0,1,1-.4855.4315A.4593.4593,0,0,1,434.872,560.0893Z" fill="#1dcad3"/>
            <path d="M502.4211,568.2845a.4593.4593,0,1,1-.4852.4316A.4594.4594,0,0,1,502.4211,568.2845Z" fill="#1dcad3"/>
            <path d="M372.9869,522.5459a.4592.4592,0,1,1-.485.4313A.4592.4592,0,0,1,372.9869,522.5459Z" fill="#1dcad3"/>
            <path d="M449.9094,546.6714a.4593.4593,0,1,1-.4855.432A.46.46,0,0,1,449.9094,546.6714Z" fill="#1dcad3"/>
            <path d="M331.1219,591.4232a.46.46,0,1,1-.4855.4321A.459.459,0,0,1,331.1219,591.4232Z" fill="#1dcad3"/>
            <path d="M319.0728,404.4533a.4593.4593,0,1,1-.4855.4319A.46.46,0,0,1,319.0728,404.4533Z" fill="#1dcad3"/>
            <path d="M364.6549,607.3939a.4591.4591,0,1,1-.4853.4316A.4589.4589,0,0,1,364.6549,607.3939Z" fill="#1dcad3"/>
            <path d="M361.6143,605.6659a.4592.4592,0,1,1-.4858.4316A.4593.4593,0,0,1,361.6143,605.6659Z" fill="#1dcad3"/>
            <path d="M600.9567,493.0781a.4592.4592,0,1,1-.4855.4316A.4584.4584,0,0,1,600.9567,493.0781Z" fill="#1dcad3"/>
            <path d="M404.5529,588.8788a.4592.4592,0,1,1-.4853.4316A.4594.4594,0,0,1,404.5529,588.8788Z" fill="#1dcad3"/>
            <path d="M429.0609,605.0541a.4593.4593,0,1,1-.4852.4316A.4589.4589,0,0,1,429.0609,605.0541Z" fill="#1dcad3"/>
            <path d="M466.6891,585.5144a.4593.4593,0,1,1-.4852.432A.4594.4594,0,0,1,466.6891,585.5144Z" fill="#1dcad3"/>
            <path d="M409.3087,543.0661a.4593.4593,0,1,1-.4853.4316A.459.459,0,0,1,409.3087,543.0661Z" fill="#1dcad3"/>
            <path d="M386.445,563.0653a.4592.4592,0,1,1-.4851.4313A.46.46,0,0,1,386.445,563.0653Z" fill="#1dcad3"/>
            <path d="M435.7749,419.6643a.4593.4593,0,1,1-.4855.4322A.46.46,0,0,1,435.7749,419.6643Z" fill="#1dcad3"/>
            <path d="M405.0325,412.77a.46.46,0,1,1-.4854.4318A.4595.4595,0,0,1,405.0325,412.77Z" fill="#1dcad3"/>
            <path d="M427.8986,399.5069a.4593.4593,0,1,1-.4852.4318A.46.46,0,0,1,427.8986,399.5069Z" fill="#1dcad3"/>
            <path d="M395.875,441.5758a.4593.4593,0,1,1-.485.4319A.46.46,0,0,1,395.875,441.5758Z" fill="#1dcad3"/>
            <path d="M395.7433,482.7747a.4593.4593,0,1,1-.4855.432A.46.46,0,0,1,395.7433,482.7747Z" fill="#1dcad3"/>
            <path d="M382.68,493.7422a.4593.4593,0,1,1-.4852.4316A.4591.4591,0,0,1,382.68,493.7422Z" fill="#1dcad3"/>
            <path d="M445.6286,530.6521a.4592.4592,0,1,1-.4855.4316A.46.46,0,0,1,445.6286,530.6521Z" fill="#1dcad3"/>
            <path d="M406.6486,544.1265a.4594.4594,0,1,1-.4851.4318A.4594.4594,0,0,1,406.6486,544.1265Z" fill="#1dcad3"/>
            <path d="M448.2608,571.4342a.4593.4593,0,1,1-.4854.4316A.4593.4593,0,0,1,448.2608,571.4342Z" fill="#1dcad3"/>
            <path d="M383.19,578.6864a.4593.4593,0,1,1-.485.4316A.4588.4588,0,0,1,383.19,578.6864Z" fill="#1dcad3"/>
            <path d="M381.4,580.3275a.4593.4593,0,1,1-.4852.4318A.459.459,0,0,1,381.4,580.3275Z" fill="#1dcad3"/>
            <path d="M372.8366,591.9033a.4593.4593,0,1,1-.4848.4319A.4588.4588,0,0,1,372.8366,591.9033Z" fill="#1dcad3"/>
            <path d="M392.9164,600.68a.4595.4595,0,1,1-.4855.4319A.46.46,0,0,1,392.9164,600.68Z" fill="#1dcad3"/>
            <path d="M370.5476,577.597a.4594.4594,0,1,1-.4854.4316A.4588.4588,0,0,1,370.5476,577.597Z" fill="#1dcad3"/>
            <path d="M377.63,613.0108a.4593.4593,0,1,1-.4852.432A.4591.4591,0,0,1,377.63,613.0108Z" fill="#1dcad3"/>
            <path d="M257.72,456.3737a.4592.4592,0,1,1-.485.4318A.459.459,0,0,1,257.72,456.3737Z" fill="#1dcad3"/>
            <path d="M357.1105,630.7312a.4593.4593,0,1,1-.4855.4321A.46.46,0,0,1,357.1105,630.7312Z" fill="#1dcad3"/>
            <path d="M336.4291,643.7222a.4594.4594,0,1,1-.4848.432A.46.46,0,0,1,336.4291,643.7222Z" fill="#1dcad3"/>
            <path d="M333.8628,647.0037a.4591.4591,0,1,1-.485.4316A.4595.4595,0,0,1,333.8628,647.0037Z" fill="#1dcad3"/>
            <path d="M352.2565,615.8809a.4593.4593,0,1,1-.4851.432A.459.459,0,0,1,352.2565,615.8809Z" fill="#1dcad3"/>
            <path d="M431.0818,567.11a.4593.4593,0,1,1-.4852.4316A.4591.4591,0,0,1,431.0818,567.11Z" fill="#1dcad3"/>
            <path d="M477.93,549.9919a.4593.4593,0,1,1-.4854.432A.4592.4592,0,0,1,477.93,549.9919Z" fill="#1dcad3"/>
            <path d="M492.4343,526.5964a.4593.4593,0,1,1-.485.4316A.4589.4589,0,0,1,492.4343,526.5964Z" fill="#1dcad3"/>
            <path d="M514.41,518.6995a.4592.4592,0,1,1-.4855.4316A.4594.4594,0,0,1,514.41,518.6995Z" fill="#1dcad3"/>
            <path d="M473.45,467.9916a.4592.4592,0,1,1-.4853.4314A.4588.4588,0,0,1,473.45,467.9916Z" fill="#1dcad3"/>
            <path d="M488.0662,492.2224a.4593.4593,0,1,1-.485.4315A.4588.4588,0,0,1,488.0662,492.2224Z" fill="#1dcad3"/>
            <path d="M523.0287,551.4357a.4593.4593,0,1,1-.4855.4319A.46.46,0,0,1,523.0287,551.4357Z" fill="#1dcad3"/>
            <path d="M536.3114,578.9333a.4593.4593,0,1,1-.4855.432A.4588.4588,0,0,1,536.3114,578.9333Z" fill="#1dcad3"/>
            <path d="M493.2313,579.7632a.4594.4594,0,1,1-.486.4321A.4591.4591,0,0,1,493.2313,579.7632Z" fill="#1dcad3"/>
            <path d="M505.0211,584.8733a.4593.4593,0,1,1-.4855.4315A.4594.4594,0,0,1,505.0211,584.8733Z" fill="#1dcad3"/>
            <path d="M510.8022,536.4172a.4592.4592,0,1,1-.4855.4313A.4587.4587,0,0,1,510.8022,536.4172Z" fill="#1dcad3"/>
            <path d="M510.7643,422.1564a.4593.4593,0,1,1-.4848.4321A.46.46,0,0,1,510.7643,422.1564Z" fill="#1dcad3"/>
            <path d="M483.9255,407.6886a.4593.4593,0,1,1-.4855.4321A.46.46,0,0,1,483.9255,407.6886Z" fill="#1dcad3"/>
            <path d="M511.11,393.107a.4593.4593,0,1,1-.4855.4316A.4587.4587,0,0,1,511.11,393.107Z" fill="#1dcad3"/>
            <path d="M475.4067,396.1961a.4592.4592,0,1,1-.485.4316A.46.46,0,0,1,475.4067,396.1961Z" fill="#1dcad3"/>
            <path d="M589.6206,366.0008a.4592.4592,0,1,1-.4853.4311A.4595.4595,0,0,1,589.6206,366.0008Z" fill="#1dcad3"/>
            <path d="M551.1776,479.0384a.4592.4592,0,1,1-.4853.432A.46.46,0,0,1,551.1776,479.0384Z" fill="#1dcad3"/>
            <path d="M547.54,519.8077a.4593.4593,0,1,1-.4854.4316A.4591.4591,0,0,1,547.54,519.8077Z" fill="#1dcad3"/>
            <path d="M645.038,469.5809a.4593.4593,0,1,1-.485.4321A.46.46,0,0,1,645.038,469.5809Z" fill="#1dcad3"/>
          </g>
        </g>
      </g>
    </g>
  </g>
</svg>
