<svg xmlns="http://www.w3.org/2000/svg" viewBox="0 -100 1200 600" style='background-color: transparent'> <!-- transparent -->
	<g opacity="0.7">
		<g>
			<g>
				<path d="M571.1091,289.987a1.1644,1.1644,0,1,1,.0855,1.6441A1.1644,1.1644,0,0,1,571.1091,289.987Z" fill="#1dcad3"/>
				<path d="M698.1643,113.8089a1.1641,1.1641,0,1,1,.0852,1.6443A1.1637,1.1637,0,0,1,698.1643,113.8089Z" fill="#1dcad3"/>
				<path d="M496.8026,285.962a1.1641,1.1641,0,1,1,.0852,1.6441A1.1642,1.1642,0,0,1,496.8026,285.962Z" fill="#1dcad3"/>
				<path d="M537.8274,297.2951a1.1642,1.1642,0,1,1,.0853,1.6439A1.1643,1.1643,0,0,1,537.8274,297.2951Z" fill="#1dcad3"/>
				<path d="M729.8855,176.139a1.164,1.164,0,1,1,.0848,1.6441A1.1634,1.1634,0,0,1,729.8855,176.139Z" fill="#1dcad3"/>
				<path d="M606.2119,89.6362a1.1643,1.1643,0,1,1,.0854,1.6441A1.1649,1.1649,0,0,1,606.2119,89.6362Z" fill="#1dcad3"/>
				<path d="M588.0389,313.2373a1.1642,1.1642,0,1,1,.0852,1.6443A1.1645,1.1645,0,0,1,588.0389,313.2373Z" fill="#1dcad3"/>
				<path d="M680.5284,176.286a1.1641,1.1641,0,1,1,.0852,1.6444A1.1641,1.1641,0,0,1,680.5284,176.286Z" fill="#1dcad3"/>
				<path d="M471.138,363.87a1.1643,1.1643,0,1,1,.0852,1.6444A1.1643,1.1643,0,0,1,471.138,363.87Z" fill="#1dcad3"/>
				<path d="M549.2168,268.1588a1.1641,1.1641,0,1,1,.0848,1.6439A1.1639,1.1639,0,0,1,549.2168,268.1588Z" fill="#1dcad3"/>
				<path d="M528.5175,257.2566a1.1639,1.1639,0,1,1,.085,1.6441A1.1643,1.1643,0,0,1,528.5175,257.2566Z" fill="#1dcad3"/>
				<path d="M497.6816,240.0792a1.1642,1.1642,0,1,1,.085,1.6441A1.164,1.164,0,0,1,497.6816,240.0792Z" fill="#1dcad3"/>
				<path d="M584.9024,258.2549a1.1643,1.1643,0,1,1,.0857,1.6444A1.1648,1.1648,0,0,1,584.9024,258.2549Z" fill="#1dcad3"/>
				<path d="M608.278,281.8287a1.1642,1.1642,0,1,1,.0848,1.6442A1.1646,1.1646,0,0,1,608.278,281.8287Z" fill="#1dcad3"/>
				<path d="M607.797,261.8679a1.1641,1.1641,0,1,1,.0852,1.6441A1.1643,1.1643,0,0,1,607.797,261.8679Z" fill="#1dcad3"/>
				<path d="M530.91,230.0215a1.1643,1.1643,0,1,1,.0855,1.6441A1.1643,1.1643,0,0,1,530.91,230.0215Z" fill="#1dcad3"/>
				<path d="M536.6109,229.9239a1.1642,1.1642,0,1,1,.0853,1.6437A1.1638,1.1638,0,0,1,536.6109,229.9239Z" fill="#1dcad3"/>
				<path d="M509.8948,286.6819a1.1642,1.1642,0,1,1,.0853,1.644A1.1641,1.1641,0,0,1,509.8948,286.6819Z" fill="#1dcad3"/>
				<path d="M693.6185,126.2772a1.1642,1.1642,0,1,1,.0855,1.6445A1.164,1.164,0,0,1,693.6185,126.2772Z" fill="#1dcad3"/>
				<path d="M763.428,122.71a1.1642,1.1642,0,1,1,.0855,1.6442A1.1646,1.1646,0,0,1,763.428,122.71Z" fill="#1dcad3"/>
				<path d="M652.077,212.4062a1.1646,1.1646,0,1,1,.086,1.6442A1.1646,1.1646,0,0,1,652.077,212.4062Z" fill="#1dcad3"/>
				<path d="M471.0818,284.0777a1.1644,1.1644,0,1,1,.0852,1.6446A1.1644,1.1644,0,0,1,471.0818,284.0777Z" fill="#1dcad3"/>
				<path d="M514.4165,266.6611a1.1642,1.1642,0,1,1,.0852,1.6445A1.1631,1.1631,0,0,1,514.4165,266.6611Z" fill="#1dcad3"/>
				<path d="M625.8259,75.7a1.164,1.164,0,1,1,.0853,1.6442A1.1644,1.1644,0,0,1,625.8259,75.7Z" fill="#1dcad3"/>
				<path d="M488.6106,196.1928a1.1643,1.1643,0,1,1,.085,1.6441A1.1642,1.1642,0,0,1,488.6106,196.1928Z" fill="#1dcad3"/>
				<path d="M566.9071,157.1226a1.164,1.164,0,1,1,.0848,1.6446A1.1637,1.1637,0,0,1,566.9071,157.1226Z" fill="#1dcad3"/>
				<path d="M545.1128,168.1838a1.1641,1.1641,0,1,1,.0855,1.6441A1.1641,1.1641,0,0,1,545.1128,168.1838Z" fill="#1dcad3"/>
				<path d="M571.5572,239.66a1.1644,1.1644,0,1,1,.085,1.6444A1.1646,1.1646,0,0,1,571.5572,239.66Z" fill="#1dcad3"/>
				<path d="M568.5586,161.4492a1.164,1.164,0,1,1,.0848,1.6443A1.1641,1.1641,0,0,1,568.5586,161.4492Z" fill="#1dcad3"/>
				<path d="M538.3538,120.9147a1.1641,1.1641,0,1,1,.085,1.6445A1.1636,1.1636,0,0,1,538.3538,120.9147Z" fill="#1dcad3"/>
				<path d="M511.7459,88.18a1.1644,1.1644,0,1,1,.0857,1.6445A1.1645,1.1645,0,0,1,511.7459,88.18Z" fill="#1dcad3"/>
				<path d="M542.7,104.1324a1.1642,1.1642,0,1,1,.085,1.6441A1.1645,1.1645,0,0,1,542.7,104.1324Z" fill="#1dcad3"/>
				<path d="M619.32,130.3847a1.1644,1.1644,0,1,1,.085,1.6443A1.1642,1.1642,0,0,1,619.32,130.3847Z" fill="#1dcad3"/>
				<path d="M501.376,134.6406a1.1643,1.1643,0,1,1,.0853,1.6445A1.1638,1.1638,0,0,1,501.376,134.6406Z" fill="#1dcad3"/>
				<path d="M597.2148,137.3936a1.1642,1.1642,0,1,1,.0853,1.6441A1.1647,1.1647,0,0,1,597.2148,137.3936Z" fill="#1dcad3"/>
				<path d="M529.6966,83.641a1.164,1.164,0,1,1,.085,1.6441A1.1635,1.1635,0,0,1,529.6966,83.641Z" fill="#1dcad3"/>
				<path d="M668.319,145.1319a1.1642,1.1642,0,1,1,.0851,1.6441A1.1639,1.1639,0,0,1,668.319,145.1319Z" fill="#1dcad3"/>
				<path d="M628.6273,186.0413a1.1641,1.1641,0,1,1,.085,1.6436A1.1637,1.1637,0,0,1,628.6273,186.0413Z" fill="#1dcad3"/>
				<path d="M610.0622,222.2546a1.1644,1.1644,0,1,1,.085,1.6441A1.1633,1.1633,0,0,1,610.0622,222.2546Z" fill="#1dcad3"/>
				<path d="M578.2219,209.8785a1.1643,1.1643,0,1,1,.085,1.6441A1.1637,1.1637,0,0,1,578.2219,209.8785Z" fill="#1dcad3"/>
				<path d="M668.8189,190.5994a1.1644,1.1644,0,1,1,.0855,1.6441A1.1639,1.1639,0,0,1,668.8189,190.5994Z" fill="#1dcad3"/>
				<path d="M737.2194,77.9133a1.1641,1.1641,0,1,1,.0848,1.6441A1.1636,1.1636,0,0,1,737.2194,77.9133Z" fill="#1dcad3"/>
				<path d="M706.2826,175.7922a1.1641,1.1641,0,1,1,.0848,1.6441A1.1637,1.1637,0,0,1,706.2826,175.7922Z" fill="#1dcad3"/>
				<path d="M709.5992,146.9646a1.1641,1.1641,0,1,1,.0852,1.6444A1.1646,1.1646,0,0,1,709.5992,146.9646Z" fill="#1dcad3"/>
				<path d="M677.8148,87.5543a1.1642,1.1642,0,1,1,.0853,1.6438A1.1635,1.1635,0,0,1,677.8148,87.5543Z" fill="#1dcad3"/>
				<path d="M503.3774,223.9824a1.1641,1.1641,0,1,1,.0852,1.6438A1.1641,1.1641,0,0,1,503.3774,223.9824Z" fill="#1dcad3"/>
				<path d="M627.4145,207.401a1.164,1.164,0,1,1,.085,1.6439A1.1633,1.1633,0,0,1,627.4145,207.401Z" fill="#1dcad3"/>
				<path d="M565.9127,230.8538a1.1643,1.1643,0,1,1,.085,1.6441A1.164,1.164,0,0,1,565.9127,230.8538Z" fill="#1dcad3"/>
				<path d="M627.9615,199.5535a1.1642,1.1642,0,1,1,.0853,1.6446A1.1644,1.1644,0,0,1,627.9615,199.5535Z" fill="#1dcad3"/>
				<path d="M633.4576,211.0132a1.1641,1.1641,0,1,1,.0848,1.6441A1.1635,1.1635,0,0,1,633.4576,211.0132Z" fill="#1dcad3"/>
				<path d="M656.965,200.3128a1.1642,1.1642,0,1,1,.0852,1.6441A1.1644,1.1644,0,0,1,656.965,200.3128Z" fill="#1dcad3"/>
				<path d="M661.7289,260.4681a1.164,1.164,0,1,1,.0848,1.6441A1.1636,1.1636,0,0,1,661.7289,260.4681Z" fill="#1dcad3"/>
				<path d="M651.3481,280.6889a1.1643,1.1643,0,1,1,.0855,1.6444A1.1646,1.1646,0,0,1,651.3481,280.6889Z" fill="#1dcad3"/>
				<path d="M652.79,231.7985a1.1641,1.1641,0,1,1,.085,1.6441A1.1638,1.1638,0,0,1,652.79,231.7985Z" fill="#1dcad3"/>
				<path d="M538.154,153.6233a1.1641,1.1641,0,1,1,.0855,1.6439A1.1647,1.1647,0,0,1,538.154,153.6233Z" fill="#1dcad3"/>
				<path d="M511.2469,160.6643a1.1642,1.1642,0,1,1,.0853,1.6441A1.1642,1.1642,0,0,1,511.2469,160.6643Z" fill="#1dcad3"/>
				<path d="M473.8355,129.3728a1.1644,1.1644,0,1,1,.085,1.6446A1.1638,1.1638,0,0,1,473.8355,129.3728Z" fill="#1dcad3"/>
				<path d="M509.4837,79.3042a1.1642,1.1642,0,1,1,.0855,1.6441A1.1639,1.1639,0,0,1,509.4837,79.3042Z" fill="#1dcad3"/>
				<path d="M555.5679,209.8414a1.1639,1.1639,0,1,1,.085,1.6441A1.1641,1.1641,0,0,1,555.5679,209.8414Z" fill="#1dcad3"/>
				<path d="M556.796,188.9994a1.164,1.164,0,1,1,.0852,1.6439A1.1637,1.1637,0,0,1,556.796,188.9994Z" fill="#1dcad3"/>
				<path d="M540.9017,189.83a1.1641,1.1641,0,1,1,.0853,1.6438A1.1635,1.1635,0,0,1,540.9017,189.83Z" fill="#1dcad3"/>
				<path d="M508.7864,194.74a1.1641,1.1641,0,1,1,.085,1.6442A1.1643,1.1643,0,0,1,508.7864,194.74Z" fill="#1dcad3"/>
				<path d="M833.676,168.0983a1.1643,1.1643,0,1,1,.0853,1.6441A1.1649,1.1649,0,0,1,833.676,168.0983Z" fill="#1dcad3"/>
				<path d="M532.6875,326.149a1.1642,1.1642,0,1,1,.0857,1.6441A1.1639,1.1639,0,0,1,532.6875,326.149Z" fill="#1dcad3"/>
				<path d="M757.777,190.3936a1.1641,1.1641,0,1,1,.085,1.6446A1.1636,1.1636,0,0,1,757.777,190.3936Z" fill="#1dcad3"/>
				<path d="M827.95,117.0025a1.1644,1.1644,0,1,1,.085,1.6444A1.1638,1.1638,0,0,1,827.95,117.0025Z" fill="#1dcad3"/>
			</g>
			<g>
				<path d="M749.9557,99.9531a.4593.4593,0,1,1-.4852.4321A.46.46,0,0,1,749.9557,99.9531Z" fill="#1dcad3"/>
				<path d="M722.0357,84.8321a.4592.4592,0,1,1-.485.4316A.4595.4595,0,0,1,722.0357,84.8321Z" fill="#1dcad3"/>
				<path d="M736.5376,107.6682a.4592.4592,0,1,1-.485.4316A.4591.4591,0,0,1,736.5376,107.6682Z" fill="#1dcad3"/>
				<path d="M723.2635,75.4339a.4593.4593,0,1,1-.4852.4318A.4592.4592,0,0,1,723.2635,75.4339Z" fill="#1dcad3"/>
				<path d="M745.8083,84.7594a.4593.4593,0,1,1-.4855.4311A.4584.4584,0,0,1,745.8083,84.7594Z" fill="#1dcad3"/>
				<path d="M783.9705,43.4291a.4592.4592,0,1,1-.4855.4321A.4592.4592,0,0,1,783.9705,43.4291Z" fill="#1dcad3"/>
				<path d="M704.4088,77.5461a.4593.4593,0,1,1-.485.4318A.4586.4586,0,0,1,704.4088,77.5461Z" fill="#1dcad3"/>
				<path d="M645.1877,135.8317a.4591.4591,0,1,1-.4854.4316A.459.459,0,0,1,645.1877,135.8317Z" fill="#1dcad3"/>
				<path d="M574.375,236.9206a.4591.4591,0,1,1-.4857.4316A.4589.4589,0,0,1,574.375,236.9206Z" fill="#1dcad3"/>
				<path d="M575.0537,245.687a.4593.4593,0,1,1-.4854.4318A.46.46,0,0,1,575.0537,245.687Z" fill="#1dcad3"/>
				<path d="M592.3838,296.0956a.4591.4591,0,1,1-.485.4312A.4589.4589,0,0,1,592.3838,296.0956Z" fill="#1dcad3"/>
				<path d="M588.91,259.7141a.4594.4594,0,1,1-.485.4321A.46.46,0,0,1,588.91,259.7141Z" fill="#1dcad3"/>
				<path d="M609.4708,241.8118a.4592.4592,0,1,1-.4852.4316A.4591.4591,0,0,1,609.4708,241.8118Z" fill="#1dcad3"/>
				<path d="M578.4458,239.4968a.4594.4594,0,1,1-.4853.4321A.46.46,0,0,1,578.4458,239.4968Z" fill="#1dcad3"/>
				<path d="M569.7458,281.436a.4592.4592,0,1,1-.4848.4315A.459.459,0,0,1,569.7458,281.436Z" fill="#1dcad3"/>
				<path d="M550.0423,280.95a.4591.4591,0,1,1-.4852.4319A.4592.4592,0,0,1,550.0423,280.95Z" fill="#1dcad3"/>
				<path d="M541.622,278.2966a.4593.4593,0,1,1-.4852.4316A.4593.4593,0,0,1,541.622,278.2966Z" fill="#1dcad3"/>
				<path d="M574.6675,172.5073a.4593.4593,0,1,1-.4853.4313A.4589.4589,0,0,1,574.6675,172.5073Z" fill="#1dcad3"/>
				<path d="M532.6633,209.3687a.4593.4593,0,1,1-.4855.4318A.4591.4591,0,0,1,532.6633,209.3687Z" fill="#1dcad3"/>
				<path d="M861.4841,77.7921a.4591.4591,0,1,1-.4847.4311A.4589.4589,0,0,1,861.4841,77.7921Z" fill="#1dcad3"/>
				<path d="M594.3556,148.8526a.4593.4593,0,1,1-.4855.4321A.4591.4591,0,0,1,594.3556,148.8526Z" fill="#1dcad3"/>
				<path d="M606.7617,133.5242a.4593.4593,0,1,1-.485.4321A.4595.4595,0,0,1,606.7617,133.5242Z" fill="#1dcad3"/>
				<path d="M560.2215,149.5472a.46.46,0,1,1-.4853.432A.46.46,0,0,1,560.2215,149.5472Z" fill="#1dcad3"/>
				<path d="M567.4211,154.0033a.4592.4592,0,1,1-.4855.4318A.46.46,0,0,1,567.4211,154.0033Z" fill="#1dcad3"/>
				<path d="M549.8391,166.4256a.4592.4592,0,1,1-.485.432A.46.46,0,0,1,549.8391,166.4256Z" fill="#1dcad3"/>
				<path d="M543.9832,165.2728a.4592.4592,0,1,1-.4852.4316A.4595.4595,0,0,1,543.9832,165.2728Z" fill="#1dcad3"/>
				<path d="M533.3955,165.5945a.4593.4593,0,1,1-.4855.4316A.4589.4589,0,0,1,533.3955,165.5945Z" fill="#1dcad3"/>
				<path d="M544.3339,184.4423a.4593.4593,0,1,1-.4854.432A.459.459,0,0,1,544.3339,184.4423Z" fill="#1dcad3"/>
				<path d="M530.6336,206.9529a.4592.4592,0,1,1-.485.4316A.4587.4587,0,0,1,530.6336,206.9529Z" fill="#1dcad3"/>
				<path d="M524.3106,209.89a.4594.4594,0,1,1-.4855.4318A.4594.4594,0,0,1,524.3106,209.89Z" fill="#1dcad3"/>
				<path d="M560.1427,243.53a.4593.4593,0,1,1-.4847.4316A.4585.4585,0,0,1,560.1427,243.53Z" fill="#1dcad3"/>
				<path d="M533.0733,263.2037a.4593.4593,0,1,1-.4855.4319A.46.46,0,0,1,533.0733,263.2037Z" fill="#1dcad3"/>
				<path d="M530.9028,265.7638a.46.46,0,1,1-.4852.432A.46.46,0,0,1,530.9028,265.7638Z" fill="#1dcad3"/>
				<path d="M527.3891,267.635a.46.46,0,1,1-.4848.4318A.46.46,0,0,1,527.3891,267.635Z" fill="#1dcad3"/>
				<path d="M575.2022,217.5757a.4591.4591,0,1,1-.4855.4316A.4593.4593,0,0,1,575.2022,217.5757Z" fill="#1dcad3"/>
				<path d="M565.2739,268.0132a.4593.4593,0,1,1-.4855.432A.46.46,0,0,1,565.2739,268.0132Z" fill="#1dcad3"/>
				<path d="M582.9735,157.87a.46.46,0,1,1-.485.432A.46.46,0,0,1,582.9735,157.87Z" fill="#1dcad3"/>
				<path d="M610.11,151.3817a.46.46,0,1,1-.4853.4321A.4595.4595,0,0,1,610.11,151.3817Z" fill="#1dcad3"/>
				<path d="M626.5586,140.6019a.4593.4593,0,1,1-.4853.4318A.46.46,0,0,1,626.5586,140.6019Z" fill="#1dcad3"/>
				<path d="M607.3538,188.1249a.4591.4591,0,1,1-.4855.4313A.4591.4591,0,0,1,607.3538,188.1249Z" fill="#1dcad3"/>
				<path d="M623.6406,191.519a.4591.4591,0,1,1-.4855.4316A.4583.4583,0,0,1,623.6406,191.519Z" fill="#1dcad3"/>
				<path d="M621.5624,205.8168a.4592.4592,0,1,1-.4855.4318A.4591.4591,0,0,1,621.5624,205.8168Z" fill="#1dcad3"/>
				<path d="M641.8788,233.19a.4594.4594,0,1,1-.4854.4318A.46.46,0,0,1,641.8788,233.19Z" fill="#1dcad3"/>
				<path d="M641.26,200.2139a.4593.4593,0,1,1-.4855.4318A.4591.4591,0,0,1,641.26,200.2139Z" fill="#1dcad3"/>
				<path d="M707.7483,220.9517a.4593.4593,0,1,1-.4854.4319A.4592.4592,0,0,1,707.7483,220.9517Z" fill="#1dcad3"/>
				<path d="M634.0959,157.4181a.4591.4591,0,1,1-.485.4318A.4594.4594,0,0,1,634.0959,157.4181Z" fill="#1dcad3"/>
				<path d="M675.3717,167.8959a.4593.4593,0,1,1-.4851.4317A.46.46,0,0,1,675.3717,167.8959Z" fill="#1dcad3"/>
				<path d="M611.2269,128.197a.4594.4594,0,1,1-.485.4318A.46.46,0,0,1,611.2269,128.197Z" fill="#1dcad3"/>
				<path d="M625.3888,104.9033a.46.46,0,1,1-.4855.4321A.46.46,0,0,1,625.3888,104.9033Z" fill="#1dcad3"/>
				<path d="M606.7526,112.1123a.4593.4593,0,1,1-.4852.4315A.4588.4588,0,0,1,606.7526,112.1123Z" fill="#1dcad3"/>
				<path d="M653.2993,89.7624a.4593.4593,0,1,1-.4855.432A.46.46,0,0,1,653.2993,89.7624Z" fill="#1dcad3"/>
				<path d="M675.3963,107.3017a.4592.4592,0,1,1-.4853.4315A.46.46,0,0,1,675.3963,107.3017Z" fill="#1dcad3"/>
				<path d="M699.4674,160.5328a.4593.4593,0,1,1-.4848.4323A.4594.4594,0,0,1,699.4674,160.5328Z" fill="#1dcad3"/>
				<path d="M701.73,153.56a.4592.4592,0,1,1-.4853.4314A.4588.4588,0,0,1,701.73,153.56Z" fill="#1dcad3"/>
				<path d="M723.0066,99.5805a.4591.4591,0,1,1-.485.4316A.4585.4585,0,0,1,723.0066,99.5805Z" fill="#1dcad3"/>
				<path d="M733.2369,84.81a.4593.4593,0,1,1-.4855.4318A.4592.4592,0,0,1,733.2369,84.81Z" fill="#1dcad3"/>
				<path d="M743.223,102.4091a.459.459,0,1,1-.4855.4311A.4587.4587,0,0,1,743.223,102.4091Z" fill="#1dcad3"/>
				<path d="M755.0646,136.045a.459.459,0,1,1-.4853.4311A.4585.4585,0,0,1,755.0646,136.045Z" fill="#1dcad3"/>
				<path d="M718.724,82.884a.4594.4594,0,1,1-.4855.432A.4591.4591,0,0,1,718.724,82.884Z" fill="#1dcad3"/>
				<path d="M747.6847,61.7893a.4594.4594,0,1,1-.4852.4321A.46.46,0,0,1,747.6847,61.7893Z" fill="#1dcad3"/>
				<path d="M811.61,63.9412a.4591.4591,0,1,1-.485.4316A.4594.4594,0,0,1,811.61,63.9412Z" fill="#1dcad3"/>
				<path d="M746.5577,111.4437a.4592.4592,0,1,1-.4848.4319A.4595.4595,0,0,1,746.5577,111.4437Z" fill="#1dcad3"/>
				<path d="M761.6145,130.2759a.4593.4593,0,1,1-.4854.4316A.4593.4593,0,0,1,761.6145,130.2759Z" fill="#1dcad3"/>
				<path d="M752.1283,80.1365a.459.459,0,1,1-.485.4316A.4591.4591,0,0,1,752.1283,80.1365Z" fill="#1dcad3"/>
				<path d="M747.9753,78.862a.4593.4593,0,1,1-.4853.4315A.4592.4592,0,0,1,747.9753,78.862Z" fill="#1dcad3"/>
				<path d="M664.3214,131.209a.46.46,0,1,1-.4854.4321A.46.46,0,0,1,664.3214,131.209Z" fill="#1dcad3"/>
				<path d="M632.4539,103.938a.4593.4593,0,1,1-.4855.432A.459.459,0,0,1,632.4539,103.938Z" fill="#1dcad3"/>
				<path d="M620.7731,126.9136a.4593.4593,0,1,1-.4851.4321A.46.46,0,0,1,620.7731,126.9136Z" fill="#1dcad3"/>
				<path d="M579.2044,165.926a.4593.4593,0,1,1-.4854.4318A.4592.4592,0,0,1,579.2044,165.926Z" fill="#1dcad3"/>
				<path d="M686.2818,214.068a.4594.4594,0,1,1-.485.4316A.4594.4594,0,0,1,686.2818,214.068Z" fill="#1dcad3"/>
				<path d="M673.3406,239.5742a.4592.4592,0,1,1-.485.4318A.4584.4584,0,0,1,673.3406,239.5742Z" fill="#1dcad3"/>
				<path d="M692.2854,271.6461a.4593.4593,0,1,1-.4855.4316A.4592.4592,0,0,1,692.2854,271.6461Z" fill="#1dcad3"/>
				<path d="M671.2166,273.0384a.46.46,0,1,1-.4855.4321A.46.46,0,0,1,671.2166,273.0384Z" fill="#1dcad3"/>
				<path d="M666.48,285.3158a.4592.4592,0,1,1-.4857.4316A.459.459,0,0,1,666.48,285.3158Z" fill="#1dcad3"/>
				<path d="M639.9149,112.5705a.4591.4591,0,1,1-.485.4316A.459.459,0,0,1,639.9149,112.5705Z" fill="#1dcad3"/>
				<path d="M552.0906,184.941a.4593.4593,0,1,1-.4848.432A.46.46,0,0,1,552.0906,184.941Z" fill="#1dcad3"/>
				<path d="M545.045,173.2255a.4593.4593,0,1,1-.4855.4316A.4587.4587,0,0,1,545.045,173.2255Z" fill="#1dcad3"/>
				<path d="M537.6774,144.6193a.4593.4593,0,1,1-.4855.4315A.4593.4593,0,0,1,537.6774,144.6193Z" fill="#1dcad3"/>
				<path d="M563.63,162.9a.4593.4593,0,1,1-.4853.4321A.46.46,0,0,1,563.63,162.9Z" fill="#1dcad3"/>
				<path d="M562.3975,178.2226a.4593.4593,0,1,1-.485.4314A.459.459,0,0,1,562.3975,178.2226Z" fill="#1dcad3"/>
				<path d="M530.9955,259.2531a.4591.4591,0,1,1-.4855.4315A.4593.4593,0,0,1,530.9955,259.2531Z" fill="#1dcad3"/>
				<path d="M542.3414,246.19a.4593.4593,0,1,1-.485.4321A.46.46,0,0,1,542.3414,246.19Z" fill="#1dcad3"/>
				<path d="M606.0892,200.0069a.4592.4592,0,1,1-.4857.4314A.4592.4592,0,0,1,606.0892,200.0069Z" fill="#1dcad3"/>
				<path d="M658.3761,186.0181a.4592.4592,0,1,1-.4852.4318A.4593.4593,0,0,1,658.3761,186.0181Z" fill="#1dcad3"/>
				<path d="M634.872,194.0893a.4593.4593,0,1,1-.4855.4315A.4593.4593,0,0,1,634.872,194.0893Z" fill="#1dcad3"/>
				<path d="M702.4211,202.2845a.4593.4593,0,1,1-.4852.4316A.4594.4594,0,0,1,702.4211,202.2845Z" fill="#1dcad3"/>
				<path d="M572.9869,156.5459a.4592.4592,0,1,1-.485.4313A.4592.4592,0,0,1,572.9869,156.5459Z" fill="#1dcad3"/>
				<path d="M649.9094,180.6714a.4593.4593,0,1,1-.4855.432A.46.46,0,0,1,649.9094,180.6714Z" fill="#1dcad3"/>
				<path d="M531.1219,225.4232a.46.46,0,1,1-.4855.4321A.459.459,0,0,1,531.1219,225.4232Z" fill="#1dcad3"/>
				<path d="M564.6549,241.3939a.4591.4591,0,1,1-.4853.4316A.4589.4589,0,0,1,564.6549,241.3939Z" fill="#1dcad3"/>
				<path d="M561.6143,239.6659a.4592.4592,0,1,1-.4858.4316A.4593.4593,0,0,1,561.6143,239.6659Z" fill="#1dcad3"/>
				<path d="M800.9567,127.0781a.4592.4592,0,1,1-.4855.4316A.4584.4584,0,0,1,800.9567,127.0781Z" fill="#1dcad3"/>
				<path d="M604.5529,222.8788a.4592.4592,0,1,1-.4853.4316A.4594.4594,0,0,1,604.5529,222.8788Z" fill="#1dcad3"/>
				<path d="M629.0609,239.0541a.4593.4593,0,1,1-.4852.4316A.4589.4589,0,0,1,629.0609,239.0541Z" fill="#1dcad3"/>
				<path d="M666.6891,219.5144a.4593.4593,0,1,1-.4852.432A.4594.4594,0,0,1,666.6891,219.5144Z" fill="#1dcad3"/>
				<path d="M609.3087,177.0661a.4593.4593,0,1,1-.4853.4316A.459.459,0,0,1,609.3087,177.0661Z" fill="#1dcad3"/>
				<path d="M586.445,197.0653a.4592.4592,0,1,1-.4851.4313A.46.46,0,0,1,586.445,197.0653Z" fill="#1dcad3"/>
				<path d="M595.875,75.5758a.4593.4593,0,1,1-.485.4319A.46.46,0,0,1,595.875,75.5758Z" fill="#1dcad3"/>
				<path d="M595.7433,116.7747a.4593.4593,0,1,1-.4855.432A.46.46,0,0,1,595.7433,116.7747Z" fill="#1dcad3"/>
				<path d="M582.68,127.7422a.4593.4593,0,1,1-.4852.4316A.4591.4591,0,0,1,582.68,127.7422Z" fill="#1dcad3"/>
				<path d="M645.6286,164.6521a.4592.4592,0,1,1-.4855.4316A.46.46,0,0,1,645.6286,164.6521Z" fill="#1dcad3"/>
				<path d="M606.6486,178.1265a.4594.4594,0,1,1-.4851.4318A.4594.4594,0,0,1,606.6486,178.1265Z" fill="#1dcad3"/>
				<path d="M648.2608,205.4342a.4593.4593,0,1,1-.4854.4316A.4593.4593,0,0,1,648.2608,205.4342Z" fill="#1dcad3"/>
				<path d="M583.19,212.6864a.4593.4593,0,1,1-.485.4316A.4588.4588,0,0,1,583.19,212.6864Z" fill="#1dcad3"/>
				<path d="M581.4,214.3275a.4593.4593,0,1,1-.4852.4318A.459.459,0,0,1,581.4,214.3275Z" fill="#1dcad3"/>
				<path d="M572.8366,225.9033a.4593.4593,0,1,1-.4848.4319A.4588.4588,0,0,1,572.8366,225.9033Z" fill="#1dcad3"/>
				<path d="M592.9164,234.68a.4595.4595,0,1,1-.4855.4319A.46.46,0,0,1,592.9164,234.68Z" fill="#1dcad3"/>
				<path d="M570.5476,211.597a.4594.4594,0,1,1-.4854.4316A.4588.4588,0,0,1,570.5476,211.597Z" fill="#1dcad3"/>
				<path d="M577.63,247.0108a.4593.4593,0,1,1-.4852.432A.4591.4591,0,0,1,577.63,247.0108Z" fill="#1dcad3"/>
				<path d="M457.72,90.3737a.4592.4592,0,1,1-.485.4318A.459.459,0,0,1,457.72,90.3737Z" fill="#1dcad3"/>
				<path d="M557.1105,264.7312a.4593.4593,0,1,1-.4855.4321A.46.46,0,0,1,557.1105,264.7312Z" fill="#1dcad3"/>
				<path d="M536.4291,277.7222a.4594.4594,0,1,1-.4848.432A.46.46,0,0,1,536.4291,277.7222Z" fill="#1dcad3"/>
				<path d="M533.8628,281.0037a.4591.4591,0,1,1-.485.4316A.4595.4595,0,0,1,533.8628,281.0037Z" fill="#1dcad3"/>
				<path d="M552.2565,249.8809a.4593.4593,0,1,1-.4851.432A.459.459,0,0,1,552.2565,249.8809Z" fill="#1dcad3"/>
				<path d="M631.0818,201.11a.4593.4593,0,1,1-.4852.4316A.4591.4591,0,0,1,631.0818,201.11Z" fill="#1dcad3"/>
				<path d="M677.93,183.9919a.4593.4593,0,1,1-.4854.432A.4592.4592,0,0,1,677.93,183.9919Z" fill="#1dcad3"/>
				<path d="M692.4343,160.5964a.4593.4593,0,1,1-.485.4316A.4589.4589,0,0,1,692.4343,160.5964Z" fill="#1dcad3"/>
				<path d="M714.41,152.7a.4592.4592,0,1,1-.4855.4316A.4594.4594,0,0,1,714.41,152.7Z" fill="#1dcad3"/>
				<path d="M673.45,101.9916a.4592.4592,0,1,1-.4853.4314A.4588.4588,0,0,1,673.45,101.9916Z" fill="#1dcad3"/>
				<path d="M688.0662,126.2224a.4593.4593,0,1,1-.485.4315A.4588.4588,0,0,1,688.0662,126.2224Z" fill="#1dcad3"/>
				<path d="M723.0287,185.4357a.4593.4593,0,1,1-.4855.4319A.46.46,0,0,1,723.0287,185.4357Z" fill="#1dcad3"/>
				<path d="M736.3114,212.9333a.4593.4593,0,1,1-.4855.432A.4588.4588,0,0,1,736.3114,212.9333Z" fill="#1dcad3"/>
				<path d="M693.2313,213.7632a.4594.4594,0,1,1-.486.4321A.4591.4591,0,0,1,693.2313,213.7632Z" fill="#1dcad3"/>
				<path d="M705.0211,218.8733a.4593.4593,0,1,1-.4855.4315A.4594.4594,0,0,1,705.0211,218.8733Z" fill="#1dcad3"/>
				<path d="M710.8022,170.4172a.4592.4592,0,1,1-.4855.4313A.4587.4587,0,0,1,710.8022,170.4172Z" fill="#1dcad3"/>
				<path d="M789.6206.0008a.4592.4592,0,1,1-.4853.4311A.4595.4595,0,0,1,789.6206.0008Z" fill="#1dcad3"/>
				<path d="M751.1776,113.0384a.4592.4592,0,1,1-.4853.432A.46.46,0,0,1,751.1776,113.0384Z" fill="#1dcad3"/>
				<path d="M747.54,153.8077a.4593.4593,0,1,1-.4854.4316A.4591.4591,0,0,1,747.54,153.8077Z" fill="#1dcad3"/>
				<path d="M845.038,103.5809a.4593.4593,0,1,1-.485.4321A.46.46,0,0,1,845.038,103.5809Z" fill="#1dcad3"/>
			</g>
		</g>
	</g>
</svg>
