<svg xmlns="http://www.w3.org/2000/svg" viewBox="0 0 92.0432 59.775">
  <title>starrr</title>
  <g>
    <path d="M24.1015,22.7867C20.1368,35.1258,16.0722,47.447,12.04,59.775L31.5222,45.5635,51.004,59.775l-7.4959-23.09.0305-.1918H39.84l4.5064,13.9483-12.8243-9.27L18.698,50.5692c2.6546-8.1174,5.3094-16.1317,7.9426-24.3185q30.2663,0,60.5234-.0121l4.8792-3.5253Q58.039,22.743,24.1015,22.7867Z" fill="#74c8d2" fill-rule="evenodd"/>
    <polygon points="28.886 19.494 31.522 11.327 34.158 19.494 37.815 19.494 31.522 0 25.23 19.494 28.886 19.494" fill="#0437a0" fill-rule="evenodd"/>
    <polygon points="17.729 31.253 10.772 26.219 19.342 26.235 20.459 22.758 0 22.719 16.61 34.738 17.729 31.253" fill="#8cc63f" fill-rule="evenodd"/>
  </g>
</svg>
