<svg xmlns="http://www.w3.org/2000/svg" id="s-34" viewBox="0 0 34.284 34.285">
    <path fill="#000" d="M17.142 0A17.142 17.142 0 1 1 0 17.142 17.143 17.143 0 0 1 17.142 0z"/>
    <path d="M17.142 0a17.144 17.144 0 0 0-5.42 33.408c.858.16 1.172-.371 1.172-.824 0-.409-.016-1.76-.023-3.192C8.1 30.43 7.096 27.37 7.096 27.37a4.538 4.538 0 0 0-1.904-2.509c-1.555-1.064.117-1.042.117-1.042a3.603 3.603 0 0 1 2.628 1.767 3.65 3.65 0 0 0 4.989 1.425 3.65 3.65 0 0 1 1.088-2.292c-3.807-.434-7.81-1.904-7.81-8.472a6.634 6.634 0 0 1 1.766-4.601 6.16 6.16 0 0 1 .166-4.537s1.44-.46 4.716 1.757a16.262 16.262 0 0 1 8.585 0c3.272-2.218 4.709-1.757 4.709-1.757a6.152 6.152 0 0 1 .168 4.537 6.621 6.621 0 0 1 1.764 4.6c0 6.585-4.01 8.035-7.827 8.459a4.098 4.098 0 0 1 1.163 3.174c0 2.294-.02 4.14-.02 4.705 0 .456.308.99 1.177.822A17.145 17.145 0 0 0 17.142 0" fill="#25cbd3"/>
    <path d="M6.42 24.42c-.037.085-.171.11-.293.052-.125-.056-.195-.172-.154-.258.037-.087.17-.112.295-.053.124.056.195.173.152.258m.844.753c-.082.076-.242.04-.35-.08a.262.262 0 0 1-.05-.356c.084-.075.239-.04.351.08.112.12.134.28.048.356m.58.962c-.106.073-.278.005-.384-.147-.105-.153-.105-.336.002-.409.107-.073.276-.007.384.144.104.155.104.338-.003.413m.978 1.114c-.094.104-.294.076-.44-.065a.33.33 0 0 1-.098-.438c.095-.104.297-.075.444.065.15.138.195.336.094.438m1.265.377c-.042.134-.234.195-.429.138-.193-.059-.32-.216-.281-.352.04-.135.234-.198.43-.137.193.058.32.214.28.35m1.439.16c.005.142-.16.259-.364.262-.205.004-.37-.11-.373-.25 0-.142.161-.258.366-.262.204-.004.37.11.37.25m1.414-.054c.025.138-.117.28-.32.317-.198.037-.383-.048-.408-.185-.025-.142.12-.283.318-.32.203-.035.384.048.41.188" fill="#25cbd3"/>
</svg>


